# This is a clothes file for MakeHuman Community, exported by MakeClothes 2
#
# author: unknown
# license: CC0
#
v -0.3106 0.4902 1.0202
v -0.2682 0.2687 0.9191
v -0.1759 0.4370 1.0566
v -0.1609 0.1524 1.0329
v -0.0612 0.2738 0.5100
v -0.1354 0.2681 0.6550
v -0.2691 0.3153 0.9562
v -0.0534 0.2387 0.5833
v -0.1521 0.2149 1.0558
v -0.2589 0.1403 0.8927
v -0.1412 0.0691 0.9850
v -0.1703 0.1679 0.7161
v -0.0608 0.1475 0.6747
v -0.1622 0.0234 0.8533
v -0.0919 0.0127 0.8783
v -0.1449 0.0347 0.8083
v -0.0772 0.0300 0.8100
v -0.1426 0.0119 0.8440
v -0.1150 0.0074 0.8517
v -0.1353 0.0172 0.8234
v -0.1083 0.0129 0.8270
v -0.1188 0.2914 1.1501
v -0.0974 0.1575 1.1204
v -0.1142 0.1491 1.2160
v -0.0811 0.0574 1.1608
v -0.1120 0.0485 1.2674
v -0.0706 -0.0120 1.1929
v -0.1029 -0.1574 1.3689
v -0.0716 -0.1911 1.3059
v -0.0491 -0.2636 1.3906
v -0.0433 -0.2630 1.3481
v -0.2030 0.0597 0.8703
v -0.1107 0.0288 0.9321
v -0.0682 0.0781 0.7475
v -0.1624 0.0813 0.7752
v -0.0698 -0.1256 1.2681
v -0.1114 -0.0824 1.3409
v -0.0363 -0.1348 1.2504
v -0.0959 -0.1091 1.2993
v -0.0539 0.0101 1.4296
v -0.1015 -0.0254 1.3951
v -0.0344 0.0782 0.7469
v -0.1321 0.0822 0.7585
v -0.0948 -0.1305 1.4164
v -0.0940 -0.1781 1.3322
v -0.1008 0.0798 0.7500
v -0.0366 -0.1970 1.2939
v -0.1870 0.0787 0.8019
v -0.0520 -0.1119 1.4634
v -0.0643 -0.2203 1.3211
v -0.1556 0.0354 0.9202
v -0.0896 -0.1994 1.3789
v 0.0241 -0.2680 1.3673
v -0.2006 0.0725 0.8355
v -0.1869 0.0467 0.8995
v -0.0573 0.0247 0.9393
v -0.0723 -0.1646 1.2929
v -0.0240 -0.2528 1.4340
v -0.0242 -0.2616 1.3465
v -0.0434 -0.2583 1.4142
v -0.1145 -0.1180 1.3552
v -0.0479 -0.2649 1.3660
v -0.0693 -0.0670 1.2219
v -0.1180 -0.0245 1.3015
v -0.1156 0.5304 1.0814
v -0.0839 0.1159 1.0394
v -0.0268 0.2802 0.4737
v -0.1757 0.3201 1.0619
v -0.1545 0.2256 0.6824
v -0.0265 0.2299 0.5635
v -0.1560 0.1033 1.0112
v -0.0791 0.1462 1.0633
v -0.2850 0.6732 1.1483
v -0.0897 0.1064 1.1434
v -0.1107 0.2176 1.1855
v -0.1129 0.0938 1.2426
v -0.0530 0.1076 1.3581
v -0.1009 0.0122 1.2216
v -0.0351 -0.0236 1.1791
v -0.2702 0.3783 0.9515
v -0.0557 0.1114 1.1122
v -0.0904 0.0834 1.3147
v -0.0561 0.4101 1.2068
v -0.1172 0.2209 1.1329
v -0.1010 0.3603 1.1740
v -0.0747 0.0189 1.1766
v -0.0538 0.5754 1.1281
v -0.2717 0.2046 0.9030
v -0.0974 0.1963 1.2502
v -0.1081 0.0993 1.1851
v -0.0421 0.0312 1.1457
v -0.0543 0.2311 1.2799
v -0.1682 0.2906 0.6927
v -0.1958 0.4660 1.0349
v -0.2210 0.2624 1.0270
v -0.0713 0.0517 0.7791
v -0.2258 0.1895 1.0146
v -0.1148 0.1966 1.0912
v -0.1027 0.2656 0.6047
v -0.2360 0.3223 0.8240
v -0.2366 0.4834 1.0291
v -0.0380 0.0337 0.8106
v -0.2664 0.2273 0.9816
v -0.1809 0.0369 0.8612
v -0.0993 0.0182 0.9063
v -0.1535 0.0533 0.7940
v -0.0652 0.1094 0.7131
v -0.1445 0.2913 0.6030
v -0.2306 0.0927 0.8809
v -0.1700 0.1186 0.7494
v -0.1260 0.0441 0.9588
v -0.1415 0.0136 0.8375
v -0.1387 0.0154 0.8295
v -0.0559 0.1915 0.6315
v -0.0734 0.0552 0.9899
v -0.1496 0.0157 0.8475
v -0.1082 0.0086 0.8603
v -0.1048 0.0338 0.8010
v -0.1112 0.0083 0.8446
v -0.1388 0.0233 0.8179
v -0.1246 0.0087 0.8504
v -0.1274 0.0160 0.8233
v -0.1354 0.0098 0.8473
v -0.1171 0.0140 0.8245
v -0.0716 0.0188 0.8359
v -0.1087 0.0103 0.8351
v -0.1272 0.0144 0.8761
v -0.0758 0.0134 0.8576
v -0.1411 0.3668 1.1071
v -0.0302 0.1436 0.6692
v -0.1639 0.0296 0.8371
v -0.0935 0.1540 0.6822
v -0.1579 0.0328 0.8210
v -0.1499 0.0181 0.8670
v -0.1296 0.1619 0.6930
v -0.1998 0.0869 0.9723
v -0.1267 0.0356 0.8013
v -0.2617 0.2956 0.9955
v -0.2411 0.1120 0.9431
v -0.0983 0.0179 0.8220
v -0.0778 0.2427 0.6132
v -0.0465 0.0133 0.8884
v -0.2118 0.1707 0.7597
v -0.2457 0.1640 0.8246
v -0.0655 0.6120 1.1355
v -0.1304 0.5530 1.0772
v -0.2231 0.3561 1.0341
v -0.0803 0.0824 1.0148
v -0.0280 0.1828 0.6204
v -0.1984 0.2383 0.7272
v -0.0378 0.0214 0.8386
v -0.2604 0.1659 0.9643
v -0.0846 0.2023 0.6463
v -0.1121 0.0207 0.8152
v -0.1666 0.0280 0.8822
v -0.1021 0.0529 0.7778
v -0.1724 0.0501 0.8129
v -0.1197 0.0103 0.8330
v -0.1472 0.0215 0.8263
v -0.1407 0.0121 0.8556
v -0.0979 0.0094 0.8498
v -0.1291 0.0549 0.7825
v -0.1164 0.2157 0.6552
v -0.1810 0.0462 0.8368
v -0.0406 0.0147 0.8646
v -0.1222 0.0087 0.8418
v -0.1264 0.0235 0.8143
v -0.2177 0.1320 0.9961
v -0.1255 0.0102 0.8607
v -0.1297 0.0126 0.8312
v -0.1326 0.0101 0.8393
v -0.1378 0.0232 0.8966
v -0.2503 0.3792 1.0023
v -0.1677 0.5863 1.0971
v -0.0362 0.0529 0.7798
v -0.0944 0.0133 0.8359
v -0.2480 0.2394 0.8146
v -0.0515 0.0165 0.9142
v -0.1510 0.0194 0.8371
v -0.1388 0.2757 1.0985
v -0.0527 0.5064 1.1589
v -0.0655 0.1408 1.0893
v -0.1124 0.4641 1.1218
v -0.0940 0.2716 1.2133
v -0.0553 0.3123 1.2415
v -0.0475 0.0709 1.1303
v -0.1090 0.1600 1.1620
v -0.1030 0.0512 1.2040
v -0.0983 0.1353 1.2868
v -0.0550 0.1643 1.3227
v -0.0374 0.0028 1.1625
v -0.0601 -0.0054 1.4466
v -0.0371 -0.1740 1.2783
v -0.1017 -0.1475 1.3175
v -0.1032 -0.0681 1.4009
v -0.0803 -0.1843 1.4241
v -0.0439 -0.1725 1.4662
v -0.0338 -0.2224 1.3107
v -0.0814 -0.2117 1.3457
v -0.2151 0.0722 0.9210
v -0.0990 0.1122 0.7176
v -0.2044 0.1163 0.7845
v -0.1342 0.1164 0.7279
v -0.2264 0.1086 0.8324
v -0.1767 0.0564 0.9452
v -0.0326 0.1082 0.7108
v -0.0654 0.0363 0.9650
v -0.0000 -0.2675 1.3668
v -0.0241 -0.2677 1.3673
v -0.0498 0.0332 1.3935
v -0.0349 -0.0758 1.2059
v -0.0968 -0.0473 1.2561
v -0.0899 0.0103 1.3530
v -0.0554 -0.2494 1.3338
v -0.0745 -0.2377 1.3853
v -0.0615 -0.2265 1.4229
v -0.0329 -0.2182 1.4531
v -0.0290 -0.2474 1.3274
v -0.0711 -0.2465 1.3546
v -0.0705 -0.1433 1.2818
v -0.1136 -0.0937 1.3493
v -0.0569 0.0069 1.4375
v -0.0364 -0.1530 1.2655
v -0.0969 -0.1244 1.3106
v -0.1067 -0.0274 1.4026
v -0.0689 -0.0407 1.2082
v -0.1153 0.0082 1.2870
v -0.0502 0.0627 1.3777
v -0.0347 -0.0506 1.1931
v -0.0969 -0.0190 1.2407
v -0.0891 0.0412 1.3362
v -0.0695 -0.1073 1.2530
v -0.1137 -0.0653 1.3257
v -0.0534 0.0133 1.4169
v -0.0362 -0.1171 1.2343
v -0.0962 -0.0904 1.2847
v -0.0940 -0.0226 1.3771
v -0.0695 -0.0890 1.2361
v -0.1167 -0.0445 1.3117
v -0.0501 0.0179 1.4037
v -0.0355 -0.0981 1.2190
v -0.0971 -0.0706 1.2689
v -0.0897 -0.0102 1.3634
v -0.1662 0.7134 1.1835
v -0.0180 0.3014 0.1175
v -0.2353 0.3522 0.7964
v -0.0515 0.2782 0.1100
v -0.0760 0.2712 0.3701
v -0.0276 0.2841 0.3169
v -0.1025 0.6494 1.1589
v 0.3106 0.4902 1.0202
v 0.0031 0.1052 1.0399
v 0.2681 0.2686 0.9193
v -0.0002 0.2784 0.4644
v 0.0000 0.5934 1.1345
v 0.1762 0.4373 1.0560
v 0.1638 0.1543 1.0338
v 0.0614 0.2735 0.5100
v -0.0005 0.2260 0.5565
v 0.1363 0.2675 0.6572
v 0.2689 0.3150 0.9566
v 0.0033 0.1255 1.0642
v 0.0534 0.2392 0.5827
v 0.1546 0.2164 1.0564
v 0.2586 0.1415 0.8915
v 0.1434 0.0705 0.9855
v 0.1686 0.1685 0.7175
v 0.0602 0.1491 0.6744
v 0.1627 0.0231 0.8532
v 0.0922 0.0119 0.8774
v 0.1445 0.0346 0.8080
v 0.0765 0.0301 0.8095
v 0.1427 0.0115 0.8439
v 0.1151 0.0063 0.8513
v 0.1351 0.0170 0.8233
v 0.1080 0.0123 0.8267
v 0.0022 0.0515 0.9906
v 0.0003 0.0133 0.8916
v -0.0005 0.1423 0.6667
v -0.0001 0.0349 0.8106
v 0.0001 0.4208 1.2164
v 0.1206 0.2916 1.1502
v 0.0032 0.0969 1.1090
v 0.1007 0.1598 1.1213
v 0.0017 0.2424 1.2914
v 0.1167 0.1484 1.2159
v 0.0024 0.0231 1.1412
v 0.0846 0.0588 1.1624
v 0.0007 0.1152 1.3790
v 0.1157 0.0475 1.2666
v 0.0015 -0.0279 1.1746
v 0.0732 -0.0117 1.1938
v 0.0000 -0.1102 1.4715
v 0.1048 -0.1572 1.3679
v -0.0000 -0.1987 1.2914
v 0.0691 -0.1907 1.3075
v 0.0000 -0.2520 1.4387
v 0.0493 -0.2635 1.3904
v -0.0000 -0.2606 1.3454
v 0.0438 -0.2632 1.3475
v 0.2042 0.0601 0.8698
v 0.1120 0.0289 0.9318
v 0.0673 0.0793 0.7477
v 0.1610 0.0817 0.7749
v 0.0015 0.0231 0.9415
v -0.0003 0.0784 0.7467
v -0.0000 -0.2676 1.4041
v 0.0000 0.0185 1.4413
v 0.0006 -0.1371 1.2461
v 0.0701 -0.1249 1.2689
v 0.1119 -0.0824 1.3407
v 0.0370 -0.1340 1.2518
v 0.0963 -0.1091 1.2993
v 0.0539 0.0101 1.4296
v 0.1015 -0.0255 1.3951
v 0.0337 0.0793 0.7464
v 0.1310 0.0824 0.7589
v 0.0947 -0.1304 1.4160
v 0.0946 -0.1780 1.3315
v 0.1000 0.0800 0.7506
v 0.0361 -0.1967 1.2948
v 0.1866 0.0782 0.8009
v 0.0520 -0.1119 1.4634
v 0.0000 0.0151 0.8666
v 0.0000 -0.1704 1.4742
v 0.0636 -0.2200 1.3216
v 0.1561 0.0361 0.9195
v 0.0901 -0.1992 1.3786
v -0.0000 -0.2584 1.4160
v 0.2009 0.0724 0.8346
v 0.1890 0.0462 0.8996
v 0.0224 -0.2708 1.4082
v -0.0002 -0.2223 1.3094
v 0.0596 0.0244 0.9390
v 0.0709 -0.1642 1.2950
v 0.0240 -0.2528 1.4340
v 0.0002 -0.1766 1.2747
v 0.0242 -0.2615 1.3464
v 0.0435 -0.2583 1.4142
v 0.1128 -0.1177 1.3559
v 0.0485 -0.2655 1.3658
v 0.0000 0.0022 1.4637
v 0.0705 -0.0664 1.2225
v 0.0001 0.0404 1.4191
v 0.1187 -0.0250 1.3009
v 0.0008 -0.0776 1.2024
v 0.1156 0.5304 1.0814
v -0.0004 0.1083 0.7096
v -0.0001 0.0222 0.8393
v 0.0887 0.1184 1.0402
v 0.0266 0.2798 0.4725
v 0.1770 0.3209 1.0623
v 0.1540 0.2259 0.6847
v 0.0261 0.2295 0.5612
v 0.0000 0.6254 1.1460
v 0.1590 0.1048 1.0123
v 0.0832 0.1486 1.0637
v -0.0002 0.0539 0.7797
v 0.2850 0.6732 1.1483
v 0.0007 0.3264 1.2532
v 0.0009 0.0160 0.9166
v 0.0932 0.1090 1.1448
v 0.1128 0.2176 1.1856
v 0.0017 0.1734 1.3355
v 0.1127 0.0937 1.2424
v 0.0019 -0.0026 1.1581
v 0.0030 0.0596 1.1262
v 0.0557 0.1074 1.3568
v 0.1037 0.0118 1.2216
v 0.0378 -0.0215 1.1812
v 0.2706 0.3788 0.9516
v 0.0610 0.1141 1.1131
v 0.0933 0.0827 1.3132
v 0.0564 0.4100 1.2066
v 0.1200 0.2219 1.1335
v 0.1027 0.3602 1.1740
v 0.0775 0.0200 1.1782
v 0.0538 0.5754 1.1281
v 0.2704 0.2051 0.9020
v 0.1005 0.1946 1.2490
v 0.1111 0.0993 1.1859
v 0.0463 0.0328 1.1471
v 0.0567 0.2291 1.2774
v 0.1680 0.2915 0.6931
v 0.1949 0.4642 1.0371
v 0.2221 0.2631 1.0279
v 0.0705 0.0526 0.7789
v 0.2276 0.1905 1.0155
v 0.1175 0.1987 1.0918
v 0.0018 0.0346 0.9664
v 0.1030 0.2656 0.6057
v 0.0027 0.0765 1.0148
v -0.0005 0.1792 0.6149
v 0.2361 0.3225 0.8241
v 0.2369 0.4836 1.0288
v 0.0375 0.0343 0.8096
v 0.2668 0.2277 0.9820
v 0.1813 0.0372 0.8609
v 0.1001 0.0179 0.9056
v 0.1526 0.0535 0.7939
v 0.0644 0.1113 0.7132
v 0.1437 0.2930 0.6024
v 0.2299 0.0940 0.8797
v 0.1677 0.1198 0.7501
v 0.1274 0.0453 0.9587
v 0.1412 0.0138 0.8373
v 0.1386 0.0148 0.8294
v 0.0557 0.1928 0.6303
v 0.0767 0.0565 0.9908
v 0.1496 0.0157 0.8473
v 0.1081 0.0079 0.8598
v 0.1043 0.0335 0.8009
v 0.1111 0.0071 0.8440
v 0.1383 0.0235 0.8179
v 0.1247 0.0077 0.8500
v 0.1270 0.0161 0.8232
v 0.1357 0.0088 0.8471
v 0.1169 0.0133 0.8243
v 0.0000 0.5131 1.1644
v 0.0711 0.0188 0.8348
v 0.1084 0.0096 0.8346
v 0.1277 0.0135 0.8757
v 0.0754 0.0131 0.8562
v 0.1416 0.3674 1.1071
v 0.0294 0.1446 0.6680
v 0.1633 0.0299 0.8368
v 0.0928 0.1550 0.6832
v 0.1577 0.0322 0.8206
v 0.1507 0.0171 0.8669
v 0.1287 0.1623 0.6943
v 0.0033 0.1214 1.0880
v 0.2012 0.0877 0.9727
v 0.1260 0.0359 0.8014
v 0.2616 0.2958 0.9960
v 0.2432 0.1124 0.9436
v 0.0978 0.0178 0.8217
v 0.0779 0.2430 0.6136
v 0.0470 0.0127 0.8873
v 0.2111 0.1711 0.7591
v 0.2455 0.1644 0.8237
v 0.0655 0.6120 1.1355
v 0.1304 0.5530 1.0772
v 0.2230 0.3562 1.0351
v 0.0846 0.0844 1.0159
v 0.0274 0.1832 0.6179
v 0.1981 0.2387 0.7276
v 0.0375 0.0216 0.8371
v 0.2613 0.1664 0.9645
v 0.0844 0.2031 0.6468
v 0.1117 0.0201 0.8151
v 0.1676 0.0276 0.8821
v 0.1015 0.0526 0.7780
v 0.1722 0.0497 0.8124
v 0.1196 0.0096 0.8328
v 0.1470 0.0210 0.8261
v 0.1410 0.0113 0.8554
v 0.0977 0.0084 0.8490
v 0.1285 0.0546 0.7826
v 0.1162 0.2160 0.6565
v 0.1813 0.0457 0.8363
v 0.0405 0.0142 0.8630
v 0.1221 0.0081 0.8415
v 0.1259 0.0234 0.8143
v 0.2202 0.1322 0.9977
v 0.1256 0.0096 0.8602
v 0.1294 0.0125 0.8311
v 0.1324 0.0099 0.8392
v 0.1381 0.0234 0.8959
v 0.2506 0.3800 1.0024
v 0.1677 0.5863 1.0971
v 0.0356 0.0537 0.7792
v 0.0939 0.0130 0.8352
v 0.2476 0.2397 0.8143
v 0.0528 0.0160 0.9133
v 0.1509 0.0191 0.8369
v 0.1406 0.2769 1.0989
v 0.0527 0.5064 1.1589
v 0.0700 0.1433 1.0898
v 0.1124 0.4641 1.1218
v 0.0962 0.2709 1.2129
v 0.0569 0.3116 1.2408
v 0.0526 0.0737 1.1316
v 0.1118 0.1610 1.1628
v 0.1055 0.0514 1.2047
v 0.0994 0.1339 1.2846
v 0.0572 0.1632 1.3204
v 0.0407 0.0051 1.1645
v 0.0601 -0.0054 1.4466
v 0.0371 -0.1735 1.2793
v 0.1013 -0.1474 1.3180
v 0.1032 -0.0681 1.4009
v 0.0806 -0.1842 1.4241
v 0.0439 -0.1725 1.4662
v 0.0328 -0.2218 1.3121
v 0.0815 -0.2115 1.3456
v 0.2163 0.0724 0.9209
v 0.0980 0.1134 0.7187
v 0.2019 0.1171 0.7838
v 0.1330 0.1166 0.7289
v 0.2267 0.1087 0.8310
v 0.1784 0.0563 0.9456
v 0.0318 0.1093 0.7102
v 0.0681 0.0369 0.9653
v 0.0163 -0.2656 1.4202
v -0.0224 -0.2709 1.4082
v 0.0506 0.0332 1.3935
v 0.0364 -0.0746 1.2076
v 0.0979 -0.0473 1.2560
v 0.0906 0.0099 1.3521
v 0.0000 -0.2170 1.4591
v 0.0554 -0.2489 1.3339
v 0.0746 -0.2374 1.3852
v -0.0001 -0.2454 1.3264
v 0.0617 -0.2264 1.4231
v 0.0329 -0.2182 1.4531
v 0.0289 -0.2469 1.3279
v 0.0711 -0.2461 1.3545
v 0.0705 -0.1428 1.2829
v 0.0004 -0.1557 1.2613
v 0.1133 -0.0937 1.3495
v 0.0000 0.0186 1.4545
v 0.0569 0.0069 1.4375
v 0.0368 -0.1523 1.2671
v 0.0969 -0.1243 1.3110
v 0.1067 -0.0274 1.4026
v 0.0707 -0.0399 1.2093
v 0.0002 0.0695 1.4057
v 0.1168 0.0078 1.2866
v 0.0011 -0.0537 1.1888
v 0.0520 0.0627 1.3775
v 0.0366 -0.0488 1.1954
v 0.0983 -0.0185 1.2415
v 0.0912 0.0409 1.3355
v 0.0696 -0.1063 1.2545
v 0.0000 0.0232 1.4294
v 0.1135 -0.0645 1.3258
v 0.0006 -0.1192 1.2299
v 0.0535 0.0133 1.4168
v 0.0369 -0.1160 1.2360
v 0.0964 -0.0899 1.2851
v 0.0940 -0.0227 1.3769
v 0.0703 -0.0882 1.2372
v 0.0000 0.0307 1.4256
v 0.1169 -0.0445 1.3116
v 0.0006 -0.0995 1.2157
v 0.0506 0.0181 1.4038
v 0.0366 -0.0967 1.2209
v 0.0976 -0.0702 1.2692
v 0.0896 -0.0108 1.3624
v 0.0000 0.7371 1.1988
v 0.1662 0.7134 1.1835
v 0.0000 0.2939 0.1232
v 0.0180 0.3014 0.1175
v 0.2352 0.3524 0.7963
v 0.0515 0.2782 0.1100
v 0.0761 0.2716 0.3698
v 0.0278 0.2842 0.3170
v -0.0000 0.2796 0.3111
v 0.0000 0.6622 1.1634
v 0.1025 0.6494 1.1589
v -0.0163 -0.2656 1.4202
v 0.0241 -0.2710 1.3892
v -0.0000 -0.2704 1.3875
v -0.0241 -0.2707 1.3891
v 0.0000 0.8837 1.2690
v -0.3826 0.8829 1.2542
v -0.5777 0.9478 1.2633
v -0.5688 0.7308 1.1867
v -0.5032 0.4941 1.0854
v -0.5433 0.3198 1.0558
v -0.1993 0.8714 1.2775
v -0.3227 0.3219 0.8318
v -0.1964 0.2424 0.5840
v -0.0856 0.1872 0.1161
v -0.5893 0.1617 1.0392
v -0.3702 0.2163 0.8276
v -0.2393 0.1427 0.5740
v -0.6352 -0.0005 1.0325
v -0.4003 0.0742 0.8137
v -0.2704 0.0062 0.5650
v -0.4164 -0.0847 0.8106
v -0.2921 -0.1527 0.5590
v -0.1225 0.2015 0.3462
v -0.1552 0.0965 0.3305
v -0.1730 -0.0428 0.3170
v -0.2038 -0.2034 0.3086
v 0.3826 0.8829 1.2542
v 0.5777 0.9478 1.2633
v 0.5688 0.7308 1.1867
v 0.5032 0.4941 1.0854
v 0.5433 0.3198 1.0558
v 0.1993 0.8714 1.2775
v 0.3227 0.3219 0.8318
v 0.1960 0.2430 0.5834
v 0.0856 0.1872 0.1161
v 0.5893 0.1617 1.0392
v 0.3702 0.2164 0.8275
v 0.2392 0.1429 0.5737
v 0.6352 -0.0005 1.0325
v 0.4003 0.0742 0.8137
v 0.2703 0.0062 0.5649
v 0.4164 -0.0847 0.8106
v 0.2920 -0.1527 0.5590
v 0.1219 0.2020 0.3446
v 0.1550 0.0966 0.3301
v 0.1730 -0.0428 0.3170
v 0.2038 -0.2034 0.3086
vt 0.3780 0.3992
vt 0.3757 0.3942
vt 0.3783 0.3926
vt 0.3795 0.3985
vt 0.3769 0.4001
vt 0.3741 0.3995
vt 0.3762 0.4370
vt 0.3768 0.4348
vt 0.3805 0.4357
vt 0.3805 0.4378
vt 0.3719 0.4333
vt 0.3703 0.4285
vt 0.3711 0.4285
vt 0.3729 0.4324
vt 0.3718 0.4254
vt 0.3726 0.4259
vt 0.3777 0.4152
vt 0.3792 0.4148
vt 0.3779 0.4194
vt 0.3747 0.4209
vt 0.3459 0.2272
vt 0.3566 0.2324
vt 0.3558 0.2342
vt 0.3456 0.2289
vt 0.3807 0.4009
vt 0.3795 0.3985
vt 0.3811 0.3978
vt 0.3809 0.4008
vt 0.3558 0.1993
vt 0.3550 0.1953
vt 0.3675 0.1958
vt 0.3657 0.2002
vt 0.3487 0.2147
vt 0.3495 0.2123
vt 0.3600 0.2144
vt 0.3588 0.2183
vt 0.3525 0.1876
vt 0.3522 0.1833
vt 0.3665 0.1803
vt 0.3675 0.1844
vt 0.3896 0.3305
vt 0.3934 0.3336
vt 0.3906 0.3365
vt 0.3886 0.3359
vt 0.3779 0.2231
vt 0.3787 0.2181
vt 0.3851 0.2186
vt 0.3837 0.2238
vt 0.3844 0.1827
vt 0.3854 0.1775
vt 0.3922 0.1771
vt 0.3900 0.1830
vt 0.3811 0.2021
vt 0.3822 0.1960
vt 0.3871 0.1960
vt 0.3867 0.2023
vt 0.3890 0.3391
vt 0.3916 0.3389
vt 0.3726 0.3371
vt 0.3770 0.3317
vt 0.3819 0.3362
vt 0.3799 0.3392
vt 0.3808 0.3556
vt 0.3763 0.3525
vt 0.3794 0.3483
vt 0.3823 0.3498
vt 0.3953 0.3458
vt 0.3934 0.3505
vt 0.3914 0.3477
vt 0.3921 0.3448
vt 0.3850 0.2334
vt 0.3837 0.2238
vt 0.3905 0.2244
vt 0.3907 0.2339
vt 0.3617 0.2098
vt 0.3657 0.2002
vt 0.3713 0.2011
vt 0.3684 0.2109
vt 0.3517 0.2085
vt 0.3893 0.2457
vt 0.3876 0.2470
vt 0.3820 0.2448
vt 0.3843 0.2422
vt 0.3741 0.3995
vt 0.3734 0.4036
vt 0.3713 0.4045
vt 0.3703 0.3982
vt 0.3711 0.4201
vt 0.3728 0.4206
vt 0.3718 0.4254
vt 0.3695 0.4234
vt 0.3575 0.2262
vt 0.3468 0.2217
vt 0.3876 0.1916
vt 0.3828 0.1913
vt 0.3676 0.1898
vt 0.3675 0.1844
vt 0.3736 0.1833
vt 0.3735 0.1897
vt 0.3916 0.3389
vt 0.3953 0.3379
vt 0.3852 0.1751
vt 0.3910 0.1743
vt 0.3823 0.3498
vt 0.3823 0.3464
vt 0.3891 0.3462
vt 0.3888 0.3494
vt 0.3774 0.2406
vt 0.3789 0.2381
vt 0.3871 0.2392
vt 0.3843 0.2422
vt 0.3785 0.3453
vt 0.3723 0.3477
vt 0.3957 0.2528
vt 0.3948 0.2538
vt 0.3861 0.2123
vt 0.3795 0.2121
vt 0.3634 0.3189
vt 0.3584 0.3184
vt 0.3596 0.3092
vt 0.3648 0.3096
vt 0.3096 0.2868
vt 0.3066 0.2819
vt 0.3106 0.2794
vt 0.3135 0.2837
vt 0.3532 0.3173
vt 0.3487 0.3166
vt 0.3494 0.3077
vt 0.3541 0.3084
vt 0.3766 0.3204
vt 0.3683 0.3195
vt 0.3695 0.3100
vt 0.3770 0.3110
vt 0.3771 0.3030
vt 0.3700 0.3023
vt 0.3701 0.2956
vt 0.3771 0.2958
vt 0.3774 0.2887
vt 0.3776 0.2822
vt 0.3839 0.2816
vt 0.3838 0.2884
vt 0.3549 0.3011
vt 0.3500 0.3006
vt 0.3503 0.2943
vt 0.3551 0.2946
vt 0.3653 0.3020
vt 0.3602 0.3018
vt 0.3603 0.2951
vt 0.3655 0.2954
vt 0.3654 0.2890
vt 0.3602 0.2887
vt 0.3600 0.2820
vt 0.3652 0.2825
vt 0.3703 0.2890
vt 0.3702 0.2827
vt 0.3839 0.3212
vt 0.3838 0.3118
vt 0.3551 0.2883
vt 0.3503 0.2881
vt 0.3503 0.2816
vt 0.3549 0.2816
vt 0.3773 0.2776
vt 0.3839 0.2771
vt 0.2986 0.2637
vt 0.2982 0.2584
vt 0.3023 0.2586
vt 0.3019 0.2631
vt 0.2993 0.2730
vt 0.2984 0.2679
vt 0.3019 0.2675
vt 0.3027 0.2719
vt 0.3025 0.2845
vt 0.3000 0.2779
vt 0.3039 0.2760
vt 0.3066 0.2819
vt 0.3146 0.2770
vt 0.3121 0.2725
vt 0.3165 0.2712
vt 0.3177 0.2740
vt 0.3833 0.2655
vt 0.3784 0.2654
vt 0.3784 0.2644
vt 0.3833 0.2645
vt 0.3103 0.2632
vt 0.3108 0.2602
vt 0.3150 0.2611
vt 0.3144 0.2636
vt 0.3109 0.2694
vt 0.3102 0.2663
vt 0.3139 0.2658
vt 0.3153 0.2683
vt 0.3661 0.2206
vt 0.3671 0.2162
vt 0.3733 0.2177
vt 0.3724 0.2223
vt 0.3736 0.1833
vt 0.3730 0.1790
vt 0.3786 0.1781
vt 0.3787 0.1827
vt 0.3713 0.2011
vt 0.3729 0.1959
vt 0.3774 0.1958
vt 0.3760 0.2018
vt 0.3709 0.2313
vt 0.3645 0.2289
vt 0.3779 0.2231
vt 0.3782 0.2327
vt 0.3729 0.1767
vt 0.3786 0.1758
vt 0.3635 0.2357
vt 0.3641 0.2335
vt 0.3707 0.2365
vt 0.3702 0.2386
vt 0.3331 0.2831
vt 0.3306 0.2824
vt 0.3321 0.2775
vt 0.3351 0.2788
vt 0.3544 0.2686
vt 0.3500 0.2687
vt 0.3500 0.2678
vt 0.3546 0.2664
vt 0.3637 0.2688
vt 0.3589 0.2682
vt 0.3588 0.2655
vt 0.3638 0.2651
vt 0.3768 0.2699
vt 0.3690 0.2692
vt 0.3688 0.2652
vt 0.3784 0.2654
vt 0.3837 0.2960
vt 0.3836 0.3036
vt 0.3810 0.3917
vt 0.3783 0.3926
vt 0.3771 0.3882
vt 0.3810 0.3887
vt 0.3728 0.3882
vt 0.3782 0.1898
vt 0.3747 0.4209
vt 0.3678 0.4291
vt 0.3806 0.4138
vt 0.3807 0.4168
vt 0.3805 0.4400
vt 0.3805 0.4445
vt 0.3707 0.4436
vt 0.3742 0.4397
vt 0.3841 0.3357
vt 0.3811 0.3293
vt 0.3766 0.4030
vt 0.3755 0.4063
vt 0.3794 0.4105
vt 0.3806 0.4106
vt 0.3782 0.4106
vt 0.3462 0.2254
vt 0.3573 0.2303
vt 0.3784 0.4022
vt 0.3662 0.1781
vt 0.3536 0.1812
vt 0.3553 0.1785
vt 0.3662 0.1757
vt 0.3805 0.4013
vt 0.3746 0.4081
vt 0.3833 0.3394
vt 0.3823 0.3464
vt 0.3961 0.1720
vt 0.3972 0.1733
vt 0.3903 0.1720
vt 0.3957 0.1707
vt 0.3700 0.4356
vt 0.3720 0.4160
vt 0.3704 0.4152
vt 0.3714 0.4131
vt 0.3722 0.4131
vt 0.3899 0.3541
vt 0.3534 0.1896
vt 0.3980 0.1790
vt 0.3966 0.1833
vt 0.3890 0.3391
vt 0.3742 0.2119
vt 0.3760 0.2018
vt 0.3753 0.4157
vt 0.3760 0.4116
vt 0.3946 0.1958
vt 0.3945 0.2023
vt 0.3694 0.4121
vt 0.3716 0.4118
vt 0.3920 0.2189
vt 0.3917 0.2441
vt 0.3871 0.2392
vt 0.3923 0.2385
vt 0.3952 0.2426
vt 0.3931 0.2127
vt 0.3172 0.2808
vt 0.3203 0.2769
vt 0.3711 0.4201
vt 0.3695 0.4198
vt 0.3972 0.2517
vt 0.4005 0.2490
vt 0.3950 0.1913
vt 0.3782 0.2327
vt 0.3707 0.2365
vt 0.3676 0.4211
vt 0.3632 0.4296
vt 0.3679 0.4122
vt 0.3694 0.4121
vt 0.3635 0.4418
vt 0.3786 0.1735
vt 0.3849 0.1728
vt 0.4005 0.1755
vt 0.3759 0.2426
vt 0.3696 0.2404
vt 0.3702 0.2386
vt 0.3671 0.3272
vt 0.3628 0.3260
vt 0.3562 0.3271
vt 0.3889 0.3215
vt 0.3889 0.3120
vt 0.3889 0.3292
vt 0.3840 0.3280
vt 0.3525 0.3241
vt 0.3468 0.3247
vt 0.3762 0.3271
vt 0.3889 0.3038
vt 0.3889 0.2961
vt 0.3889 0.2884
vt 0.3889 0.2814
vt 0.3084 0.2942
vt 0.3053 0.2902
vt 0.3096 0.2868
vt 0.3126 0.2901
vt 0.3079 0.2947
vt 0.3046 0.2907
vt 0.3771 0.2733
vt 0.3838 0.2733
vt 0.2977 0.2680
vt 0.2973 0.2637
vt 0.2966 0.2584
vt 0.2992 0.2780
vt 0.2985 0.2731
vt 0.3026 0.2866
vt 0.3080 0.2743
vt 0.3195 0.2833
vt 0.3239 0.2790
vt 0.3162 0.2866
vt 0.3059 0.2631
vt 0.3059 0.2669
vt 0.3064 0.2591
vt 0.3067 0.2707
vt 0.3727 0.1744
vt 0.3628 0.2375
vt 0.3385 0.2806
vt 0.3361 0.2841
vt 0.3344 0.2878
vt 0.3316 0.2866
vt 0.3288 0.2853
vt 0.3394 0.2869
vt 0.3369 0.2892
vt 0.3163 0.2634
vt 0.3191 0.2667
vt 0.3889 0.2694
vt 0.3836 0.2698
vt 0.3833 0.2655
vt 0.3889 0.2656
vt 0.3889 0.2768
vt 0.3889 0.2730
vt 0.3770 0.2720
vt 0.3837 0.2717
vt 0.3596 0.2764
vt 0.3545 0.2757
vt 0.3542 0.2701
vt 0.3589 0.2709
vt 0.3501 0.2758
vt 0.3501 0.2702
vt 0.3697 0.2777
vt 0.3646 0.2771
vt 0.3636 0.2723
vt 0.3689 0.2731
vt 0.3889 0.2648
vt 0.3548 0.2655
vt 0.3587 0.2649
vt 0.3500 0.2664
vt 0.3638 0.2642
vt 0.3689 0.2645
vt 0.3543 0.2696
vt 0.3500 0.2695
vt 0.3636 0.2716
vt 0.3588 0.2701
vt 0.3770 0.2720
vt 0.3691 0.2723
vt 0.3889 0.2713
vt 0.3837 0.2717
vt 0.3977 0.4298
vt 0.3931 0.4292
vt 0.3915 0.4234
vt 0.3934 0.4212
vt 0.3764 0.3811
vt 0.3811 0.3813
vt 0.3726 0.3804
vt 0.3259 0.2826
vt 0.3288 0.2853
vt 0.3257 0.2883
vt 0.3220 0.2857
vt 0.3191 0.2667
vt 0.3226 0.2643
vt 0.3243 0.2678
vt 0.3200 0.2697
vt 0.3255 0.2709
vt 0.3207 0.2722
vt 0.3838 0.3992
vt 0.3824 0.3985
vt 0.3834 0.3926
vt 0.3859 0.3942
vt 0.3848 0.4000
vt 0.3875 0.3994
vt 0.3847 0.4370
vt 0.3841 0.4348
vt 0.3890 0.4334
vt 0.3880 0.4325
vt 0.3898 0.4286
vt 0.3906 0.4286
vt 0.3891 0.4254
vt 0.3883 0.4259
vt 0.3835 0.4151
vt 0.3864 0.4208
vt 0.3833 0.4193
vt 0.3821 0.4148
vt 0.2830 0.2431
vt 0.2813 0.2434
vt 0.2760 0.2333
vt 0.2778 0.2324
vt 0.3812 0.4009
vt 0.3824 0.3985
vt 0.3108 0.2332
vt 0.3099 0.2233
vt 0.3143 0.2215
vt 0.3148 0.2340
vt 0.2955 0.2403
vt 0.2918 0.2303
vt 0.2957 0.2290
vt 0.2978 0.2396
vt 0.3225 0.2365
vt 0.3258 0.2216
vt 0.3299 0.2225
vt 0.3269 0.2368
vt 0.3485 0.3346
vt 0.3521 0.3388
vt 0.3507 0.3404
vt 0.3468 0.3393
vt 0.2870 0.2111
vt 0.2863 0.2053
vt 0.2915 0.2039
vt 0.2920 0.2103
vt 0.3274 0.2046
vt 0.3271 0.1990
vt 0.3331 0.1968
vt 0.3326 0.2037
vt 0.3081 0.2080
vt 0.3079 0.2023
vt 0.3141 0.2019
vt 0.3142 0.2068
vt 0.3534 0.3418
vt 0.3510 0.3429
vt 0.3665 0.3317
vt 0.3613 0.3373
vt 0.3580 0.3357
vt 0.3600 0.3293
vt 0.3689 0.3518
vt 0.3645 0.3476
vt 0.3663 0.3448
vt 0.3711 0.3468
vt 0.3513 0.3508
vt 0.3536 0.3483
vt 0.3557 0.3504
vt 0.3554 0.3539
vt 0.2767 0.2041
vt 0.2763 0.1983
vt 0.2857 0.1986
vt 0.2863 0.2053
vt 0.3004 0.2274
vt 0.2993 0.2207
vt 0.3090 0.2177
vt 0.3099 0.2233
vt 0.3016 0.2373
vt 0.2644 0.1997
vt 0.2679 0.2047
vt 0.2654 0.2070
vt 0.2631 0.2014
vt 0.3875 0.3994
vt 0.3910 0.3982
vt 0.3900 0.4044
vt 0.3880 0.4034
vt 0.3899 0.4201
vt 0.3915 0.4234
vt 0.3891 0.4254
vt 0.3882 0.4206
vt 0.2885 0.2422
vt 0.2839 0.2315
vt 0.3188 0.2063
vt 0.3186 0.2014
vt 0.3203 0.2215
vt 0.3205 0.2155
vt 0.3268 0.2154
vt 0.3258 0.2216
vt 0.3473 0.3440
vt 0.3510 0.3429
vt 0.3350 0.2039
vt 0.3358 0.1980
vt 0.3645 0.3476
vt 0.3588 0.3505
vt 0.3569 0.3479
vt 0.3629 0.3446
vt 0.2696 0.2116
vt 0.2679 0.2047
vt 0.2709 0.2020
vt 0.2720 0.2101
vt 0.3722 0.3407
vt 0.3656 0.3418
vt 0.2563 0.1942
vt 0.2574 0.1933
vt 0.2981 0.2095
vt 0.2978 0.2030
vt 0.4144 0.3189
vt 0.4130 0.3096
vt 0.4182 0.3092
vt 0.4194 0.3184
vt 0.3158 0.2931
vt 0.3190 0.2893
vt 0.3232 0.2923
vt 0.3207 0.2962
vt 0.4246 0.3173
vt 0.4236 0.3083
vt 0.4283 0.3077
vt 0.4291 0.3166
vt 0.4012 0.3204
vt 0.4007 0.3110
vt 0.4082 0.3100
vt 0.4095 0.3195
vt 0.4007 0.3030
vt 0.4006 0.2958
vt 0.4077 0.2956
vt 0.4078 0.3023
vt 0.3938 0.2816
vt 0.4002 0.2822
vt 0.4003 0.2887
vt 0.3940 0.2884
vt 0.4229 0.3011
vt 0.4227 0.2946
vt 0.4275 0.2943
vt 0.4278 0.3005
vt 0.4124 0.3020
vt 0.4123 0.2954
vt 0.4175 0.2951
vt 0.4176 0.3018
vt 0.4123 0.2890
vt 0.4126 0.2825
vt 0.4178 0.2820
vt 0.4175 0.2887
vt 0.4076 0.2827
vt 0.4075 0.2890
vt 0.3939 0.3118
vt 0.3939 0.3212
vt 0.4227 0.2883
vt 0.4228 0.2816
vt 0.4275 0.2816
vt 0.4274 0.2881
vt 0.3939 0.2771
vt 0.4004 0.2776
vt 0.3387 0.3046
vt 0.3393 0.3013
vt 0.3439 0.3010
vt 0.3440 0.3051
vt 0.3294 0.3037
vt 0.3306 0.3003
vt 0.3350 0.3012
vt 0.3345 0.3047
vt 0.3180 0.3003
vt 0.3207 0.2962
vt 0.3265 0.2990
vt 0.3245 0.3029
vt 0.3302 0.2909
vt 0.3944 0.2645
vt 0.4014 0.2644
vt 0.4014 0.2653
vt 0.3944 0.2655
vt 0.3394 0.2929
vt 0.3391 0.2888
vt 0.3416 0.2882
vt 0.3425 0.2925
vt 0.3332 0.2921
vt 0.3363 0.2929
vt 0.2896 0.2229
vt 0.2878 0.2167
vt 0.2924 0.2158
vt 0.2939 0.2220
vt 0.3268 0.2154
vt 0.3275 0.2104
vt 0.3320 0.2104
vt 0.3311 0.2160
vt 0.3090 0.2177
vt 0.3083 0.2130
vt 0.3143 0.2116
vt 0.3142 0.2161
vt 0.2812 0.2245
vt 0.2789 0.2181
vt 0.2775 0.2108
vt 0.2870 0.2111
vt 0.3334 0.2162
vt 0.3344 0.2104
vt 0.2744 0.2255
vt 0.2716 0.2188
vt 0.2737 0.2183
vt 0.2766 0.2249
vt 0.3195 0.2606
vt 0.4234 0.2686
vt 0.4232 0.2664
vt 0.4278 0.2678
vt 0.4278 0.2687
vt 0.4140 0.2688
vt 0.4140 0.2651
vt 0.4190 0.2655
vt 0.4189 0.2682
vt 0.4010 0.2699
vt 0.4014 0.2653
vt 0.4089 0.2652
vt 0.4087 0.2692
vt 0.3942 0.3036
vt 0.3941 0.2960
vt 0.3847 0.3883
vt 0.3834 0.3926
vt 0.3887 0.3884
vt 0.3203 0.2108
vt 0.3864 0.4208
vt 0.3867 0.4397
vt 0.3902 0.4436
vt 0.3552 0.3293
vt 0.3558 0.3364
vt 0.3860 0.4060
vt 0.3850 0.4028
vt 0.3818 0.4105
vt 0.3830 0.4106
vt 0.2847 0.2428
vt 0.2799 0.2317
vt 0.3932 0.4121
vt 0.3917 0.4120
vt 0.3834 0.4021
vt 0.3321 0.2228
vt 0.3344 0.2228
vt 0.3316 0.2337
vt 0.3289 0.2354
vt 0.3814 0.4013
vt 0.3867 0.4078
vt 0.3629 0.3446
vt 0.3585 0.3392
vt 0.3369 0.1918
vt 0.3381 0.1929
vt 0.3381 0.1987
vt 0.3394 0.1934
vt 0.3909 0.4356
vt 0.3891 0.4160
vt 0.3888 0.4131
vt 0.3896 0.4130
vt 0.3907 0.4151
vt 0.3602 0.3552
vt 0.3205 0.2356
vt 0.3268 0.1924
vt 0.3312 0.1910
vt 0.3534 0.3418
vt 0.2983 0.2148
vt 0.3083 0.2130
vt 0.3858 0.4157
vt 0.3852 0.4116
vt 0.3078 0.1945
vt 0.3144 0.1944
vt 0.3917 0.4120
vt 0.3895 0.4116
vt 0.2912 0.1970
vt 0.2660 0.1973
vt 0.2675 0.1938
vt 0.2716 0.1967
vt 0.2709 0.2020
vt 0.2974 0.1959
vt 0.3915 0.4198
vt 0.3899 0.4201
vt 0.2585 0.1918
vt 0.2611 0.1886
vt 0.3188 0.1940
vt 0.2775 0.2108
vt 0.2737 0.2183
vt 0.3972 0.4416
vt 0.3366 0.2104
vt 0.3373 0.2041
vt 0.3347 0.1886
vt 0.2675 0.2131
vt 0.2697 0.2195
vt 0.2716 0.2188
vt 0.4106 0.3272
vt 0.4149 0.3260
vt 0.4215 0.3271
vt 0.3938 0.3280
vt 0.3867 0.4397
vt 0.4252 0.3241
vt 0.4309 0.3247
vt 0.4016 0.3271
vt 0.3158 0.2931
vt 0.3123 0.2974
vt 0.3118 0.2981
vt 0.3940 0.2733
vt 0.4007 0.2733
vt 0.3344 0.3054
vt 0.3387 0.3059
vt 0.3440 0.3067
vt 0.3244 0.3037
vt 0.3293 0.3045
vt 0.3177 0.3011
vt 0.3283 0.2950
vt 0.3357 0.2972
vt 0.3395 0.2973
vt 0.3435 0.2969
vt 0.3319 0.2963
vt 0.3358 0.2163
vt 0.2726 0.2262
vt 0.3288 0.2777
vt 0.3286 0.2812
vt 0.3253 0.2741
vt 0.3218 0.2743
vt 0.3944 0.2655
vt 0.3942 0.2698
vt 0.3941 0.2717
vt 0.4008 0.2720
vt 0.4182 0.2764
vt 0.4188 0.2709
vt 0.4235 0.2701
vt 0.4232 0.2757
vt 0.4277 0.2702
vt 0.4277 0.2758
vt 0.4080 0.2777
vt 0.4089 0.2731
vt 0.4141 0.2723
vt 0.4132 0.2771
vt 0.4191 0.2649
vt 0.4230 0.2655
vt 0.4278 0.2664
vt 0.4089 0.2645
vt 0.4140 0.2642
vt 0.4235 0.2696
vt 0.4277 0.2695
vt 0.4141 0.2716
vt 0.4190 0.2701
vt 0.4008 0.2720
vt 0.4087 0.2723
vt 0.3941 0.2717
vt 0.3855 0.3811
vt 0.3894 0.3808
vt 0.3422 0.2838
vt 0.3617 0.3827
vt 0.3663 0.3882
vt 0.3653 0.3977
vt 0.3589 0.3931
vt 0.3621 0.4143
vt 0.3541 0.4084
vt 0.3525 0.3884
vt 0.3471 0.4028
vt 0.3564 0.3785
vt 0.3461 0.3831
vt 0.3399 0.3960
vt 0.3510 0.3734
vt 0.3372 0.4187
vt 0.3300 0.4095
vt 0.3440 0.4253
vt 0.3516 0.4347
vt 0.3993 0.3834
vt 0.4022 0.3931
vt 0.3958 0.3977
vt 0.3948 0.3887
vt 0.4070 0.4084
vt 0.3989 0.4143
vt 0.4085 0.3884
vt 0.4140 0.4028
vt 0.4046 0.3785
vt 0.4150 0.3831
vt 0.4212 0.3960
vt 0.4101 0.3734
vt 0.4239 0.4187
vt 0.4311 0.4095
vt 0.4170 0.4253
vt 0.4090 0.4355
vt 0.4017 0.4540
vt 0.3915 0.4529
vt 0.3695 0.4528
vt 0.3805 0.4523
vt 0.3465 0.4467
vt 0.3516 0.4347
vt 0.3663 0.3882
vt 0.3692 0.3784
vt 0.4090 0.4355
vt 0.4135 0.4463
vt 0.3958 0.3978
vt 0.3449 0.4607
vt 0.3592 0.4551
vt 0.3921 0.3797
vt 0.3948 0.3887
vt 0.4150 0.4588
f 8/1 5/2 67/3 70/4
f 141/5 99/6 5/2 8/1
f 145/7 87/8 255/9 355/10
f 146/11 94/12 3/13 65/14
f 147/15 68/16 3/13 94/12
f 4/17 66/18 72/19 9/20
f 148/21 115/22 277/23 392/24
f 149/25 70/26 259/27 393/28
f 150/29 69/30 12/31 143/32
f 152/33 88/34 10/35 139/36
f 153/37 114/38 13/39 132/40
f 154/41 140/42 21/43 124/44
f 155/45 104/46 14/47 134/48
f 156/49 96/50 17/51 118/52
f 157/53 106/54 16/55 133/56
f 158/57 124/44 21/43 126/58
f 159/59 120/60 20/61 113/62
f 160/63 116/64 18/65 123/66
f 161/67 117/68 19/69 119/70
f 127/71 134/72 160/73 169/74
f 144/75 143/76 202/77 204/78
f 150/29 143/32 144/75 177/79
f 165/80 324/81 278/82 142/83
f 99/84 6/85 93/86 108/87
f 138/88 95/89 147/90 173/91
f 152/33 139/36 136/92 168/93
f 156/49 118/52 137/94 162/95
f 135/96 132/97 201/98 203/99
f 161/67 119/70 126/100 176/101
f 175/102 102/103 17/51 96/50
f 123/104 171/105 166/106 121/107
f 178/108 105/109 15/110 142/111
f 159/59 113/62 112/112 179/113
f 324/81 165/80 151/114 349/115
f 157/53 133/56 131/116 164/117
f 180/118 98/119 23/120 84/121
f 49/122 44/123 196/124 197/125
f 182/126 431/127 283/128 81/129
f 183/130 129/131 22/132 85/133
f 184/134 75/135 24/136 89/137
f 189/138 82/139 77/140 190/141
f 186/142 367/143 287/144 91/145
f 187/146 74/147 25/148 90/149
f 188/150 86/151 27/152 78/153
f 189/138 76/154 26/155 82/139
f 181/156 183/130 85/133 83/157
f 191/158 366/159 291/160 79/161
f 77/140 82/139 231/162 228/163
f 193/164 337/165 295/166 47/167
f 194/168 57/169 29/170 45/171
f 195/172 61/173 28/174 44/175
f 216/176 215/177 30/178 60/179
f 40/180 41/181 225/182 222/183
f 218/184 513/185 299/186 59/187
f 219/188 214/189 31/190 62/191
f 200/192 109/193 32/194 55/195
f 201/196 107/197 34/198 46/199
f 202/200 110/201 35/202 48/203
f 200/192 55/195 51/204 205/205
f 51/204 55/195 155/206 172/207
f 206/208 42/209 34/198 107/197
f 207/210 111/211 33/212 56/213
f 562/214 332/215 307/216 563/217
f 145/7 146/11 65/14 87/8
f 235/218 537/219 309/220 38/221
f 236/222 232/223 36/224 39/225
f 237/226 233/227 37/228 41/229
f 184/134 89/137 92/230 185/231
f 254/232 67/233 249/234 558/235
f 67/3 5/2 248/236 249/234
f 201/98 46/199 43/237 203/99
f 95/89 9/238 68/16 147/90
f 147/15 94/12 101/239 173/91
f 66/18 252/240 262/241 72/19
f 559/242 550/243 244/244 250/245
f 154/41 124/44 122/246 167/247
f 6/85 99/84 163/248 69/249
f 66/18 148/250 392/251 252/240
f 4/17 71/252 148/250 66/18
f 71/253 11/254 115/22 148/21
f 70/26 67/3 254/232 259/27
f 99/6 141/5 153/255 163/248
f 130/256 149/257 393/258 279/259
f 13/39 114/38 149/257 130/256
f 114/260 8/1 70/4 149/25
f 93/86 6/85 69/249 150/261
f 112/112 113/62 170/262 171/263
f 102/103 151/264 125/265 17/51
f 280/266 349/267 151/264 102/103
f 94/12 146/11 174/268 101/239
f 103/269 2/270 88/271 152/272
f 160/63 123/66 121/107 169/273
f 141/5 8/1 114/260 153/255
f 153/37 132/40 135/96 163/274
f 118/52 17/51 140/275 154/276
f 43/237 46/199 156/49 162/95
f 55/195 32/194 104/46 155/206
f 158/277 166/106 171/105 170/262
f 158/57 126/58 119/70 166/106
f 54/278 48/279 157/53 164/117
f 46/199 34/198 96/50 156/49
f 202/200 48/203 54/278 204/78
f 48/279 35/202 106/54 157/53
f 97/280 103/269 152/272 168/281
f 133/56 16/55 120/282 159/283
f 100/284 93/86 150/261 177/285
f 134/72 14/47 116/286 160/73
f 128/287 15/288 117/289 161/290
f 131/116 133/56 159/283 179/291
f 217/292 216/176 60/179 58/293
f 2/270 103/269 138/294 7/295
f 125/296 128/287 161/290 176/297
f 106/54 162/95 137/94 16/55
f 35/202 43/237 162/95 106/54
f 69/30 163/274 135/96 12/31
f 104/46 164/117 131/116 14/47
f 32/194 54/278 164/117 104/46
f 128/287 165/80 142/83 15/288
f 121/107 166/106 119/70 19/69
f 122/246 124/44 158/57 170/262
f 120/60 167/247 122/246 20/61
f 16/55 137/94 167/298 120/282
f 71/253 168/93 136/92 11/254
f 4/17 97/280 168/281 71/252
f 117/68 169/273 121/107 19/69
f 15/288 127/71 169/74 117/289
f 95/89 138/88 103/269 97/280
f 151/114 165/80 128/287 125/296
f 113/62 20/61 122/246 170/262
f 18/65 112/112 171/263 123/66
f 105/109 172/299 127/71 15/110
f 33/300 51/204 172/207 105/109
f 80/301 173/91 101/239 1/302
f 80/301 1/302 246/303 100/304
f 73/305 1/302 101/239 174/268
f 42/209 175/102 96/50 34/198
f 306/306 358/307 175/102 42/209
f 358/307 280/266 102/103 175/102
f 140/42 176/101 126/100 21/43
f 17/51 125/265 176/308 140/275
f 88/34 177/79 144/75 10/35
f 2/270 100/284 177/285 88/271
f 361/309 178/108 142/111 278/82
f 305/310 56/311 178/108 361/309
f 56/311 33/212 105/109 178/108
f 116/64 179/113 112/112 18/65
f 14/47 131/116 179/291 116/286
f 129/131 180/118 84/121 22/132
f 3/312 68/313 180/118 129/131
f 68/313 9/314 98/119 180/118
f 419/315 181/156 83/157 281/316
f 255/317 87/318 181/156 419/315
f 196/124 216/176 217/292 197/125
f 98/119 182/126 81/129 23/120
f 9/314 72/319 182/126 98/119
f 72/319 262/320 431/127 182/126
f 65/321 3/312 129/131 183/130
f 92/230 89/137 189/138 190/141
f 85/133 22/132 75/135 184/134
f 360/322 185/231 92/230 285/323
f 281/316 83/157 185/231 360/322
f 74/147 186/142 91/145 25/148
f 23/120 81/129 186/142 74/147
f 81/129 283/128 367/143 186/142
f 75/135 187/146 90/149 24/136
f 22/132 84/121 187/146 75/135
f 84/121 23/120 74/147 187/146
f 76/154 188/150 78/153 26/155
f 24/136 90/149 188/150 76/154
f 90/149 25/148 86/151 188/150
f 65/321 183/130 181/156 87/318
f 89/137 24/136 76/154 189/138
f 364/324 190/141 77/140 289/325
f 285/323 92/230 190/141 364/324
f 86/151 191/158 79/161 27/152
f 25/148 91/145 191/158 86/151
f 91/145 287/144 366/159 191/158
f 342/326 192/327 49/328 293/329
f 521/330 222/331 192/327 342/326
f 228/163 231/162 213/332 210/333
f 57/169 193/164 47/167 29/170
f 220/334 223/335 193/164 57/169
f 223/335 519/336 337/165 193/164
f 61/173 194/168 45/171 28/174
f 221/337 224/338 194/168 61/173
f 224/338 220/334 57/169 194/168
f 225/339 221/337 61/173 195/172
f 192/327 195/172 44/175 49/328
f 44/175 28/174 52/340 196/124
f 510/341 217/292 58/293 297/342
f 293/329 49/328 197/125 325/343
f 214/189 218/184 59/187 31/190
f 29/170 47/167 198/344 50/345
f 47/167 295/166 333/346 198/344
f 215/177 219/188 62/191 30/178
f 28/174 45/171 199/347 52/340
f 45/171 29/170 50/345 199/347
f 155/45 134/48 127/71 172/207
f 139/36 10/35 109/193 200/192
f 136/92 139/36 200/192 205/205
f 132/97 13/39 107/197 201/98
f 143/32 12/31 110/201 202/77
f 110/201 203/99 43/237 35/202
f 12/31 135/96 203/99 110/201
f 109/193 204/78 54/278 32/194
f 10/35 144/75 204/78 109/193
f 111/211 205/205 51/204 33/212
f 11/254 136/92 205/205 111/211
f 130/256 206/208 107/197 13/39
f 279/259 348/348 206/208 130/256
f 348/348 306/306 42/209 206/208
f 390/349 207/210 56/213 305/310
f 277/23 115/22 207/210 390/349
f 115/22 11/254 111/211 207/210
f 208/350 53/351 562/214 563/217
f 562/214 53/351 341/352 298/353
f 298/353 339/354 332/215 562/214
f 338/355 300/356 341/352 53/351
f 59/357 209/358 62/191 31/190
f 535/359 234/360 40/361 308/362
f 527/363 228/163 210/333 344/364
f 210/333 213/332 243/365 240/366
f 232/223 235/218 38/221 36/224
f 226/367 229/368 211/369 63/370
f 229/368 529/371 346/372 211/369
f 233/227 236/222 39/225 37/228
f 227/373 230/374 212/375 64/376
f 230/374 226/367 63/370 212/375
f 231/162 227/373 64/376 213/332
f 196/124 52/340 215/177 216/176
f 222/331 225/339 195/172 192/327
f 198/344 333/346 513/185 218/184
f 199/347 50/345 214/189 219/188
f 325/343 197/125 217/292 510/341
f 50/345 198/344 218/184 214/189
f 52/340 199/347 219/188 215/177
f 308/362 40/361 222/183 521/377
f 234/360 237/226 41/229 40/361
f 36/224 38/221 223/378 220/379
f 38/221 309/220 519/380 223/378
f 37/228 39/225 224/381 221/382
f 39/225 36/224 220/379 224/381
f 41/229 37/228 221/382 225/182
f 289/325 77/140 228/163 527/363
f 83/157 85/133 184/134 185/231
f 27/152 79/161 229/368 226/367
f 79/161 291/160 529/371 229/368
f 26/155 78/153 230/374 227/373
f 78/153 27/152 226/367 230/374
f 82/139 26/155 227/373 231/162
f 241/383 545/384 537/219 235/218
f 242/385 238/386 232/223 236/222
f 243/387 239/388 233/227 237/226
f 543/389 240/390 234/360 535/359
f 238/386 241/383 235/218 232/223
f 239/388 242/385 236/222 233/227
f 240/366 243/365 237/226 234/360
f 211/369 346/372 545/384 241/383
f 212/375 63/370 238/386 242/385
f 213/332 64/376 239/388 243/365
f 344/364 210/333 240/366 543/389
f 63/370 211/369 241/383 238/386
f 64/376 212/375 242/385 239/388
f 251/391 395/392 469/393 371/394
f 108/87 248/236 5/2 99/84
f 245/395 552/396 558/235 249/234
f 249/234 248/236 247/397 245/395
f 145/7 355/10 559/242 250/245
f 137/94 118/52 154/276 167/298
f 336/398 339/399 514/400 515/401
f 97/280 4/17 9/20 95/89
f 93/86 100/284 246/303 108/87
f 209/402 208/403 563/404 564/405
f 563/404 307/406 505/407 564/405
f 263/408 354/409 351/410 258/411
f 437/412 263/408 258/411 391/413
f 441/414 355/10 255/9 378/415
f 442/416 347/417 256/418 385/419
f 443/420 385/419 256/418 352/421
f 257/422 264/423 357/424 350/425
f 444/426 392/427 277/428 409/429
f 445/430 393/28 259/27 354/431
f 446/432 439/433 267/434 353/435
f 448/436 435/437 265/438 379/439
f 449/440 427/441 268/442 408/443
f 450/444 418/445 276/446 436/447
f 451/448 429/449 269/450 398/451
f 452/452 412/453 272/454 387/455
f 453/456 428/457 271/458 400/459
f 454/460 421/461 276/446 418/445
f 455/462 407/463 275/464 414/465
f 456/466 417/467 273/468 410/469
f 457/470 413/471 274/472 411/473
f 422/474 465/475 456/476 429/477
f 440/478 500/479 498/480 439/481
f 446/432 473/482 440/478 439/433
f 461/483 438/484 278/485 324/486
f 391/487 402/488 384/489 260/490
f 434/491 469/492 443/493 386/494
f 448/436 464/495 432/496 435/437
f 452/452 458/497 433/498 412/453
f 430/499 499/500 497/501 427/502
f 457/470 472/503 421/504 413/471
f 471/505 387/455 272/454 396/506
f 417/507 415/508 462/509 467/510
f 173/91 80/301 7/295 138/88
f 474/511 438/512 270/513 399/514
f 455/462 475/515 406/516 407/463
f 324/486 349/517 447/518 461/483
f 453/456 460/519 426/520 428/457
f 476/521 375/522 284/523 389/524
f 323/525 493/526 492/527 318/528
f 478/529 372/530 283/531 431/532
f 479/533 376/534 282/535 424/536
f 480/537 380/538 286/539 363/540
f 368/541 373/542 485/543 486/544
f 482/545 382/546 287/547 367/548
f 483/549 381/550 288/551 362/552
f 484/553 369/554 292/555 377/556
f 485/543 373/542 290/557 365/558
f 374/559 376/534 479/533 477/560
f 487/561 370/562 291/563 366/564
f 530/565 533/566 373/542 368/541
f 489/567 321/568 295/569 337/570
f 490/571 319/572 296/573 335/574
f 491/575 318/576 294/577 340/578
f 514/400 339/399 298/353 512/579
f 522/580 525/581 315/582 314/583
f 516/584 338/585 299/586 513/587
f 517/588 341/352 300/356 511/589
f 496/590 331/591 301/592 403/593
f 497/594 320/595 303/596 401/597
f 498/598 322/599 304/600 404/601
f 496/590 501/602 327/603 331/591
f 327/603 468/604 451/605 331/591
f 502/606 401/597 303/596 316/607
f 503/608 334/609 302/610 405/611
f 59/357 299/612 208/403 209/358
f 347/417 442/416 441/414 378/415
f 539/613 312/614 309/615 537/616
f 540/617 313/618 310/619 534/620
f 541/621 315/622 311/623 536/624
f 380/538 480/537 481/625 383/626
f 254/232 558/235 557/627 351/628
f 351/410 557/627 556/629 258/411
f 497/594 499/500 317/630 320/595
f 386/494 443/493 352/421 264/631
f 443/420 469/492 395/392 385/419
f 350/425 357/424 262/241 252/240
f 559/242 560/632 551/633 550/243
f 450/444 463/634 416/635 418/445
f 260/490 353/636 459/637 391/487
f 350/425 252/240 392/251 444/638
f 257/422 350/425 444/638 356/639
f 356/640 444/426 409/429 266/641
f 354/431 259/27 254/232 351/410
f 554/642 251/391 371/394 394/643
f 391/413 459/637 449/644 437/412
f 425/645 279/646 393/647 445/648
f 268/442 425/645 445/648 408/443
f 408/649 445/430 354/431 263/408
f 384/489 446/650 353/636 260/490
f 406/516 467/651 466/652 407/463
f 396/506 272/454 420/653 447/654
f 280/655 396/506 447/654 349/656
f 385/419 395/392 470/657 442/416
f 397/658 448/659 379/660 253/661
f 456/466 465/662 415/508 417/467
f 437/412 449/644 408/649 263/408
f 449/440 459/663 430/499 427/441
f 412/453 450/664 436/665 272/454
f 317/630 458/497 452/452 320/595
f 331/591 451/605 398/451 301/592
f 454/666 466/652 467/651 462/509
f 454/460 462/509 413/471 421/461
f 330/667 460/519 453/456 322/668
f 320/595 452/452 387/455 303/596
f 498/598 500/479 330/667 322/599
f 322/599 453/456 400/459 304/600
f 388/669 464/670 448/659 397/658
f 428/457 455/671 414/672 271/458
f 394/673 473/674 446/650 384/489
f 429/449 456/476 410/675 269/450
f 423/676 457/677 411/678 270/679
f 426/520 475/680 455/671 428/457
f 515/401 514/400 492/527 493/526
f 253/661 261/681 434/682 397/658
f 420/683 472/684 457/677 423/676
f 400/459 271/458 433/498 458/497
f 304/600 400/459 458/497 317/630
f 353/435 267/434 430/499 459/663
f 398/451 269/450 426/520 460/519
f 301/592 398/451 460/519 330/667
f 423/676 270/679 438/512 461/483
f 415/508 274/472 413/471 462/509
f 416/635 466/652 454/666 418/445
f 414/465 275/464 416/635 463/634
f 271/458 414/672 463/685 433/498
f 356/640 266/641 432/496 464/495
f 257/422 356/639 464/670 388/669
f 411/473 274/472 415/508 465/662
f 270/679 411/678 465/475 422/474
f 386/494 388/669 397/658 434/491
f 447/518 420/683 423/676 461/483
f 407/463 466/652 416/635 275/464
f 273/468 417/467 467/510 406/516
f 399/514 270/513 422/474 468/686
f 302/687 399/514 468/686 327/603
f 7/295 80/301 100/304 2/270
f 261/681 371/394 469/393 434/682
f 359/688 470/657 395/392 251/391
f 316/607 303/596 387/455 471/505
f 306/689 316/607 471/505 358/690
f 358/690 471/505 396/506 280/655
f 436/447 276/446 421/461 472/503
f 272/454 436/665 472/691 420/653
f 379/439 265/438 440/478 473/482
f 253/661 379/660 473/674 394/673
f 361/692 278/485 438/484 474/511
f 305/693 361/692 474/511 334/694
f 334/694 474/511 399/514 302/610
f 410/469 273/468 406/516 475/515
f 269/450 410/675 475/680 426/520
f 424/536 282/535 375/522 476/521
f 256/695 424/536 476/521 352/696
f 352/696 476/521 389/524 264/697
f 419/315 281/316 374/559 477/560
f 255/317 419/315 477/560 378/698
f 442/416 470/657 560/699 441/414
f 389/524 284/523 372/530 478/529
f 264/697 389/524 478/529 357/700
f 357/700 478/529 431/532 262/701
f 347/702 479/533 424/536 256/695
f 383/626 486/544 485/543 380/538
f 376/534 480/537 363/540 282/535
f 360/322 285/323 383/626 481/625
f 281/316 360/322 481/625 374/559
f 362/552 288/551 382/546 482/545
f 284/523 362/552 482/545 372/530
f 372/530 482/545 367/548 283/531
f 363/540 286/539 381/550 483/549
f 282/535 363/540 483/549 375/522
f 375/522 483/549 362/552 284/523
f 365/558 290/557 369/554 484/553
f 286/539 365/558 484/553 381/550
f 381/550 484/553 377/556 288/551
f 477/560 479/533 347/702 378/698
f 380/538 485/543 365/558 286/539
f 364/324 289/325 368/541 486/544
f 285/323 364/324 486/544 383/626
f 377/556 292/555 370/562 487/561
f 288/551 377/556 487/561 382/546
f 382/546 487/561 366/564 287/547
f 342/326 293/329 323/703 488/704
f 521/330 342/326 488/704 522/705
f 506/706 509/707 533/566 530/565
f 335/574 296/573 321/568 489/567
f 518/708 335/574 489/567 523/709
f 523/709 489/567 337/570 519/710
f 340/578 294/577 319/572 490/571
f 520/711 340/578 490/571 524/712
f 524/712 490/571 335/574 518/708
f 525/713 491/575 340/578 520/711
f 318/528 491/575 488/704 323/525
f 318/528 492/527 328/714 294/577
f 510/341 297/342 336/398 515/401
f 293/329 325/343 493/526 323/703
f 511/589 300/356 338/585 516/584
f 296/573 326/715 494/716 321/568
f 321/568 494/716 333/717 295/569
f 512/579 298/353 341/352 517/588
f 294/577 328/714 495/718 319/572
f 319/572 495/718 326/715 296/573
f 451/448 468/604 422/474 429/449
f 435/437 496/590 403/593 265/438
f 432/496 501/602 496/590 435/437
f 427/441 497/501 401/597 268/442
f 439/481 498/480 404/601 267/434
f 404/601 304/600 317/630 499/500
f 267/434 404/601 499/500 430/499
f 403/593 301/592 330/667 500/479
f 265/438 403/593 500/479 440/478
f 405/611 302/610 327/603 501/602
f 266/641 405/611 501/602 432/496
f 425/645 268/442 401/597 502/606
f 279/646 425/645 502/606 348/719
f 348/719 502/606 316/607 306/689
f 390/720 305/693 334/694 503/608
f 277/428 390/720 503/608 409/429
f 409/429 503/608 405/611 266/641
f 329/721 504/722 336/398 297/342
f 332/215 504/722 329/721 307/216
f 505/407 307/406 329/723 561/724
f 339/354 336/398 504/722 332/215
f 297/342 58/293 561/724 329/723
f 535/359 308/362 314/725 538/726
f 527/363 344/364 506/706 530/565
f 546/727 549/728 509/707 506/706
f 534/620 310/619 312/614 539/613
f 526/729 343/730 507/731 531/732
f 531/732 507/731 346/733 529/734
f 536/624 311/623 313/618 540/617
f 528/735 345/736 508/737 532/738
f 532/738 508/737 343/730 526/729
f 533/566 509/707 345/736 528/735
f 492/527 514/400 512/579 328/714
f 488/704 491/575 525/713 522/705
f 494/716 516/584 513/587 333/717
f 495/718 517/588 511/589 326/715
f 325/343 510/341 515/401 493/526
f 326/715 511/589 516/584 494/716
f 328/714 512/579 517/588 495/718
f 308/362 521/377 522/580 314/725
f 314/725 315/582 541/621 538/726
f 310/619 518/739 523/740 312/614
f 312/614 523/740 519/741 309/615
f 311/623 520/742 524/743 313/618
f 313/618 524/743 518/739 310/619
f 315/622 525/581 520/742 311/623
f 289/325 527/363 530/565 368/541
f 374/559 481/625 480/537 376/534
f 292/555 526/729 531/732 370/562
f 370/562 531/732 529/734 291/563
f 290/557 528/735 532/738 369/554
f 369/554 532/738 526/729 292/555
f 373/542 533/566 528/735 290/557
f 547/744 539/613 537/616 545/745
f 548/746 540/617 534/620 542/747
f 549/748 541/621 536/624 544/749
f 543/389 535/359 538/726 546/750
f 542/747 534/620 539/613 547/744
f 544/749 536/624 540/617 548/746
f 538/726 541/621 549/748 546/750
f 507/731 547/744 545/745 346/733
f 508/737 548/746 542/747 343/730
f 509/707 549/728 544/749 345/736
f 344/364 543/389 546/750 506/706
f 343/730 542/747 547/744 507/731
f 345/736 544/749 548/746 508/737
f 402/488 391/487 258/411 556/629
f 553/751 557/627 558/235 552/396
f 557/627 553/751 555/752 556/629
f 441/414 560/699 559/242 355/10
f 470/657 359/688 551/633 560/699
f 433/498 463/685 450/664 412/453
f 388/669 386/494 264/631 257/422
f 384/489 402/488 554/642 394/673
f 58/293 60/179 505/407 561/724
f 299/753 338/355 53/351 208/350
f 60/179 30/178 564/405 505/407
f 62/191 209/358 564/405 30/178
f 146/11 145/7 250/245 174/268
f 244/244 73/305 174/268 250/245
f 394/673 371/394 261/681 253/661
f 584/754 583/755 573/756 577/757
f 577/757 573/756 572/758 576/759
f 580/760 577/757 576/759 579/761
f 585/762 584/754 577/757 580/760
f 582/763 580/760 579/761 581/764
f 586/765 585/762 580/760 582/763
f 575/766 578/767 581/764 579/761
f 570/768 575/766 579/761 576/759
f 569/769 570/768 576/759 572/758
f 605/770 598/771 594/772 604/773
f 598/771 597/774 593/775 594/772
f 601/776 600/777 597/774 598/771
f 606/778 601/776 598/771 605/770
f 603/779 602/780 600/777 601/776
f 607/781 603/779 601/776 606/778
f 596/782 600/777 602/780 599/783
f 591/784 597/774 600/777 596/782
f 590/785 593/775 597/774 591/784
f 587/786 592/787 551/633 359/688
f 571/788 244/244 550/243 565/789
f 246/303 572/758 573/756 108/87
f 568/790 569/791 1/302 73/305
f 248/236 583/792 574/793 247/397
f 108/87 573/756 583/755 248/236
f 251/391 590/794 589/795 359/688
f 1/302 569/791 572/758 246/303
f 554/642 402/488 594/796 593/775
f 567/797 568/790 73/305 566/798
f 556/629 555/752 595/799 604/800
f 402/488 556/629 604/800 594/796
f 592/787 565/789 550/243 551/633
f 566/798 73/305 244/244 571/788
f 251/391 554/642 593/775 590/794
f 588/801 587/786 359/688 589/795
