# This is a clothes file for MakeHuman Community, exported by MakeClothes 2
#
# author: unknown
# license: CC0
#
v -0.0726 -0.5793 0.7603
v -0.0528 -0.4529 0.9614
v -0.0378 -0.3902 1.0090
v -0.1060 -0.6658 0.4645
v -0.0248 -0.8078 0.2324
v -0.0594 -0.3172 1.0365
v -0.0716 -0.5208 0.8657
v -0.0375 -0.7120 0.6540
v 0.0498 -0.6990 0.7519
v 0.0301 -0.4297 0.9627
v 0.0218 -0.3811 1.0147
v 0.0615 -0.8246 0.4562
v 0.0159 -0.7916 0.2288
v -0.0085 -0.5044 1.0041
v -0.0028 -0.6920 0.7866
v -0.0054 -0.3948 1.0400
v -0.0030 -0.6829 0.2255
v -0.0032 -0.3033 1.0585
v 0.0303 -0.5525 0.8765
v -0.0126 -0.6330 0.9482
v 0.0619 -0.7378 0.6119
v 0.0025 -0.7675 0.6434
v -0.0423 -0.3561 1.0123
v -0.0251 -0.8168 0.2165
v -0.0771 -0.5945 0.8075
v -0.0579 -0.7397 0.6986
v 0.0379 -0.7598 0.7951
v -0.0549 -0.7540 0.8024
v -0.0237 -0.4019 1.0254
v -0.0145 -0.8378 0.2256
v 0.0421 -0.6266 0.8134
v -0.0081 -0.6680 0.8618
v 0.0548 -0.5353 0.8880
v 0.0612 -0.6878 0.6783
v -0.0632 -0.8245 0.6910
v 0.0099 -0.3897 1.0315
v 0.0078 -0.7923 0.2252
v -0.0340 -0.3053 1.0515
v 0.0033 -0.7337 0.7178
v -0.0440 -0.4074 0.9954
v -0.0492 -0.8331 0.3292
v -0.0871 -0.6969 0.4437
v -0.0578 -0.4619 0.9312
v -0.0913 -0.5095 0.8930
v -0.0683 -0.7352 0.5706
v 0.0253 -0.3981 0.9946
v 0.0146 -0.4496 0.9778
v 0.0391 -0.8310 0.3210
v -0.0345 -0.4949 0.9863
v -0.0075 -0.4463 1.0307
v -0.0931 -0.9046 0.5197
v -0.0041 -0.3448 1.0336
v 0.0291 -0.4507 0.9253
v -0.0538 -0.5784 0.9188
v 0.0637 -0.7459 0.5519
v 0.0494 -0.9013 0.5260
v 0.0716 -0.8643 0.6504
v -0.0125 -0.5161 0.9900
v -0.0663 -0.4100 0.9906
v 0.0168 -0.5938 0.9183
v 0.0657 -0.8145 0.7233
v 0.0505 -0.4365 0.9311
v 0.0120 -0.5092 0.9714
v 0.0094 -0.4002 1.0118
v 0.0541 -0.8618 0.5919
v 0.0359 -0.9312 0.3823
v 0.0261 -0.6929 0.8557
v 0.0153 -0.3431 1.0304
v 0.0639 -0.6046 0.8237
v -0.0566 -0.8038 0.7378
v -0.0808 -0.4543 0.9461
v -0.0349 -0.4786 0.9772
v -0.0289 -0.4446 1.0121
v -0.0697 -0.8331 0.6084
v -0.0542 -0.9536 0.3782
v -0.0551 -0.6821 0.8583
v -0.0244 -0.3504 1.0252
v -0.0992 -0.5732 0.8267
v -0.0547 -0.3784 1.0075
v -0.0493 -0.3367 1.0239
v -0.0757 -0.5546 0.8351
v -0.0373 -0.7561 0.6806
v 0.0221 -0.7326 0.7964
v -0.0313 -0.7461 0.7996
v -0.0145 -0.4029 1.0316
v -0.0093 -0.7078 0.2255
v 0.0357 -0.5875 0.8446
v -0.0108 -0.6657 0.9088
v 0.0629 -0.7218 0.6399
v -0.0200 -0.8150 0.6885
v 0.0023 -0.3923 1.0371
v 0.0018 -0.6923 0.2261
v -0.0190 -0.3034 1.0564
v 0.0056 -0.7472 0.6813
v -0.0410 -0.3982 1.0037
v -0.0352 -0.8340 0.2727
v -0.0663 -0.4905 0.8943
v -0.0559 -0.7222 0.6126
v 0.0231 -0.3883 1.0064
v 0.0017 -0.4966 0.9935
v 0.0278 -0.8332 0.2687
v -0.0231 -0.5046 0.9965
v -0.0060 -0.4174 1.0395
v -0.0527 -0.6873 0.4924
v -0.0041 -0.3212 1.0432
v 0.0292 -0.4847 0.8996
v -0.0365 -0.6128 0.9428
v 0.0617 -0.7409 0.5821
v -0.0056 -0.7540 0.6061
v 0.0163 -0.7554 0.4875
v 0.0424 -0.8278 0.6457
v -0.0129 -0.5714 0.9800
v -0.0769 -0.4031 1.0054
v 0.0125 -0.3051 1.0571
v 0.0032 -0.6204 0.9439
v -0.0395 -0.3742 1.0096
v -0.0788 -0.6164 0.7574
v -0.0245 -0.8106 0.2237
v -0.0771 -0.6066 0.7861
v -0.0628 -0.7098 0.7292
v 0.0529 -0.7341 0.7727
v -0.0750 -0.7140 0.7809
v -0.0313 -0.3959 1.0169
v -0.0202 -0.8387 0.2284
v 0.0254 -0.3678 1.0148
v 0.0456 -0.6634 0.7827
v -0.0068 -0.6661 0.8174
v 0.0417 -0.5381 0.8753
v 0.0554 -0.6691 0.7164
v -0.0742 -0.7949 0.6697
v 0.0161 -0.3851 1.0224
v 0.0131 -0.7934 0.2259
v -0.0003 -0.7940 0.1919
v -0.0477 -0.3084 1.0449
v -0.0006 -0.7121 0.7509
v -0.0475 -0.4191 0.9777
v -0.0644 -0.8224 0.3934
v -0.0688 -0.3312 1.0284
v -0.1038 -0.6771 0.4542
v -0.0545 -0.4480 0.9429
v -0.0784 -0.5077 0.8718
v -0.1031 -0.7992 0.5222
v 0.0276 -0.4122 0.9800
v 0.0252 -0.4285 0.9664
v 0.0523 -0.8300 0.3866
v -0.0444 -0.4798 0.9748
v -0.0074 -0.4813 1.0176
v -0.0939 -0.8279 0.4822
v -0.0044 -0.3710 1.0330
v 0.0296 -0.4526 0.9440
v -0.0610 -0.5517 0.8927
v 0.0599 -0.7494 0.5192
v 0.0378 -0.4143 0.9601
v 0.0764 -0.8630 0.4875
v 0.0876 -0.8498 0.6338
v -0.0112 -0.4593 0.9864
v -0.0584 -0.4177 0.9712
v 0.0220 -0.5715 0.8947
v 0.0870 -0.8515 0.6783
v 0.0492 -0.7901 0.7599
v 0.0807 -0.7942 0.7007
v 0.0405 -0.7812 0.7276
v 0.0525 -0.4693 0.9102
v 0.0486 -0.4373 0.9485
v 0.0400 -0.4378 0.9196
v 0.0152 -0.5506 0.9414
v 0.0106 -0.4541 0.9768
v 0.0196 -0.4667 0.9571
v 0.0002 -0.5150 0.9849
v 0.0109 -0.4282 0.9930
v 0.0095 -0.4075 1.0264
v 0.0174 -0.4153 1.0000
v 0.0014 -0.4097 1.0229
v 0.0664 -0.8664 0.5592
v 0.0557 -0.8617 0.6220
v 0.0855 -0.8493 0.5735
v 0.0117 -0.7437 0.5794
v 0.0226 -0.9192 0.2955
v 0.0499 -0.9256 0.4543
v 0.0473 -0.8453 0.3400
v 0.0145 -0.8004 0.3592
v 0.0278 -0.7265 0.8251
v 0.0236 -0.6443 0.8855
v 0.0438 -0.6640 0.8344
v 0.0088 -0.6742 0.8576
v 0.0057 -0.3425 1.0339
v 0.0202 -0.3238 1.0382
v 0.0119 -0.3657 1.0293
v 0.0074 -0.7023 0.1980
v 0.0592 -0.5677 0.8569
v 0.0509 -0.6087 0.8127
v 0.0439 -0.3961 0.9864
v 0.0328 -0.3867 0.9955
v -0.0977 -0.7990 0.5122
v -0.0728 -0.6830 0.5618
v -0.0357 -0.7868 0.7312
v -0.0812 -0.7674 0.7185
v -0.0553 -0.7819 0.7707
v -0.0506 -0.8114 0.7186
v -0.0684 -0.4541 0.9267
v -0.0733 -0.4318 0.9698
v -0.0866 -0.4801 0.9194
v -0.0269 -0.4867 0.9838
v -0.0438 -0.4895 0.9581
v -0.0350 -0.4609 0.9792
v -0.0454 -0.5094 0.9517
v -0.0189 -0.4505 1.0210
v -0.0371 -0.4277 1.0012
v -0.0257 -0.4206 1.0230
v -0.0323 -0.4726 0.9995
v -0.0215 -0.6479 0.5944
v -0.0877 -0.8259 0.5927
v -0.0507 -0.8292 0.6526
v -0.0887 -0.8779 0.5639
v -0.0250 -0.8185 0.3573
v -0.0566 -0.8424 0.3407
v -0.0854 -0.9226 0.4353
v -0.0038 -0.9181 0.2891
v -0.0338 -0.6718 0.8593
v -0.0717 -0.6426 0.8350
v -0.0591 -0.6302 0.8857
v -0.0531 -0.7185 0.8299
v -0.0230 -0.3769 1.0231
v -0.0286 -0.3250 1.0362
v -0.0138 -0.3488 1.0292
v -0.0342 -0.3521 1.0200
v -0.0155 -0.8186 0.1931
v -0.0098 -0.8114 0.1979
v -0.0495 -0.7914 0.3182
v -0.0847 -0.5755 0.8107
v -0.0976 -0.5387 0.8610
v -0.0643 -0.6187 0.6941
v -0.0496 -0.3928 1.0009
v -0.0627 -0.3641 1.0159
v -0.0488 -0.3660 1.0100
v -0.0605 -0.3936 1.0006
v -0.0698 -0.3825 1.0119
v -0.0565 -0.3489 1.0185
v -0.0448 -0.3825 1.0056
v -0.0520 -0.6445 0.6661
v -0.0841 -0.5379 0.8406
v -0.0368 -0.7985 0.2651
v -0.0047 -0.6995 0.1936
v -0.0397 -0.3291 1.0303
v -0.0165 -0.3227 1.0407
v -0.0129 -0.3780 1.0261
v -0.0765 -0.6791 0.8083
v -0.0657 -0.5634 0.8617
v -0.0442 -0.6524 0.9016
v -0.0382 -0.8740 0.2815
v -0.0711 -0.8325 0.4077
v -0.0443 -0.6933 0.4157
v -0.0989 -0.8287 0.5442
v -0.0749 -0.8083 0.6321
v -0.0137 -0.7891 0.6423
v -0.0401 -0.4468 0.9875
v -0.0338 -0.4105 1.0122
v -0.0161 -0.4239 1.0307
v -0.0531 -0.5186 0.9255
v -0.0447 -0.4745 0.9639
v -0.0241 -0.4648 0.9825
v -0.0633 -0.4324 0.9486
v -0.0725 -0.7803 0.6978
v -0.0713 -0.7437 0.7500
v -0.0322 -0.7750 0.7673
v -0.1067 -0.6929 0.5133
v -0.0936 -0.8129 0.5138
v 0.0294 -0.3752 1.0055
v 0.0464 -0.5711 0.8446
v 0.0031 -0.7955 0.1947
v 0.0037 -0.3667 1.0333
v 0.0083 -0.3213 1.0424
v 0.0108 -0.6598 0.9012
v 0.0305 -0.6158 0.8634
v 0.0465 -0.6989 0.8034
v 0.0150 -0.6786 0.4225
v 0.0645 -0.8577 0.4123
v 0.0319 -0.8418 0.2768
v 0.0176 -0.8082 0.6132
v 0.0798 -0.8435 0.6033
v 0.0835 -0.8554 0.5424
v 0.0021 -0.4132 1.0344
v 0.0164 -0.3988 1.0152
v 0.0199 -0.4350 0.9841
v -0.0005 -0.4582 0.9841
v 0.0207 -0.4403 0.9622
v 0.0199 -0.5331 0.9208
v 0.0389 -0.4390 0.9395
v 0.0297 -0.7614 0.7619
v 0.0680 -0.7702 0.7378
v 0.0928 -0.8373 0.6612
v 0.0541 -0.8155 0.6876
v 0.0411 -0.4712 0.8975
v 0.0046 -0.5678 0.9685
v 0.0015 -0.4424 1.0064
v 0.0258 -0.7743 0.5353
v 0.0110 -0.8163 0.2888
v 0.0109 -0.6954 0.8226
v 0.0193 -0.3656 1.0226
v 0.0124 -0.7029 0.2061
v 0.0553 -0.5925 0.7853
v 0.0356 -0.4018 0.9817
v -0.0336 -0.7980 0.7032
v -0.0742 -0.4796 0.8976
v -0.0317 -0.5616 0.9676
v -0.0216 -0.4517 1.0091
v -0.0403 -0.6802 0.5414
v -0.0301 -0.6975 0.8252
v -0.0320 -0.3747 1.0168
v -0.0166 -0.8122 0.2087
v -0.0629 -0.6853 0.3817
v -0.0824 -0.6182 0.7862
v -0.0716 -0.5848 0.7260
v -0.0537 -0.4043 0.9892
v -0.0539 -0.3267 1.0300
v -0.0740 -0.5367 0.8507
v -0.0338 -0.7634 0.6696
v 0.0107 -0.7064 0.7904
v -0.0194 -0.7154 0.7920
v -0.0097 -0.3980 1.0369
v -0.0065 -0.8289 0.2253
v -0.0025 -0.2955 1.0667
v 0.0328 -0.5692 0.8610
v -0.0117 -0.6514 0.9287
v 0.0624 -0.7326 0.6254
v -0.0047 -0.7901 0.6710
v -0.0014 -0.3936 1.0392
v 0.0007 -0.6866 0.2258
v -0.0112 -0.3031 1.0578
v 0.0047 -0.7543 0.6615
v -0.0394 -0.3937 1.0066
v -0.0293 -0.8055 0.2493
v -0.0693 -0.5055 0.8792
v -0.0463 -0.7172 0.6339
v 0.0225 -0.3843 1.0112
v -0.0034 -0.5019 0.9999
v 0.0211 -0.6934 0.2455
v -0.0149 -0.5045 1.0029
v -0.0054 -0.4061 1.0410
v -0.0039 -0.3111 1.0507
v 0.0296 -0.5028 0.8885
v -0.0260 -0.6266 0.9471
v 0.0614 -0.7395 0.5972
v -0.0012 -0.7690 0.6251
v 0.0210 -0.7996 0.6391
v -0.0132 -0.6043 0.9671
v 0.0047 -0.3039 1.0582
v -0.0039 -0.6294 0.9476
v -0.0405 -0.3652 1.0107
v -0.0248 -0.8134 0.2204
v -0.0773 -0.5845 0.7968
v -0.0600 -0.7252 0.7139
v 0.0468 -0.7508 0.7853
v -0.0668 -0.7362 0.7932
v -0.0277 -0.3990 1.0215
v -0.0175 -0.8384 0.2269
v 0.0280 -0.3604 1.0155
v 0.0439 -0.6451 0.7979
v -0.0078 -0.6602 0.8370
v 0.0481 -0.5353 0.8804
v 0.0583 -0.6785 0.6973
v -0.0747 -0.8111 0.6811
v 0.0130 -0.3875 1.0272
v 0.0108 -0.7931 0.2255
v -0.0411 -0.3069 1.0483
v 0.0011 -0.7272 0.7344
v -0.0452 -0.4111 0.9870
v -0.0598 -0.8367 0.3701
v -0.0725 -0.3400 1.0252
v -0.0920 -0.6924 0.4472
v -0.0553 -0.4520 0.9384
v -0.0844 -0.5075 0.8818
v -0.0810 -0.7972 0.5471
v 0.0264 -0.4047 0.9877
v 0.0205 -0.4400 0.9709
v 0.0471 -0.8134 0.3495
v -0.0394 -0.4884 0.9811
v -0.0073 -0.4342 1.0253
v -0.0940 -0.8722 0.5046
v -0.0042 -0.3578 1.0320
v 0.0295 -0.4358 0.9351
v -0.0577 -0.5331 0.9063
v 0.0620 -0.7475 0.5363
v 0.0421 -0.4116 0.9620
v 0.0821 -0.9213 0.5082
v 0.0835 -0.8631 0.6439
v -0.0119 -0.4672 0.9875
v -0.0620 -0.4119 0.9809
v 0.0198 -0.5819 0.9058
v 0.0636 -0.7409 0.5479
v 0.0816 -0.8609 0.6627
v 0.0558 -0.8019 0.7418
v 0.0716 -0.7700 0.6878
v 0.0539 -0.8032 0.7279
v 0.0536 -0.5178 0.8996
v 0.0496 -0.4213 0.9402
v 0.0452 -0.4357 0.9240
v 0.0157 -0.5718 0.9297
v 0.0107 -0.4636 0.9768
v 0.0242 -0.4589 0.9409
v 0.0065 -0.5127 0.9780
v 0.0133 -0.4405 0.9839
v 0.0093 -0.4181 1.0197
v 0.0216 -0.4064 0.9965
v 0.0055 -0.4052 1.0173
v 0.0644 -0.8940 0.5470
v 0.0530 -0.8612 0.6071
v 0.0762 -0.8261 0.5614
v 0.0314 -0.8339 0.5885
v 0.0141 -0.8403 0.2524
v 0.0425 -0.9379 0.4221
v 0.0436 -0.8376 0.3289
v 0.0108 -0.9222 0.3846
v 0.0324 -0.7432 0.8104
v 0.0251 -0.6703 0.8704
v 0.0438 -0.6440 0.8223
v 0.0175 -0.6855 0.8576
v 0.0105 -0.3425 1.0325
v 0.0134 -0.3541 1.0291
v 0.0062 -0.6991 0.2099
v 0.0403 -0.8138 0.3157
v 0.0617 -0.5850 0.8399
v 0.0573 -0.6051 0.8173
v 0.0456 -0.4036 0.9771
v 0.0366 -0.3820 0.9967
v -0.0847 -0.7921 0.5375
v -0.0205 -0.7586 0.7231
v -0.0721 -0.7881 0.7301
v -0.0552 -0.7688 0.7868
v -0.0568 -0.8102 0.7240
v -0.0633 -0.4561 0.9256
v -0.0886 -0.4541 0.9558
v -0.0697 -0.4207 0.9812
v -0.0839 -0.4667 0.9329
v -0.0210 -0.4875 0.9873
v -0.0391 -0.4701 0.9692
v -0.0349 -0.4941 0.9820
v -0.0400 -0.4930 0.9665
v -0.0371 -0.2969 1.0594
v -0.0127 -0.4470 1.0281
v -0.0332 -0.4366 1.0063
v -0.0245 -0.4115 1.0250
v -0.0307 -0.4592 1.0062
v -0.0040 -0.6422 0.5760
v -0.0828 -0.8357 0.6030
v -0.0572 -0.8275 0.6726
v -0.0633 -0.8397 0.5813
v -0.0665 -0.9336 0.3620
v -0.1043 -0.9058 0.4753
v -0.0212 -0.9339 0.3297
v -0.0227 -0.6689 0.8607
v -0.0646 -0.6669 0.8489
v -0.0583 -0.6026 0.9012
v -0.0537 -0.7013 0.8443
v -0.0231 -0.3898 1.0245
v -0.0263 -0.3373 1.0300
v -0.0090 -0.3468 1.0318
v -0.0294 -0.3511 1.0228
v -0.0198 -0.8187 0.2034
v -0.0522 -0.7930 0.3153
v -0.0802 -0.5821 0.8062
v -0.0935 -0.5244 0.8781
v -0.0470 -0.3998 0.9973
v -0.0584 -0.3711 1.0118
v -0.0457 -0.3605 1.0111
v -0.0579 -0.3858 1.0045
v -0.0454 -0.3467 1.0182
v -0.0767 -0.5738 0.8207
v -0.0520 -0.7509 0.6855
v 0.0303 -0.7518 0.7981
v -0.0428 -0.7572 0.8035
v -0.0192 -0.4035 1.0283
v -0.0116 -0.7106 0.2254
v 0.0391 -0.6072 0.8289
v -0.0091 -0.6751 0.8856
v 0.0639 -0.7028 0.6590
v -0.0424 -0.8264 0.6935
v 0.0062 -0.3910 1.0344
v 0.0044 -0.6955 0.2257
v -0.0266 -0.3041 1.0542
v 0.0050 -0.7369 0.7005
v -0.0426 -0.4029 1.0004
v -0.0413 -0.8320 0.2980
v -0.0873 -0.7033 0.4428
v -0.0620 -0.4754 0.9136
v -0.0980 -0.5120 0.9032
v -0.0622 -0.6899 0.5920
v 0.0241 -0.3929 1.0008
v 0.0081 -0.4892 0.9855
v 0.0333 -0.8318 0.2944
v -0.0292 -0.5005 0.9908
v -0.0069 -0.4306 1.0355
v -0.0443 -0.9011 0.5185
v -0.0041 -0.3324 1.0374
v 0.0289 -0.4671 0.9125
v -0.0464 -0.5950 0.9319
v 0.0631 -0.7435 0.5671
v -0.0105 -0.6357 0.5853
v 0.0326 -0.8334 0.5143
v 0.0585 -0.8510 0.6500
v -0.0128 -0.5416 0.9874
v -0.0715 -0.4069 0.9985
v 0.0104 -0.6074 0.9324
v -0.0387 -0.3832 1.0091
v -0.0744 -0.6289 0.7572
v -0.0244 -0.8089 0.2277
v -0.0756 -0.6587 0.7733
v -0.0678 -0.6935 0.7447
v -0.0384 -0.7023 0.6491
v 0.0519 -0.7149 0.7605
v -0.0748 -0.6941 0.7689
v -0.0350 -0.3927 1.0124
v -0.0227 -0.8077 0.2298
v 0.0232 -0.3746 1.0147
v 0.0532 -0.6319 0.7511
v 0.0167 -0.7931 0.2231
v 0.0476 -0.6816 0.7676
v -0.0048 -0.6791 0.8019
v 0.0357 -0.5443 0.8740
v 0.0525 -0.7155 0.7343
v -0.0555 -0.7818 0.6608
v 0.0611 -0.7301 0.6083
v 0.0194 -0.3830 1.0179
v 0.0145 -0.7927 0.2268
v -0.0016 -0.6949 0.2068
v -0.0538 -0.3122 1.0408
v -0.0015 -0.7012 0.7689
v -0.0504 -0.4371 0.9697
v -0.0795 -0.6861 0.4250
v -0.0644 -0.3235 1.0323
v -0.1080 -0.6616 0.4596
v -0.0541 -0.4525 0.9515
v -0.0749 -0.5123 0.8656
v -0.1146 -0.6576 0.4972
v 0.0291 -0.4205 0.9716
v 0.0276 -0.4441 0.9642
v 0.0576 -0.8287 0.4214
v -0.0492 -0.4682 0.9665
v -0.0079 -0.4963 1.0109
v -0.0998 -0.7857 0.4703
v -0.0048 -0.3825 1.0370
v 0.0638 -0.7623 0.4464
v 0.0300 -0.4404 0.9534
v -0.0662 -0.5353 0.8771
v 0.0602 -0.7552 0.4937
v 0.0335 -0.4202 0.9610
v 0.0698 -0.8436 0.4699
v 0.0755 -0.8229 0.6216
v -0.0097 -0.4972 0.9942
v -0.0557 -0.4336 0.9641
v 0.0257 -0.5616 0.8845
v 0.0799 -0.8314 0.7022
v 0.0433 -0.7756 0.7778
v 0.0761 -0.8093 0.7133
v 0.0230 -0.7545 0.7212
v 0.0515 -0.4525 0.9208
v 0.0344 -0.4433 0.9193
v 0.0137 -0.5288 0.9571
v 0.0127 -0.4517 0.9762
v 0.0158 -0.4728 0.9660
v -0.0057 -0.5156 0.9894
v 0.0097 -0.4448 1.0027
v 0.0097 -0.3990 1.0301
v 0.0136 -0.3933 1.0056
v -0.0030 -0.4135 1.0278
v 0.0608 -0.8644 0.5760
v 0.0625 -0.8636 0.6365
v 0.0748 -0.8632 0.5850
v -0.0019 -0.6375 0.5645
v 0.0219 -0.9237 0.3394
v 0.0446 -0.9098 0.4884
v 0.0553 -0.9301 0.3649
v 0.0261 -0.6814 0.8405
v 0.0207 -0.6177 0.9017
v 0.0358 -0.6825 0.8466
v 0.0010 -0.6687 0.8595
v 0.0198 -0.3444 1.0276
v 0.0008 -0.3433 1.0343
v 0.0175 -0.3330 1.0333
v 0.0107 -0.3778 1.0307
v 0.0092 -0.7056 0.1867
v 0.0662 -0.6270 0.8087
v 0.0563 -0.5525 0.8736
v 0.0716 -0.6077 0.8313
v 0.0451 -0.6156 0.8112
v 0.0290 -0.3918 0.9946
v -0.1017 -0.6930 0.4814
v -0.0685 -0.6872 0.5649
v -0.0453 -0.8020 0.7370
v -0.0712 -0.7522 0.7073
v -0.0554 -0.7936 0.7542
v -0.0569 -0.8173 0.7070
v -0.0742 -0.4538 0.9351
v -0.0772 -0.4427 0.9580
v -0.0891 -0.4945 0.9063
v -0.0310 -0.4835 0.9809
v -0.0505 -0.4747 0.9439
v -0.0340 -0.4673 0.9793
v -0.0494 -0.5269 0.9354
v -0.0240 -0.4494 1.0165
v -0.0407 -0.4173 0.9973
v -0.0273 -0.4317 1.0180
v -0.0337 -0.4856 0.9918
v -0.0377 -0.8109 0.6030
v -0.0783 -0.8096 0.5809
v -0.0575 -0.8308 0.6314
v -0.0937 -0.8816 0.5430
v -0.0228 -0.9541 0.3806
v -0.0539 -0.8378 0.3354
v -0.0656 -0.9343 0.4029
v -0.0199 -0.8356 0.2515
v -0.0445 -0.6792 0.8599
v -0.0748 -0.5843 0.8196
v -0.0573 -0.6577 0.8717
v -0.0538 -0.7366 0.8161
v -0.0228 -0.3642 1.0217
v -0.0312 -0.3138 1.0436
v -0.0190 -0.3497 1.0272
v -0.0385 -0.3537 1.0167
v -0.0121 -0.8087 0.2103
v -0.0485 -0.8279 0.3241
v -0.0914 -0.5735 0.8182
v -0.0992 -0.5553 0.8435
v -0.0578 -0.6291 0.6955
v -0.0519 -0.3856 1.0041
v -0.0674 -0.3572 1.0194
v -0.0515 -0.3720 1.0091
v -0.0633 -0.4013 0.9964
v -0.0648 -0.3880 1.0062
v -0.0750 -0.3772 1.0173
v -0.0665 -0.3730 1.0141
v -0.0730 -0.3924 1.0096
v -0.0519 -0.3575 1.0132
v -0.0621 -0.3400 1.0235
v -0.0532 -0.3422 1.0210
v -0.0588 -0.3565 1.0164
v -0.0431 -0.3906 1.0039
v -0.0466 -0.3744 1.0075
v -0.0423 -0.3777 1.0073
v -0.0473 -0.3875 1.0038
v -0.0600 -0.6338 0.6776
v -0.0450 -0.6496 0.6594
v -0.0386 -0.7471 0.6739
v -0.1042 -0.5408 0.8709
v -0.0797 -0.5436 0.8349
v -0.0905 -0.5373 0.8502
v -0.0802 -0.5229 0.8573
v -0.0852 -0.5556 0.8251
v -0.0432 -0.7943 0.2903
v -0.0303 -0.8049 0.2418
v -0.0383 -0.8005 0.2621
v -0.0357 -0.8001 0.2692
v -0.0071 -0.7944 0.1952
v -0.0022 -0.6993 0.1922
v -0.0068 -0.8077 0.2077
v -0.0367 -0.3405 1.0245
v -0.0434 -0.3183 1.0372
v -0.0343 -0.3268 1.0334
v -0.0447 -0.3324 1.0271
v -0.0152 -0.3350 1.0343
v -0.0178 -0.3117 1.0484
v -0.0103 -0.3218 1.0423
v -0.0226 -0.3237 1.0386
v -0.0134 -0.3913 1.0285
v -0.0120 -0.3646 1.0242
v -0.0083 -0.3760 1.0292
v -0.0179 -0.3775 1.0247
v -0.0664 -0.7027 0.8210
v -0.0782 -0.6571 0.7956
v -0.0746 -0.6615 0.8216
v -0.0767 -0.6967 0.7949
v -0.0624 -0.6145 0.8747
v -0.0705 -0.5737 0.8464
v -0.0642 -0.5399 0.8766
v -0.0684 -0.6199 0.8479
v -0.0303 -0.6615 0.9066
v -0.0532 -0.6416 0.8943
v -0.0414 -0.6338 0.9225
v -0.0398 -0.6666 0.8802
v -0.0313 -0.9159 0.2881
v -0.0356 -0.8356 0.2757
v -0.0460 -0.8397 0.3079
v -0.0264 -0.8060 0.2510
v -0.0864 -0.9252 0.4293
v -0.0679 -0.8274 0.4012
v -0.0808 -0.8287 0.4428
v -0.0651 -0.8404 0.3765
v -0.0528 -0.9192 0.4461
v -0.0208 -0.7874 0.4667
v -0.0329 -0.7075 0.3846
v -0.0963 -0.8392 0.5524
v -0.1003 -0.8135 0.5331
v -0.0935 -0.8286 0.5691
v -0.1008 -0.8282 0.5174
v -0.0668 -0.8232 0.6443
v -0.0663 -0.7935 0.6210
v -0.0739 -0.8011 0.6514
v -0.0807 -0.8177 0.6130
v -0.0045 -0.7614 0.6272
v -0.0311 -0.8147 0.6505
v -0.0154 -0.8051 0.6671
v -0.0225 -0.7763 0.6172
v -0.0363 -0.4607 0.9933
v -0.0438 -0.4320 0.9811
v -0.0384 -0.4359 0.9942
v -0.0424 -0.4651 0.9809
v -0.0299 -0.4158 1.0179
v -0.0377 -0.4046 1.0070
v -0.0323 -0.4034 1.0153
v -0.0357 -0.4189 1.0072
v -0.0107 -0.4188 1.0374
v -0.0210 -0.4236 1.0265
v -0.0152 -0.4134 1.0323
v -0.0175 -0.4361 1.0262
v -0.0202 -0.2951 1.0646
v -0.0495 -0.4989 0.9403
v -0.0596 -0.5037 0.9078
v -0.0480 -0.5032 0.9435
v -0.0573 -0.5343 0.9088
v -0.0401 -0.4849 0.9729
v -0.0497 -0.4610 0.9520
v -0.0450 -0.4791 0.9686
v -0.0436 -0.4792 0.9625
v -0.0180 -0.4630 0.9845
v -0.0295 -0.4640 0.9815
v -0.0232 -0.5002 0.9882
v -0.0252 -0.4722 0.9835
v -0.0941 -0.4814 0.9296
v -0.0797 -0.4299 0.9786
v -0.0589 -0.4383 0.9429
v -0.0683 -0.4315 0.9589
v -0.0610 -0.4246 0.9602
v -0.0658 -0.4426 0.9377
v -0.0658 -0.7983 0.7098
v -0.0561 -0.7668 0.6881
v -0.0818 -0.7763 0.7045
v -0.0720 -0.7872 0.6854
v -0.0656 -0.7645 0.7620
v -0.0676 -0.7258 0.7385
v -0.0722 -0.7296 0.7657
v -0.0758 -0.7561 0.7342
v -0.0195 -0.7382 0.7579
v -0.0436 -0.7868 0.7716
v -0.0318 -0.7632 0.7842
v -0.0333 -0.7820 0.7496
v -0.0847 -0.6881 0.5384
v -0.1159 -0.6519 0.4873
v -0.1013 -0.7936 0.5121
v -0.1064 -0.6945 0.5162
v -0.0869 -0.8079 0.5412
v -0.0952 -0.7031 0.4776
v -0.0987 -0.8171 0.5141
v -0.0938 -0.8055 0.5126
v 0.0312 -0.3804 1.0006
v 0.0277 -0.3702 1.0104
v 0.0329 -0.3684 1.0060
v 0.0262 -0.3819 1.0054
v 0.0608 -0.7120 0.6362
v 0.0486 -0.5889 0.8283
v 0.0432 -0.5234 0.8612
v 0.0527 -0.5679 0.8496
v 0.0404 -0.5779 0.8428
v 0.0291 -0.6730 0.2644
v 0.0018 -0.6976 0.2085
v 0.0047 -0.7987 0.1818
v 0.0012 -0.7948 0.1934
v 0.0052 -0.7016 0.1960
v 0.0078 -0.3660 1.0317
v -0.0003 -0.3682 1.0340
v 0.0047 -0.3544 1.0327
v 0.0028 -0.3792 1.0353
v 0.0144 -0.3222 1.0407
v 0.0022 -0.3210 1.0433
v 0.0102 -0.3122 1.0495
v 0.0069 -0.3314 1.0371
v 0.0106 -0.6717 0.8789
v 0.0072 -0.6411 0.9230
v 0.0181 -0.6528 0.8939
v 0.0020 -0.6644 0.9062
v 0.0374 -0.6409 0.8489
v 0.0258 -0.5921 0.8791
v 0.0328 -0.6007 0.8525
v 0.0274 -0.6310 0.8748
v 0.0487 -0.7159 0.7882
v 0.0459 -0.6822 0.8189
v 0.0466 -0.6792 0.7913
v 0.0384 -0.7171 0.8160
v 0.0040 -0.6906 0.3918
v 0.0185 -0.6666 0.4544
v 0.0446 -0.8441 0.4420
v 0.0559 -0.8509 0.3752
v 0.0718 -0.8627 0.4490
v 0.0594 -0.8436 0.3974
v 0.0641 -0.9464 0.4429
v 0.0217 -0.8414 0.2487
v 0.0399 -0.8430 0.3077
v 0.0302 -0.8372 0.2727
v 0.0407 -0.9218 0.2893
v 0.0119 -0.7972 0.5957
v 0.0299 -0.8193 0.6295
v 0.0367 -0.8407 0.6199
v 0.0030 -0.7748 0.6055
v 0.0822 -0.8453 0.5883
v 0.0828 -0.8466 0.6188
v 0.0719 -0.8204 0.5914
v 0.0719 -0.8590 0.6147
v 0.0788 -0.8577 0.5216
v 0.0860 -0.8528 0.5584
v 0.0720 -0.8312 0.5302
v 0.0798 -0.8671 0.5529
v 0.0016 -0.4253 1.0290
v 0.0021 -0.4031 1.0370
v 0.0055 -0.4106 1.0308
v -0.0018 -0.4158 1.0376
v 0.0169 -0.4066 1.0080
v 0.0160 -0.3924 1.0198
v 0.0200 -0.3937 1.0101
v 0.0133 -0.4034 1.0209
v 0.0231 -0.4476 0.9743
v 0.0182 -0.4246 0.9925
v 0.0239 -0.4226 0.9813
v 0.0157 -0.4477 0.9879
v 0.0152 -0.2978 1.0652
v -0.0006 -0.4668 0.9853
v 0.0007 -0.4931 0.9878
v 0.0050 -0.4571 0.9810
v -0.0057 -0.4583 0.9859
v 0.0199 -0.4518 0.9623
v 0.0234 -0.4345 0.9628
v 0.0250 -0.4310 0.9523
v 0.0158 -0.4481 0.9703
v 0.0205 -0.5518 0.9070
v 0.0194 -0.4834 0.9400
v 0.0241 -0.4928 0.9092
v 0.0175 -0.5418 0.9309
v 0.0394 -0.4535 0.9295
v 0.0384 -0.4254 0.9496
v 0.0436 -0.4368 0.9426
v 0.0340 -0.4447 0.9400
v 0.0343 -0.7710 0.7446
v 0.0261 -0.7486 0.7797
v 0.0395 -0.7817 0.7632
v 0.0157 -0.7295 0.7548
v 0.0742 -0.7817 0.7193
v 0.0601 -0.7531 0.7557
v 0.0626 -0.7489 0.7253
v 0.0610 -0.7843 0.7503
v 0.0916 -0.8475 0.6470
v 0.0892 -0.8144 0.6814
v 0.0774 -0.8090 0.6492
v 0.0947 -0.8502 0.6709
v 0.0609 -0.7450 0.5115
v 0.0627 -0.7363 0.5787
v 0.0499 -0.8274 0.6639
v 0.0490 -0.7970 0.7094
v 0.0721 -0.8394 0.6835
v 0.0306 -0.7881 0.6835
v 0.0415 -0.4887 0.8869
v 0.0406 -0.4542 0.9085
v 0.0468 -0.4685 0.9026
v 0.0351 -0.4774 0.8964
v 0.0033 -0.5955 0.9580
v 0.0028 -0.5398 0.9781
v 0.0108 -0.5598 0.9547
v -0.0037 -0.5715 0.9777
v 0.0017 -0.4877 0.9992
v 0.0013 -0.4267 1.0155
v 0.0064 -0.4363 0.9994
v -0.0026 -0.4475 1.0128
v 0.0226 -0.7605 0.5123
v 0.0176 -0.7600 0.5599
v 0.0458 -0.8416 0.5558
v 0.0047 -0.6813 0.2548
v 0.0189 -0.8112 0.3250
v 0.0045 -0.9109 0.2977
v 0.0163 -0.7137 0.8097
v 0.0085 -0.6812 0.8384
v 0.0191 -0.7152 0.8258
v 0.0026 -0.6765 0.8191
v 0.0226 -0.3663 1.0188
v 0.0157 -0.3655 1.0262
v 0.0214 -0.3558 1.0230
v 0.0175 -0.3754 1.0228
v 0.0110 -0.7947 0.2133
v 0.0145 -0.7063 0.1984
v 0.0098 -0.7028 0.2018
v 0.0151 -0.7975 0.2107
v 0.0527 -0.8103 0.3801
v 0.0530 -0.6304 0.7986
v 0.0494 -0.5959 0.7824
v 0.0566 -0.6617 0.7145
v 0.0371 -0.4076 0.9715
v 0.0342 -0.3944 0.9893
v 0.0396 -0.3986 0.9833
v 0.0316 -0.4060 0.9805
v -0.0183 -0.7784 0.6914
v -0.0397 -0.8089 0.7157
v -0.0381 -0.7920 0.7136
v -0.0238 -0.8075 0.7003
v -0.0702 -0.4832 0.8923
v -0.0799 -0.4790 0.9079
v -0.0712 -0.4664 0.9125
v -0.0767 -0.4933 0.8845
v -0.0237 -0.5689 0.9754
v -0.0394 -0.5514 0.9597
v -0.0292 -0.5383 0.9772
v -0.0339 -0.5875 0.9568
v -0.0524 -0.3011 1.0520
v -0.0134 -0.4505 1.0161
v -0.0276 -0.4487 1.0042
v -0.0202 -0.4368 1.0156
v -0.0229 -0.4962 1.0028
v -0.0436 -0.8676 0.5625
v -0.0276 -0.6505 0.5690
v -0.0500 -0.6793 0.5181
v -0.0245 -0.8309 0.2848
v -0.0225 -0.7195 0.3206
v -0.0155 -0.6953 0.2531
v -0.0202 -0.6778 0.8205
v -0.0410 -0.7132 0.8297
v -0.0308 -0.6804 0.8407
v -0.0306 -0.7220 0.8125
v -0.0317 -0.3858 1.0170
v -0.0321 -0.3639 1.0166
v -0.0278 -0.3759 1.0203
v -0.0358 -0.3738 1.0130
v -0.0203 -0.8123 0.2146
v -0.0131 -0.8119 0.2029
v -0.0160 -0.8153 0.2005
v -0.0177 -0.8096 0.2169
v -0.0783 -0.6799 0.4156
v -0.0564 -0.7891 0.3518
v -0.0632 -0.6896 0.3880
v -0.0786 -0.5947 0.7842
v -0.0887 -0.6128 0.7899
v -0.0836 -0.5973 0.7984
v -0.0810 -0.6019 0.7724
v -0.0756 -0.6325 0.7416
v -0.0677 -0.6020 0.7103
v -0.0655 -0.5971 0.7263
v -0.0506 -0.4106 0.9818
v -0.0569 -0.3989 0.9956
v -0.0517 -0.3985 0.9959
v -0.0559 -0.4109 0.9808
v -0.0593 -0.4050 0.9891
v -0.0546 -0.3922 1.0005
v -0.0485 -0.4041 0.9903
v -0.0615 -0.6135 0.7109
v -0.0874 -0.6276 0.7747
v -0.0902 -0.5936 0.8041
v -0.0794 -0.6048 0.7950
v -0.0577 -0.8298 0.3624
v -0.0582 -0.7889 0.3465
v -0.0742 -0.8102 0.4107
v -0.0149 -0.8091 0.2134
v -0.0119 -0.8148 0.1927
v -0.0201 -0.8154 0.2091
v -0.0364 -0.3639 1.0133
v -0.0277 -0.3639 1.0193
v -0.0275 -0.3879 1.0212
v -0.0417 -0.7353 0.8166
v -0.0418 -0.6950 0.8442
v -0.0209 -0.6666 0.8383
v -0.0168 -0.8311 0.2519
v -0.0094 -0.8579 0.3320
v -0.0427 -0.8765 0.5417
v -0.0474 -0.6712 0.5593
v -0.0290 -0.4921 0.9966
v -0.0257 -0.4656 1.0109
v -0.0129 -0.4345 1.0227
v -0.0450 -0.2987 1.0559
v -0.0427 -0.5727 0.9465
v -0.0351 -0.5003 0.9720
v -0.0224 -0.5421 0.9833
v -0.0824 -0.4929 0.8948
v -0.0771 -0.4660 0.9217
v -0.0666 -0.4691 0.9096
v -0.0397 -0.8179 0.7080
v -0.0458 -0.8064 0.7222
v -0.0216 -0.7689 0.7054
v 0.0303 -0.3988 0.9881
v 0.0381 -0.3905 0.9907
v 0.0413 -0.4047 0.9731
v 0.0473 -0.6357 0.7963
v 0.0592 -0.6276 0.8030
v 0.0477 -0.8083 0.3439
v 0.0118 -0.7060 0.1921
v 0.0086 -0.6997 0.2117
v 0.0142 -0.3767 1.0272
v 0.0175 -0.3547 1.0263
v 0.0249 -0.3577 1.0194
v 0.0008 -0.6672 0.8369
v 0.0169 -0.6993 0.8410
v 0.0245 -0.7334 0.8122
v 0.0041 -0.9161 0.3415
v 0.0083 -0.8350 0.2539
v 0.0380 -0.8386 0.5729
v 0.0506 -0.8388 0.5369
v -0.0027 -0.4314 1.0215
v 0.0057 -0.4517 1.0087
v 0.0076 -0.4494 0.9914
v -0.0046 -0.5417 0.9857
v 0.0090 -0.5350 0.9673
v 0.0102 -0.5839 0.9444
v 0.0347 -0.4600 0.9079
v 0.0460 -0.4517 0.9134
v 0.0475 -0.4860 0.8918
v 0.0280 -0.7711 0.7040
v 0.0658 -0.8197 0.7075
v 0.0675 -0.8494 0.6646
v 0.0636 -0.7389 0.5634
v 0.0638 -0.7541 0.4808
v 0.0885 -0.8284 0.6930
v 0.0766 -0.7879 0.6687
v 0.0771 -0.8194 0.6350
v 0.0536 -0.7683 0.7682
v 0.0570 -0.7330 0.7433
v 0.0672 -0.7592 0.7066
v 0.0134 -0.7183 0.7730
v 0.0350 -0.7681 0.7811
v 0.0452 -0.7920 0.7457
v 0.0338 -0.4313 0.9505
v 0.0429 -0.4230 0.9519
v 0.0444 -0.4514 0.9334
v 0.0166 -0.5221 0.9494
v 0.0238 -0.4752 0.9256
v 0.0246 -0.5428 0.8965
v 0.0184 -0.4440 0.9691
v 0.0266 -0.4528 0.9576
v 0.0247 -0.4439 0.9482
v -0.0045 -0.4957 0.9918
v 0.0066 -0.4886 0.9823
v 0.0052 -0.4660 0.9813
v 0.0064 -0.2964 1.0665
v 0.0141 -0.4354 0.9972
v 0.0226 -0.4139 0.9892
v 0.0260 -0.4333 0.9725
v 0.0131 -0.3959 1.0251
v 0.0195 -0.3887 1.0147
v 0.0208 -0.3998 1.0037
v -0.0014 -0.4049 1.0397
v 0.0058 -0.4012 1.0338
v 0.0053 -0.4219 1.0246
v 0.0786 -0.8656 0.5692
v 0.0751 -0.8289 0.5462
v 0.0694 -0.8349 0.5076
v 0.0765 -0.8613 0.6296
v 0.0731 -0.8217 0.6067
v 0.0741 -0.8226 0.5764
v 0.0122 -0.7887 0.6224
v 0.0470 -0.8468 0.6352
v 0.0315 -0.8354 0.6041
v 0.0314 -0.9236 0.3278
v 0.0369 -0.8369 0.3003
v 0.0215 -0.8388 0.2472
v 0.0680 -0.9393 0.4716
v 0.0657 -0.8455 0.4333
v 0.0524 -0.8403 0.3599
v 0.0309 -0.8382 0.4775
v 0.0248 -0.9257 0.4221
v 0.0371 -0.7008 0.8314
v 0.0458 -0.6620 0.8067
v 0.0487 -0.6968 0.7761
v 0.0236 -0.6047 0.8901
v 0.0289 -0.5800 0.8688
v 0.0386 -0.6229 0.8373
v -0.0009 -0.6485 0.9271
v 0.0147 -0.6300 0.9134
v 0.0183 -0.6717 0.8752
v 0.0014 -0.3316 1.0378
v 0.0032 -0.3114 1.0506
v 0.0170 -0.3135 1.0475
v -0.0009 -0.3802 1.0371
v 0.0002 -0.3556 1.0331
v 0.0091 -0.3539 1.0313
v 0.0069 -0.7993 0.1837
v 0.0002 -0.7908 0.2076
v 0.0225 -0.6944 0.2410
v 0.0376 -0.5609 0.8593
v 0.0495 -0.5209 0.8664
v 0.0552 -0.5854 0.8330
v 0.0605 -0.7232 0.6214
v 0.0249 -0.3777 1.0102
v 0.0307 -0.3640 1.0112
v 0.0348 -0.3747 1.0014
v -0.0973 -0.6969 0.4784
v -0.0935 -0.8118 0.5417
v -0.1174 -0.6519 0.4911
v -0.1069 -0.6883 0.4839
v -0.0844 -0.6902 0.5376
v -0.0439 -0.7954 0.7545
v -0.0434 -0.7740 0.7881
v -0.0193 -0.7278 0.7755
v -0.0690 -0.7394 0.7229
v -0.0708 -0.7106 0.7540
v -0.0657 -0.7510 0.7779
v -0.0532 -0.7742 0.6763
v -0.0686 -0.7623 0.6938
v -0.0728 -0.7959 0.7161
v -0.0714 -0.4424 0.9469
v -0.0651 -0.4212 0.9705
v -0.0575 -0.4367 0.9534
v -0.0755 -0.4183 0.9897
v -0.0918 -0.4673 0.9428
v -0.0295 -0.4708 0.9820
v -0.0291 -0.4980 0.9852
v -0.0160 -0.4989 0.9926
v -0.0493 -0.4648 0.9494
v -0.0500 -0.4669 0.9584
v -0.0400 -0.4879 0.9764
v -0.0632 -0.5191 0.8918
v -0.0547 -0.4884 0.9271
v -0.0440 -0.4836 0.9569
v -0.0114 -0.2950 1.0661
v -0.0226 -0.4355 1.0218
v -0.0198 -0.4138 1.0283
v -0.0100 -0.4079 1.0386
v -0.0394 -0.4110 1.0028
v -0.0361 -0.3989 1.0102
v -0.0286 -0.4077 1.0206
v -0.0468 -0.4516 0.9738
v -0.0418 -0.4227 0.9894
v -0.0347 -0.4481 0.9998
v -0.0392 -0.8088 0.6271
v -0.0362 -0.8227 0.6732
v -0.0034 -0.7781 0.6504
v -0.0723 -0.8019 0.6012
v -0.0602 -0.7874 0.6415
v -0.0706 -0.8169 0.6632
v -0.1083 -0.7002 0.5062
v -0.0867 -0.8128 0.5579
v -0.0908 -0.8381 0.5775
v -0.0367 -0.9319 0.4049
v -0.0692 -0.9109 0.4767
v -0.0637 -0.8399 0.3755
v -0.0796 -0.8201 0.4324
v -0.1011 -0.8916 0.4654
v -0.0282 -0.8058 0.2504
v -0.0442 -0.8358 0.3030
v -0.0413 -0.9247 0.3223
v -0.0495 -0.6628 0.8768
v -0.0515 -0.6180 0.9127
v -0.0286 -0.6460 0.9273
v -0.0726 -0.5631 0.8327
v -0.0691 -0.5531 0.8614
v -0.0613 -0.5556 0.8896
v -0.0775 -0.6761 0.7826
v -0.0770 -0.6047 0.8077
v -0.0657 -0.6859 0.8352
v -0.0173 -0.3644 1.0231
v -0.0084 -0.3611 1.0292
v -0.0087 -0.3885 1.0324
v -0.0246 -0.3126 1.0463
v -0.0109 -0.3112 1.0499
v -0.0096 -0.3337 1.0362
v -0.0489 -0.3219 1.0336
v -0.0375 -0.3157 1.0406
v -0.0316 -0.3387 1.0274
v -0.0039 -0.6953 0.2070
v -0.0298 -0.8049 0.2459
v -0.0311 -0.8072 0.2386
v -0.0455 -0.7963 0.2877
v -0.0918 -0.5546 0.8337
v -0.0864 -0.5226 0.8671
v -0.0768 -0.5276 0.8511
v -0.1003 -0.5268 0.8882
v -0.0342 -0.6948 0.6648
v -0.0492 -0.3798 1.0062
v -0.0438 -0.3691 1.0089
v -0.0411 -0.3863 1.0063
v -0.0652 -0.3482 1.0210
v -0.0583 -0.3327 1.0266
v -0.0490 -0.3516 1.0158
v -0.0786 -0.3878 1.0155
v -0.0713 -0.3669 1.0185
v -0.0619 -0.3792 1.0094
v -0.0679 -0.3969 1.0031
v -0.0550 -0.3640 1.0127
v -0.0452 -0.3952 1.0013
v -0.0514 -0.6419 0.6815
v -0.1068 -0.5563 0.8525
v -0.0807 -0.5617 0.8199
v -0.0415 -0.7968 0.2941
v -0.0094 -0.8083 0.2086
v -0.0413 -0.3431 1.0214
v -0.0208 -0.3362 1.0322
v -0.0182 -0.3909 1.0266
v -0.0669 -0.7197 0.8072
v -0.0634 -0.6419 0.8615
v -0.0270 -0.6723 0.8838
v -0.0234 -0.8371 0.2512
v -0.0783 -0.9293 0.3943
v -0.0980 -0.8401 0.5294
v -0.0730 -0.8301 0.6247
v -0.0118 -0.7438 0.6025
v -0.0380 -0.4765 0.9866
v -0.0317 -0.4257 1.0126
v -0.0118 -0.4317 1.0331
v -0.0288 -0.2957 1.0624
v -0.0537 -0.5150 0.9231
v -0.0387 -0.4906 0.9723
v -0.0195 -0.4712 0.9853
v -0.0962 -0.4966 0.9166
v -0.0843 -0.4416 0.9674
v -0.0607 -0.4454 0.9349
v -0.0699 -0.8041 0.6971
v -0.0684 -0.7769 0.7460
v -0.0198 -0.7489 0.7407
v -0.0821 -0.6913 0.5414
v -0.0844 -0.8001 0.5393
v 0.0276 -0.3864 1.0003
v 0.0629 -0.6945 0.6560
v 0.0427 -0.5963 0.8268
v 0.0694 -0.5886 0.8480
v 0.0347 -0.6709 0.2898
v 0.0039 -0.6984 0.2090
v 0.0067 -0.3785 1.0332
v 0.0123 -0.3319 1.0356
v 0.0023 -0.6738 0.8828
v 0.0318 -0.6581 0.8606
v 0.0418 -0.7336 0.8007
v 0.0512 -0.9366 0.4054
v 0.0189 -0.8420 0.2505
v -0.0017 -0.7355 0.5868
v 0.0720 -0.8604 0.5998
v 0.0745 -0.8958 0.5403
v -0.0025 -0.4286 1.0330
v 0.0134 -0.4128 1.0138
v 0.0188 -0.4296 0.9780
v -0.0059 -0.4665 0.9875
v 0.0153 -0.4584 0.9711
v 0.0182 -0.5613 0.9177
v 0.0343 -0.4591 0.9296
v 0.0190 -0.7417 0.7379
v 0.0676 -0.7964 0.7319
v 0.0911 -0.8601 0.6564
v 0.0616 -0.7420 0.5315
v 0.0618 -0.7337 0.5938
v 0.0263 -0.8002 0.6584
v 0.0354 -0.4951 0.8857
v -0.0043 -0.6026 0.9653
v -0.0029 -0.4934 1.0059
v 0.0066 -0.6914 0.8049
v 0.0207 -0.3746 1.0187
v 0.0133 -0.7945 0.2163
v 0.0587 -0.8082 0.4139
v 0.0513 -0.6147 0.7673
v 0.0549 -0.6479 0.7331
v 0.0329 -0.4126 0.9713
v -0.0085 -0.7859 0.6843
v -0.0729 -0.4975 0.8783
v -0.0249 -0.5990 0.9638
v -0.0143 -0.4960 1.0098
v -0.0198 -0.6969 0.8062
v -0.0354 -0.3838 1.0128
v -0.0207 -0.8098 0.2204
v -0.0796 -0.6819 0.4198
v -0.0770 -0.6127 0.7713
v -0.0702 -0.5806 0.7421
v -0.0533 -0.4225 0.9733
vt 0.3789 0.4308
vt 0.3788 0.4301
vt 0.3791 0.4297
vt 0.3792 0.4303
vt 0.3774 0.4169
vt 0.3775 0.4167
vt 0.3774 0.4180
vt 0.3773 0.4181
vt 0.3773 0.4189
vt 0.3775 0.4188
vt 0.3785 0.3964
vt 0.3787 0.3966
vt 0.3785 0.3975
vt 0.3783 0.3974
vt 0.3800 0.3899
vt 0.3801 0.3901
vt 0.3800 0.3901
vt 0.3799 0.3900
vt 0.3797 0.4354
vt 0.3796 0.4353
vt 0.3798 0.4348
vt 0.3799 0.4349
vt 0.3802 0.4178
vt 0.3802 0.4170
vt 0.3806 0.4169
vt 0.3806 0.4176
vt 0.3805 0.4296
vt 0.3805 0.4287
vt 0.3807 0.4286
vt 0.3807 0.4294
vt 0.3804 0.4238
vt 0.3804 0.4230
vt 0.3807 0.4229
vt 0.3807 0.4236
vt 0.3780 0.4251
vt 0.3779 0.4244
vt 0.3781 0.4241
vt 0.3782 0.4248
vt 0.3803 0.4093
vt 0.3803 0.4083
vt 0.3806 0.4083
vt 0.3806 0.4094
vt 0.3824 0.4309
vt 0.3822 0.4304
vt 0.3823 0.4298
vt 0.3826 0.4302
vt 0.3839 0.4169
vt 0.3840 0.4182
vt 0.3839 0.4180
vt 0.3838 0.4167
vt 0.3840 0.4189
vt 0.3838 0.4188
vt 0.3826 0.3964
vt 0.3828 0.3974
vt 0.3826 0.3975
vt 0.3824 0.3966
vt 0.3810 0.3899
vt 0.3811 0.3900
vt 0.3810 0.3901
vt 0.3809 0.3901
vt 0.3816 0.4354
vt 0.3814 0.4349
vt 0.3815 0.4348
vt 0.3817 0.4353
vt 0.3810 0.4178
vt 0.3810 0.4170
vt 0.3809 0.4296
vt 0.3809 0.4288
vt 0.3810 0.4238
vt 0.3810 0.4231
vt 0.3833 0.4252
vt 0.3831 0.4249
vt 0.3832 0.4242
vt 0.3834 0.4245
vt 0.3809 0.4093
vt 0.3809 0.4083
vt 0.3831 0.4066
vt 0.3831 0.4079
vt 0.3830 0.4079
vt 0.3830 0.4066
vt 0.3829 0.4013
vt 0.3830 0.4026
vt 0.3828 0.4027
vt 0.3827 0.4014
vt 0.3822 0.4092
vt 0.3819 0.4093
vt 0.3818 0.4081
vt 0.3821 0.4081
vt 0.3825 0.4140
vt 0.3821 0.4139
vt 0.3820 0.4128
vt 0.3824 0.4128
vt 0.3810 0.4137
vt 0.3806 0.4137
vt 0.3806 0.4126
vt 0.3810 0.4126
vt 0.3829 0.4281
vt 0.3826 0.4277
vt 0.3827 0.4270
vt 0.3830 0.4273
vt 0.3822 0.4244
vt 0.3819 0.4243
vt 0.3819 0.4236
vt 0.3823 0.4237
vt 0.3819 0.4272
vt 0.3817 0.4271
vt 0.3817 0.4264
vt 0.3820 0.4265
vt 0.3809 0.4266
vt 0.3807 0.4265
vt 0.3807 0.4258
vt 0.3810 0.4259
vt 0.3816 0.4301
vt 0.3814 0.4299
vt 0.3815 0.4292
vt 0.3817 0.4293
vt 0.3814 0.4329
vt 0.3813 0.4329
vt 0.3813 0.4321
vt 0.3814 0.4322
vt 0.3808 0.4328
vt 0.3807 0.4328
vt 0.3807 0.4320
vt 0.3808 0.4320
vt 0.3818 0.3993
vt 0.3816 0.3995
vt 0.3816 0.3982
vt 0.3818 0.3981
vt 0.3820 0.4043
vt 0.3817 0.4044
vt 0.3817 0.4032
vt 0.3820 0.4031
vt 0.3809 0.3910
vt 0.3809 0.3910
vt 0.3808 0.3900
vt 0.3808 0.3900
vt 0.3814 0.3950
vt 0.3813 0.3952
vt 0.3812 0.3941
vt 0.3813 0.3940
vt 0.3826 0.4184
vt 0.3822 0.4182
vt 0.3823 0.4175
vt 0.3827 0.4176
vt 0.3824 0.4214
vt 0.3821 0.4213
vt 0.3821 0.4205
vt 0.3825 0.4207
vt 0.3810 0.4208
vt 0.3807 0.4207
vt 0.3806 0.4199
vt 0.3810 0.4200
vt 0.3814 0.4380
vt 0.3813 0.4375
vt 0.3815 0.4374
vt 0.3816 0.4379
vt 0.3811 0.4357
vt 0.3810 0.4351
vt 0.3811 0.4351
vt 0.3812 0.4356
vt 0.3807 0.3897
vt 0.3808 0.3898
vt 0.3808 0.3900
vt 0.3807 0.3900
vt 0.3817 0.3927
vt 0.3819 0.3937
vt 0.3818 0.3938
vt 0.3816 0.3929
vt 0.3844 0.4230
vt 0.3842 0.4228
vt 0.3842 0.4219
vt 0.3844 0.4221
vt 0.3836 0.4221
vt 0.3835 0.4219
vt 0.3835 0.4211
vt 0.3837 0.4213
vt 0.3820 0.4334
vt 0.3818 0.4329
vt 0.3819 0.4323
vt 0.3821 0.4328
vt 0.3782 0.4013
vt 0.3784 0.4014
vt 0.3784 0.4027
vt 0.3782 0.4026
vt 0.3802 0.4137
vt 0.3802 0.4126
vt 0.3788 0.4140
vt 0.3788 0.4128
vt 0.3792 0.4128
vt 0.3791 0.4139
vt 0.3790 0.4092
vt 0.3791 0.4081
vt 0.3794 0.4081
vt 0.3794 0.4093
vt 0.3785 0.4280
vt 0.3784 0.4272
vt 0.3786 0.4269
vt 0.3787 0.4276
vt 0.3776 0.4294
vt 0.3775 0.4286
vt 0.3777 0.4283
vt 0.3778 0.4290
vt 0.3772 0.4262
vt 0.3771 0.4254
vt 0.3773 0.4252
vt 0.3774 0.4259
vt 0.3805 0.4266
vt 0.3804 0.4259
vt 0.3795 0.4272
vt 0.3794 0.4265
vt 0.3796 0.4263
vt 0.3797 0.4270
vt 0.3792 0.4244
vt 0.3791 0.4236
vt 0.3794 0.4235
vt 0.3795 0.4242
vt 0.3796 0.4405
vt 0.3792 0.4403
vt 0.3794 0.4396
vt 0.3797 0.4398
vt 0.3806 0.4328
vt 0.3805 0.4320
vt 0.3800 0.4329
vt 0.3799 0.4321
vt 0.3801 0.4321
vt 0.3801 0.4328
vt 0.3798 0.4300
vt 0.3797 0.4293
vt 0.3799 0.4291
vt 0.3799 0.4299
vt 0.3792 0.4043
vt 0.3792 0.4031
vt 0.3795 0.4032
vt 0.3794 0.4044
vt 0.3792 0.3993
vt 0.3792 0.3981
vt 0.3795 0.3982
vt 0.3795 0.3995
vt 0.3796 0.3950
vt 0.3797 0.3940
vt 0.3799 0.3941
vt 0.3798 0.3952
vt 0.3801 0.3910
vt 0.3802 0.3900
vt 0.3802 0.3900
vt 0.3802 0.3910
vt 0.3803 0.4208
vt 0.3803 0.4200
vt 0.3789 0.4214
vt 0.3788 0.4206
vt 0.3792 0.4205
vt 0.3792 0.4212
vt 0.3787 0.4183
vt 0.3786 0.4176
vt 0.3790 0.4175
vt 0.3791 0.4182
vt 0.3803 0.4357
vt 0.3801 0.4356
vt 0.3802 0.4351
vt 0.3804 0.4351
vt 0.3800 0.4381
vt 0.3797 0.4379
vt 0.3798 0.4374
vt 0.3800 0.4375
vt 0.3790 0.4376
vt 0.3787 0.4374
vt 0.3789 0.4369
vt 0.3792 0.4370
vt 0.3803 0.3897
vt 0.3803 0.3900
vt 0.3802 0.3900
vt 0.3802 0.3898
vt 0.3793 0.3927
vt 0.3794 0.3929
vt 0.3792 0.3938
vt 0.3791 0.3937
vt 0.3777 0.4220
vt 0.3776 0.4213
vt 0.3778 0.4211
vt 0.3778 0.4218
vt 0.3778 0.4117
vt 0.3779 0.4117
vt 0.3778 0.4130
vt 0.3777 0.4130
vt 0.3793 0.4334
vt 0.3792 0.4327
vt 0.3794 0.4322
vt 0.3795 0.4329
vt 0.3784 0.4353
vt 0.3783 0.4346
vt 0.3785 0.4341
vt 0.3786 0.4348
vt 0.3780 0.4325
vt 0.3778 0.4318
vt 0.3781 0.4313
vt 0.3782 0.4320
vt 0.3782 0.4339
vt 0.3781 0.4332
vt 0.3783 0.4327
vt 0.3784 0.4334
vt 0.3777 0.4348
vt 0.3776 0.4341
vt 0.3778 0.4336
vt 0.3779 0.4343
vt 0.3786 0.4367
vt 0.3785 0.4360
vt 0.3787 0.4355
vt 0.3788 0.4362
vt 0.3782 0.4377
vt 0.3781 0.4370
vt 0.3783 0.4365
vt 0.3784 0.4372
vt 0.3780 0.4363
vt 0.3778 0.4355
vt 0.3781 0.4351
vt 0.3782 0.4358
vt 0.3795 0.4347
vt 0.3794 0.4340
vt 0.3796 0.4335
vt 0.3797 0.4342
vt 0.3791 0.4357
vt 0.3790 0.4350
vt 0.3792 0.4345
vt 0.3793 0.4352
vt 0.3789 0.4343
vt 0.3788 0.4337
vt 0.3790 0.4332
vt 0.3791 0.4339
vt 0.3780 0.4092
vt 0.3781 0.4092
vt 0.3780 0.4104
vt 0.3779 0.4105
vt 0.3771 0.4246
vt 0.3770 0.4237
vt 0.3772 0.4235
vt 0.3772 0.4243
vt 0.3778 0.4236
vt 0.3777 0.4228
vt 0.3779 0.4226
vt 0.3780 0.4233
vt 0.3774 0.4241
vt 0.3774 0.4233
vt 0.3776 0.4230
vt 0.3776 0.4238
vt 0.3773 0.4225
vt 0.3772 0.4216
vt 0.3774 0.4215
vt 0.3775 0.4222
vt 0.3791 0.3925
vt 0.3792 0.3926
vt 0.3790 0.3935
vt 0.3789 0.3934
vt 0.3796 0.3906
vt 0.3797 0.3907
vt 0.3794 0.3917
vt 0.3794 0.3915
vt 0.3797 0.3909
vt 0.3798 0.3910
vt 0.3796 0.3920
vt 0.3795 0.3918
vt 0.3804 0.3896
vt 0.3804 0.3899
vt 0.3804 0.3899
vt 0.3804 0.3897
vt 0.3795 0.4378
vt 0.3792 0.4377
vt 0.3794 0.4371
vt 0.3796 0.4372
vt 0.3792 0.4389
vt 0.3789 0.4388
vt 0.3791 0.4382
vt 0.3793 0.4384
vt 0.3786 0.4386
vt 0.3783 0.4385
vt 0.3785 0.4380
vt 0.3788 0.4381
vt 0.3805 0.4383
vt 0.3802 0.4382
vt 0.3803 0.4376
vt 0.3805 0.4377
vt 0.3804 0.4395
vt 0.3801 0.4394
vt 0.3802 0.4388
vt 0.3804 0.4389
vt 0.3798 0.4392
vt 0.3795 0.4391
vt 0.3796 0.4385
vt 0.3799 0.4386
vt 0.3806 0.4358
vt 0.3804 0.4358
vt 0.3805 0.4352
vt 0.3806 0.4352
vt 0.3805 0.4371
vt 0.3803 0.4370
vt 0.3804 0.4364
vt 0.3805 0.4365
vt 0.3801 0.4369
vt 0.3799 0.4368
vt 0.3800 0.4362
vt 0.3802 0.4363
vt 0.3788 0.4199
vt 0.3787 0.4191
vt 0.3791 0.4190
vt 0.3791 0.4197
vt 0.3780 0.4201
vt 0.3780 0.4194
vt 0.3783 0.4192
vt 0.3784 0.4200
vt 0.3779 0.4186
vt 0.3778 0.4179
vt 0.3782 0.4177
vt 0.3783 0.4185
vt 0.3790 0.4229
vt 0.3790 0.4221
vt 0.3793 0.4220
vt 0.3794 0.4227
vt 0.3783 0.4232
vt 0.3783 0.4224
vt 0.3786 0.4223
vt 0.3787 0.4230
vt 0.3782 0.4217
vt 0.3781 0.4209
vt 0.3785 0.4208
vt 0.3785 0.4215
vt 0.3804 0.4223
vt 0.3803 0.4215
vt 0.3807 0.4214
vt 0.3807 0.4222
vt 0.3797 0.4226
vt 0.3796 0.4218
vt 0.3800 0.4217
vt 0.3800 0.4224
vt 0.3796 0.4211
vt 0.3796 0.4203
vt 0.3799 0.4202
vt 0.3800 0.4209
vt 0.3798 0.3930
vt 0.3800 0.3920
vt 0.3801 0.3921
vt 0.3800 0.3931
vt 0.3796 0.3929
vt 0.3797 0.3920
vt 0.3798 0.3920
vt 0.3797 0.3930
vt 0.3799 0.3910
vt 0.3801 0.3901
vt 0.3801 0.3900
vt 0.3800 0.3910
vt 0.3794 0.3971
vt 0.3795 0.3961
vt 0.3797 0.3962
vt 0.3796 0.3972
vt 0.3789 0.3967
vt 0.3791 0.3958
vt 0.3793 0.3959
vt 0.3791 0.3969
vt 0.3792 0.3948
vt 0.3794 0.3939
vt 0.3796 0.3940
vt 0.3794 0.3949
vt 0.3798 0.3974
vt 0.3799 0.3963
vt 0.3801 0.3965
vt 0.3800 0.3975
vt 0.3800 0.3953
vt 0.3800 0.3942
vt 0.3802 0.3943
vt 0.3801 0.3954
vt 0.3792 0.4018
vt 0.3792 0.4006
vt 0.3795 0.4007
vt 0.3795 0.4019
vt 0.3787 0.4015
vt 0.3787 0.4003
vt 0.3789 0.4004
vt 0.3789 0.4017
vt 0.3787 0.3990
vt 0.3788 0.3977
vt 0.3790 0.3979
vt 0.3790 0.3991
vt 0.3791 0.4068
vt 0.3791 0.4056
vt 0.3794 0.4056
vt 0.3794 0.4069
vt 0.3785 0.4067
vt 0.3786 0.4054
vt 0.3789 0.4055
vt 0.3788 0.4067
vt 0.3786 0.4041
vt 0.3786 0.4028
vt 0.3789 0.4029
vt 0.3789 0.4042
vt 0.3803 0.4071
vt 0.3803 0.4059
vt 0.3806 0.4060
vt 0.3806 0.4071
vt 0.3797 0.4069
vt 0.3797 0.4057
vt 0.3800 0.4058
vt 0.3800 0.4070
vt 0.3797 0.4045
vt 0.3797 0.4033
vt 0.3800 0.4034
vt 0.3800 0.4046
vt 0.3799 0.4314
vt 0.3798 0.4307
vt 0.3800 0.4306
vt 0.3800 0.4314
vt 0.3795 0.4315
vt 0.3795 0.4309
vt 0.3796 0.4308
vt 0.3797 0.4315
vt 0.3794 0.4302
vt 0.3793 0.4296
vt 0.3795 0.4294
vt 0.3796 0.4301
vt 0.3801 0.4343
vt 0.3800 0.4336
vt 0.3802 0.4336
vt 0.3802 0.4343
vt 0.3798 0.4342
vt 0.3798 0.4335
vt 0.3799 0.4336
vt 0.3800 0.4342
vt 0.3797 0.4329
vt 0.3796 0.4322
vt 0.3798 0.4322
vt 0.3798 0.4329
vt 0.3806 0.4344
vt 0.3806 0.4336
vt 0.3807 0.4336
vt 0.3807 0.4345
vt 0.3803 0.4344
vt 0.3803 0.4336
vt 0.3804 0.4336
vt 0.3805 0.4344
vt 0.3803 0.4328
vt 0.3802 0.4321
vt 0.3804 0.4320
vt 0.3804 0.4328
vt 0.3803 0.4408
vt 0.3800 0.4406
vt 0.3801 0.4400
vt 0.3804 0.4401
vt 0.3793 0.4258
vt 0.3792 0.4251
vt 0.3795 0.4249
vt 0.3796 0.4256
vt 0.3788 0.4261
vt 0.3786 0.4254
vt 0.3789 0.4252
vt 0.3790 0.4259
vt 0.3785 0.4247
vt 0.3784 0.4240
vt 0.3788 0.4238
vt 0.3788 0.4245
vt 0.3796 0.4286
vt 0.3795 0.4279
vt 0.3798 0.4277
vt 0.3798 0.4284
vt 0.3792 0.4289
vt 0.3791 0.4282
vt 0.3793 0.4280
vt 0.3794 0.4287
vt 0.3790 0.4275
vt 0.3789 0.4268
vt 0.3791 0.4266
vt 0.3792 0.4273
vt 0.3805 0.4280
vt 0.3805 0.4273
vt 0.3807 0.4272
vt 0.3807 0.4279
vt 0.3801 0.4283
vt 0.3800 0.4276
vt 0.3802 0.4275
vt 0.3803 0.4282
vt 0.3800 0.4269
vt 0.3799 0.4262
vt 0.3802 0.4260
vt 0.3802 0.4267
vt 0.3774 0.4278
vt 0.3773 0.4270
vt 0.3775 0.4267
vt 0.3776 0.4275
vt 0.3778 0.4310
vt 0.3777 0.4302
vt 0.3779 0.4298
vt 0.3780 0.4306
vt 0.3787 0.4294
vt 0.3786 0.4287
vt 0.3788 0.4283
vt 0.3790 0.4290
vt 0.3782 0.4302
vt 0.3781 0.4294
vt 0.3784 0.4290
vt 0.3785 0.4298
vt 0.3780 0.4287
vt 0.3779 0.4279
vt 0.3781 0.4276
vt 0.3783 0.4283
vt 0.3789 0.4116
vt 0.3790 0.4104
vt 0.3793 0.4104
vt 0.3792 0.4116
vt 0.3782 0.4117
vt 0.3783 0.4104
vt 0.3787 0.4104
vt 0.3786 0.4116
vt 0.3784 0.4092
vt 0.3785 0.4079
vt 0.3788 0.4080
vt 0.3787 0.4092
vt 0.3787 0.4164
vt 0.3787 0.4152
vt 0.3791 0.4151
vt 0.3791 0.4163
vt 0.3779 0.4166
vt 0.3780 0.4154
vt 0.3784 0.4153
vt 0.3783 0.4165
vt 0.3781 0.4141
vt 0.3781 0.4129
vt 0.3785 0.4129
vt 0.3784 0.4141
vt 0.3802 0.4159
vt 0.3802 0.4148
vt 0.3806 0.4148
vt 0.3806 0.4158
vt 0.3794 0.4162
vt 0.3795 0.4150
vt 0.3799 0.4149
vt 0.3798 0.4161
vt 0.3795 0.4139
vt 0.3795 0.4127
vt 0.3799 0.4127
vt 0.3799 0.4138
vt 0.3780 0.3984
vt 0.3781 0.3986
vt 0.3781 0.3999
vt 0.3779 0.3998
vt 0.3783 0.3987
vt 0.3785 0.3988
vt 0.3784 0.4001
vt 0.3783 0.4000
vt 0.3777 0.3982
vt 0.3778 0.3983
vt 0.3778 0.3997
vt 0.3776 0.3996
vt 0.3825 0.4344
vt 0.3823 0.4339
vt 0.3824 0.4332
vt 0.3826 0.4337
vt 0.3823 0.4357
vt 0.3820 0.4352
vt 0.3821 0.4345
vt 0.3824 0.4350
vt 0.3818 0.4347
vt 0.3816 0.4342
vt 0.3817 0.4336
vt 0.3819 0.4340
vt 0.3833 0.4092
vt 0.3834 0.4105
vt 0.3832 0.4104
vt 0.3831 0.4092
vt 0.3840 0.4225
vt 0.3838 0.4223
vt 0.3839 0.4215
vt 0.3841 0.4217
vt 0.3839 0.4242
vt 0.3837 0.4239
vt 0.3838 0.4231
vt 0.3840 0.4234
vt 0.3835 0.4237
vt 0.3833 0.4234
vt 0.3834 0.4227
vt 0.3836 0.4229
vt 0.3813 0.3909
vt 0.3815 0.3918
vt 0.3814 0.3920
vt 0.3812 0.3910
vt 0.3806 0.3896
vt 0.3806 0.3897
vt 0.3806 0.3899
vt 0.3806 0.3899
vt 0.3808 0.3893
vt 0.3808 0.3894
vt 0.3808 0.3896
vt 0.3807 0.3895
vt 0.3812 0.4369
vt 0.3812 0.4363
vt 0.3813 0.4362
vt 0.3814 0.4368
vt 0.3809 0.4371
vt 0.3809 0.4365
vt 0.3810 0.4364
vt 0.3811 0.4370
vt 0.3808 0.4359
vt 0.3808 0.4352
vt 0.3809 0.4352
vt 0.3810 0.4358
vt 0.3810 0.4395
vt 0.3810 0.4389
vt 0.3812 0.4388
vt 0.3813 0.4394
vt 0.3809 0.4383
vt 0.3809 0.4377
vt 0.3811 0.4376
vt 0.3812 0.4382
vt 0.3817 0.4211
vt 0.3814 0.4210
vt 0.3814 0.4202
vt 0.3817 0.4204
vt 0.3817 0.4226
vt 0.3813 0.4225
vt 0.3813 0.4217
vt 0.3817 0.4219
vt 0.3810 0.4223
vt 0.3810 0.4216
vt 0.3831 0.4217
vt 0.3828 0.4216
vt 0.3828 0.4208
vt 0.3832 0.4210
vt 0.3830 0.4233
vt 0.3826 0.4231
vt 0.3827 0.4223
vt 0.3830 0.4225
vt 0.3823 0.4229
vt 0.3820 0.4228
vt 0.3820 0.4220
vt 0.3824 0.4222
vt 0.3834 0.4186
vt 0.3830 0.4185
vt 0.3831 0.4177
vt 0.3835 0.4179
vt 0.3833 0.4202
vt 0.3829 0.4200
vt 0.3830 0.4193
vt 0.3833 0.4194
vt 0.3825 0.4199
vt 0.3821 0.4197
vt 0.3822 0.4190
vt 0.3826 0.4191
vt 0.3811 0.3953
vt 0.3809 0.3954
vt 0.3808 0.3943
vt 0.3810 0.3942
vt 0.3812 0.3974
vt 0.3810 0.3975
vt 0.3809 0.3965
vt 0.3811 0.3963
vt 0.3818 0.3948
vt 0.3816 0.3949
vt 0.3815 0.3940
vt 0.3816 0.3939
vt 0.3822 0.3967
vt 0.3819 0.3969
vt 0.3818 0.3959
vt 0.3820 0.3958
vt 0.3817 0.3971
vt 0.3814 0.3972
vt 0.3814 0.3962
vt 0.3816 0.3961
vt 0.3811 0.3910
vt 0.3810 0.3910
vt 0.3809 0.3900
vt 0.3809 0.3901
vt 0.3815 0.3929
vt 0.3813 0.3930
vt 0.3812 0.3920
vt 0.3813 0.3920
vt 0.3812 0.3930
vt 0.3810 0.3931
vt 0.3810 0.3921
vt 0.3811 0.3920
vt 0.3814 0.4045
vt 0.3811 0.4046
vt 0.3811 0.4034
vt 0.3814 0.4033
vt 0.3815 0.4069
vt 0.3812 0.4070
vt 0.3812 0.4058
vt 0.3814 0.4057
vt 0.3809 0.4071
vt 0.3809 0.4059
vt 0.3826 0.4041
vt 0.3823 0.4042
vt 0.3822 0.4029
vt 0.3825 0.4028
vt 0.3827 0.4067
vt 0.3824 0.4067
vt 0.3823 0.4055
vt 0.3826 0.4054
vt 0.3821 0.4068
vt 0.3818 0.4069
vt 0.3817 0.4056
vt 0.3820 0.4056
vt 0.3824 0.3990
vt 0.3821 0.3991
vt 0.3821 0.3979
vt 0.3823 0.3977
vt 0.3825 0.4015
vt 0.3822 0.4017
vt 0.3822 0.4004
vt 0.3824 0.4003
vt 0.3819 0.4018
vt 0.3816 0.4019
vt 0.3816 0.4007
vt 0.3819 0.4006
vt 0.3811 0.4328
vt 0.3810 0.4328
vt 0.3810 0.4320
vt 0.3812 0.4321
vt 0.3810 0.4344
vt 0.3809 0.4344
vt 0.3809 0.4336
vt 0.3811 0.4336
vt 0.3808 0.4344
vt 0.3808 0.4336
vt 0.3817 0.4329
vt 0.3815 0.4329
vt 0.3816 0.4322
vt 0.3818 0.4323
vt 0.3815 0.4342
vt 0.3814 0.4342
vt 0.3814 0.4336
vt 0.3816 0.4336
vt 0.3813 0.4343
vt 0.3812 0.4343
vt 0.3812 0.4336
vt 0.3813 0.4336
vt 0.3820 0.4303
vt 0.3818 0.4302
vt 0.3819 0.4295
vt 0.3821 0.4297
vt 0.3818 0.4316
vt 0.3817 0.4315
vt 0.3818 0.4309
vt 0.3819 0.4310
vt 0.3815 0.4315
vt 0.3813 0.4314
vt 0.3814 0.4307
vt 0.3816 0.4308
vt 0.3810 0.4408
vt 0.3810 0.4401
vt 0.3813 0.4400
vt 0.3814 0.4406
vt 0.3814 0.4269
vt 0.3812 0.4268
vt 0.3812 0.4261
vt 0.3815 0.4262
vt 0.3813 0.4283
vt 0.3811 0.4282
vt 0.3812 0.4275
vt 0.3814 0.4276
vt 0.3809 0.4280
vt 0.3809 0.4273
vt 0.3824 0.4275
vt 0.3822 0.4274
vt 0.3822 0.4267
vt 0.3825 0.4268
vt 0.3822 0.4289
vt 0.3820 0.4288
vt 0.3821 0.4281
vt 0.3823 0.4282
vt 0.3818 0.4286
vt 0.3816 0.4285
vt 0.3816 0.4278
vt 0.3818 0.4279
vt 0.3828 0.4247
vt 0.3825 0.4246
vt 0.3826 0.4239
vt 0.3829 0.4240
vt 0.3826 0.4261
vt 0.3823 0.4260
vt 0.3824 0.4253
vt 0.3827 0.4254
vt 0.3821 0.4258
vt 0.3818 0.4257
vt 0.3818 0.4250
vt 0.3821 0.4251
vt 0.3833 0.4288
vt 0.3831 0.4284
vt 0.3832 0.4277
vt 0.3834 0.4280
vt 0.3831 0.4303
vt 0.3829 0.4299
vt 0.3830 0.4292
vt 0.3832 0.4295
vt 0.3827 0.4295
vt 0.3824 0.4291
vt 0.3825 0.4284
vt 0.3828 0.4288
vt 0.3817 0.4139
vt 0.3813 0.4138
vt 0.3813 0.4127
vt 0.3817 0.4127
vt 0.3818 0.4162
vt 0.3814 0.4161
vt 0.3814 0.4149
vt 0.3818 0.4150
vt 0.3810 0.4159
vt 0.3810 0.4148
vt 0.3832 0.4141
vt 0.3828 0.4141
vt 0.3827 0.4129
vt 0.3831 0.4129
vt 0.3834 0.4166
vt 0.3830 0.4165
vt 0.3829 0.4153
vt 0.3833 0.4154
vt 0.3826 0.4164
vt 0.3822 0.4163
vt 0.3821 0.4151
vt 0.3825 0.4152
vt 0.3828 0.4092
vt 0.3825 0.4092
vt 0.3824 0.4080
vt 0.3827 0.4079
vt 0.3830 0.4117
vt 0.3827 0.4116
vt 0.3826 0.4104
vt 0.3829 0.4104
vt 0.3823 0.4116
vt 0.3820 0.4116
vt 0.3819 0.4104
vt 0.3822 0.4104
vt 0.3828 0.3987
vt 0.3829 0.4000
vt 0.3827 0.4001
vt 0.3827 0.3988
vt 0.3830 0.4039
vt 0.3831 0.4053
vt 0.3829 0.4053
vt 0.3828 0.4040
vt 0.3815 0.4093
vt 0.3812 0.4093
vt 0.3812 0.4082
vt 0.3815 0.4082
vt 0.3816 0.4116
vt 0.3813 0.4116
vt 0.3813 0.4104
vt 0.3816 0.4104
vt 0.3809 0.4115
vt 0.3806 0.4115
vt 0.3806 0.4105
vt 0.3809 0.4104
vt 0.3837 0.4257
vt 0.3835 0.4255
vt 0.3836 0.4247
vt 0.3838 0.4250
vt 0.3835 0.4273
vt 0.3833 0.4269
vt 0.3834 0.4262
vt 0.3836 0.4265
vt 0.3831 0.4266
vt 0.3829 0.4263
vt 0.3830 0.4256
vt 0.3832 0.4259
vt 0.3816 0.4241
vt 0.3813 0.4239
vt 0.3813 0.4232
vt 0.3816 0.4234
vt 0.3815 0.4255
vt 0.3812 0.4254
vt 0.3813 0.4246
vt 0.3816 0.4248
vt 0.3810 0.4252
vt 0.3807 0.4250
vt 0.3807 0.4243
vt 0.3810 0.4245
vt 0.3813 0.4298
vt 0.3811 0.4297
vt 0.3811 0.4289
vt 0.3813 0.4290
vt 0.3812 0.4313
vt 0.3810 0.4313
vt 0.3810 0.4305
vt 0.3812 0.4306
vt 0.3809 0.4312
vt 0.3807 0.4311
vt 0.3807 0.4303
vt 0.3809 0.4304
vt 0.3813 0.3997
vt 0.3810 0.3998
vt 0.3810 0.3986
vt 0.3813 0.3984
vt 0.3814 0.4021
vt 0.3811 0.4022
vt 0.3811 0.4010
vt 0.3813 0.4009
vt 0.3808 0.3910
vt 0.3807 0.3910
vt 0.3806 0.3899
vt 0.3807 0.3900
vt 0.3809 0.3931
vt 0.3808 0.3932
vt 0.3807 0.3921
vt 0.3808 0.3921
vt 0.3818 0.4181
vt 0.3814 0.4179
vt 0.3814 0.4172
vt 0.3818 0.4173
vt 0.3818 0.4196
vt 0.3814 0.4194
vt 0.3814 0.4187
vt 0.3818 0.4188
vt 0.3810 0.4193
vt 0.3806 0.4191
vt 0.3806 0.4184
vt 0.3810 0.4185
vt 0.3820 0.4365
vt 0.3818 0.4359
vt 0.3819 0.4359
vt 0.3821 0.4364
vt 0.3816 0.4367
vt 0.3815 0.4361
vt 0.3816 0.4360
vt 0.3818 0.4366
vt 0.3813 0.4356
vt 0.3812 0.4350
vt 0.3813 0.4349
vt 0.3815 0.4355
vt 0.3809 0.3898
vt 0.3809 0.3899
vt 0.3809 0.3900
vt 0.3808 0.3900
vt 0.3809 0.3895
vt 0.3810 0.3895
vt 0.3810 0.3897
vt 0.3809 0.3896
vt 0.3821 0.3946
vt 0.3823 0.3955
vt 0.3822 0.3957
vt 0.3820 0.3947
vt 0.3838 0.4205
vt 0.3836 0.4203
vt 0.3837 0.4196
vt 0.3839 0.4197
vt 0.3829 0.4317
vt 0.3827 0.4313
vt 0.3828 0.4306
vt 0.3830 0.4310
vt 0.3827 0.4330
vt 0.3825 0.4326
vt 0.3826 0.4319
vt 0.3828 0.4324
vt 0.3822 0.4321
vt 0.3820 0.4317
vt 0.3821 0.4311
vt 0.3823 0.4315
vt 0.3803 0.4115
vt 0.3803 0.4104
vt 0.3796 0.4116
vt 0.3796 0.4104
vt 0.3799 0.4104
vt 0.3799 0.4116
vt 0.3797 0.4093
vt 0.3797 0.4082
vt 0.3800 0.4082
vt 0.3800 0.4093
vt 0.3783 0.4265
vt 0.3781 0.4258
vt 0.3784 0.4255
vt 0.3785 0.4262
vt 0.3778 0.4272
vt 0.3777 0.4264
vt 0.3779 0.4261
vt 0.3780 0.4268
vt 0.3776 0.4256
vt 0.3775 0.4249
vt 0.3777 0.4246
vt 0.3778 0.4254
vt 0.3804 0.4252
vt 0.3804 0.4245
vt 0.3799 0.4255
vt 0.3798 0.4248
vt 0.3801 0.4246
vt 0.3801 0.4253
vt 0.3798 0.4241
vt 0.3797 0.4234
vt 0.3801 0.4232
vt 0.3801 0.4239
vt 0.3789 0.4401
vt 0.3785 0.4400
vt 0.3788 0.4393
vt 0.3791 0.4395
vt 0.3805 0.4312
vt 0.3805 0.4304
vt 0.3802 0.4313
vt 0.3802 0.4305
vt 0.3803 0.4305
vt 0.3804 0.4312
vt 0.3801 0.4298
vt 0.3801 0.4290
vt 0.3803 0.4289
vt 0.3803 0.4297
vt 0.3797 0.4021
vt 0.3797 0.4009
vt 0.3800 0.4010
vt 0.3800 0.4022
vt 0.3797 0.3997
vt 0.3798 0.3984
vt 0.3800 0.3986
vt 0.3800 0.3998
vt 0.3802 0.3910
vt 0.3803 0.3900
vt 0.3804 0.3899
vt 0.3803 0.3910
vt 0.3803 0.4193
vt 0.3802 0.4185
vt 0.3795 0.4196
vt 0.3795 0.4188
vt 0.3799 0.4187
vt 0.3799 0.4194
vt 0.3794 0.4181
vt 0.3794 0.4173
vt 0.3798 0.4172
vt 0.3798 0.4179
vt 0.3800 0.4356
vt 0.3799 0.4355
vt 0.3800 0.4349
vt 0.3801 0.4350
vt 0.3797 0.4367
vt 0.3795 0.4366
vt 0.3797 0.4360
vt 0.3799 0.4361
vt 0.3794 0.4365
vt 0.3792 0.4364
vt 0.3794 0.4359
vt 0.3795 0.4359
vt 0.3799 0.3896
vt 0.3800 0.3898
vt 0.3799 0.3898
vt 0.3798 0.3897
vt 0.3801 0.3894
vt 0.3801 0.3896
vt 0.3800 0.3897
vt 0.3800 0.3895
vt 0.3801 0.3898
vt 0.3802 0.3900
vt 0.3801 0.3900
vt 0.3801 0.3899
vt 0.3782 0.3962
vt 0.3784 0.3963
vt 0.3782 0.3972
vt 0.3780 0.3971
vt 0.3789 0.3946
vt 0.3791 0.3947
vt 0.3789 0.3957
vt 0.3787 0.3955
vt 0.3775 0.4205
vt 0.3774 0.4197
vt 0.3776 0.4195
vt 0.3777 0.4203
vt 0.3772 0.4208
vt 0.3771 0.4200
vt 0.3773 0.4199
vt 0.3773 0.4207
vt 0.3776 0.4143
vt 0.3777 0.4142
vt 0.3776 0.4155
vt 0.3775 0.4156
vt 0.3791 0.4321
vt 0.3790 0.4314
vt 0.3793 0.4310
vt 0.3794 0.4316
vt 0.3787 0.4330
vt 0.3786 0.4323
vt 0.3788 0.4319
vt 0.3789 0.4325
vt 0.3785 0.4316
vt 0.3783 0.4309
vt 0.3786 0.4305
vt 0.3787 0.4312
vt 0.3783 0.4327
vt 0.3782 0.4320
vt 0.3785 0.4341
vt 0.3784 0.4334
vt 0.3774 0.4144
vt 0.3773 0.4157
vt 0.3775 0.4131
vt 0.3777 0.4130
vt 0.3771 0.4192
vt 0.3772 0.4191
vt 0.3788 0.3945
vt 0.3786 0.3954
vt 0.3790 0.3935
vt 0.3791 0.3937
vt 0.3787 0.3943
vt 0.3802 0.3896
vt 0.3802 0.3898
vt 0.3798 0.3894
vt 0.3798 0.3896
vt 0.3799 0.3893
vt 0.3800 0.3895
vt 0.3794 0.4371
vt 0.3792 0.4370
vt 0.3798 0.4374
vt 0.3796 0.4372
vt 0.3791 0.4190
vt 0.3791 0.4182
vt 0.3792 0.4205
vt 0.3791 0.4197
vt 0.3801 0.3921
vt 0.3802 0.3910
vt 0.3802 0.3910
vt 0.3802 0.3921
vt 0.3801 0.3931
vt 0.3802 0.3932
vt 0.3799 0.3941
vt 0.3800 0.3931
vt 0.3795 0.4007
vt 0.3795 0.3995
vt 0.3795 0.4032
vt 0.3795 0.4019
vt 0.3800 0.4306
vt 0.3799 0.4299
vt 0.3801 0.4321
vt 0.3800 0.4314
vt 0.3795 0.4249
vt 0.3795 0.4242
vt 0.3796 0.4263
vt 0.3796 0.4256
vt 0.3775 0.4267
vt 0.3774 0.4259
vt 0.3777 0.4283
vt 0.3776 0.4275
vt 0.3793 0.4104
vt 0.3794 0.4093
vt 0.3792 0.4128
vt 0.3792 0.4116
vt 0.3824 0.4332
vt 0.3821 0.4328
vt 0.3831 0.4328
vt 0.3828 0.4324
vt 0.3829 0.4317
vt 0.3832 0.4321
vt 0.3840 0.4207
vt 0.3840 0.4199
vt 0.3839 0.4215
vt 0.3837 0.4213
vt 0.3842 0.4219
vt 0.3841 0.4217
vt 0.3841 0.4209
vt 0.3843 0.4211
vt 0.3813 0.4362
vt 0.3812 0.4356
vt 0.3815 0.4374
vt 0.3814 0.4368
vt 0.3816 0.4367
vt 0.3817 0.4372
vt 0.3814 0.4202
vt 0.3810 0.4200
vt 0.3821 0.4205
vt 0.3817 0.4204
vt 0.3812 0.3941
vt 0.3810 0.3942
vt 0.3817 0.4032
vt 0.3814 0.4033
vt 0.3810 0.4320
vt 0.3808 0.4320
vt 0.3813 0.4321
vt 0.3812 0.4321
vt 0.3812 0.4261
vt 0.3810 0.4259
vt 0.3817 0.4264
vt 0.3815 0.4262
vt 0.3832 0.4277
vt 0.3830 0.4273
vt 0.3838 0.4276
vt 0.3839 0.4268
vt 0.3837 0.4284
vt 0.3834 0.4280
vt 0.3840 0.4260
vt 0.3841 0.4252
vt 0.3813 0.4127
vt 0.3810 0.4126
vt 0.3820 0.4128
vt 0.3817 0.4127
vt 0.3827 0.4129
vt 0.3824 0.4128
vt 0.3833 0.4117
vt 0.3832 0.4104
vt 0.3834 0.4130
vt 0.3831 0.4129
vt 0.3831 0.4092
vt 0.3830 0.4079
vt 0.3831 0.4177
vt 0.3827 0.4176
vt 0.3838 0.4167
vt 0.3837 0.4155
vt 0.3835 0.4179
vt 0.3836 0.4142
vt 0.3814 0.4172
vt 0.3810 0.4170
vt 0.3828 0.4306
vt 0.3826 0.4302
vt 0.3836 0.4291
vt 0.3835 0.4299
vt 0.3832 0.4295
vt 0.3822 0.4267
vt 0.3820 0.4265
vt 0.3825 0.4268
vt 0.3819 0.4295
vt 0.3817 0.4293
vt 0.3821 0.4297
vt 0.3811 0.4289
vt 0.3809 0.4288
vt 0.3807 0.4409
vt 0.3807 0.4403
vt 0.3816 0.4322
vt 0.3814 0.4322
vt 0.3818 0.4323
vt 0.3807 0.4353
vt 0.3822 0.4029
vt 0.3820 0.4031
vt 0.3827 0.4014
vt 0.3827 0.4001
vt 0.3825 0.4028
vt 0.3824 0.4080
vt 0.3821 0.4081
vt 0.3830 0.4066
vt 0.3829 0.4053
vt 0.3812 0.4082
vt 0.3809 0.4083
vt 0.3815 0.3940
vt 0.3813 0.3940
vt 0.3816 0.3929
vt 0.3814 0.3920
vt 0.3816 0.3939
vt 0.3812 0.3910
vt 0.3821 0.3979
vt 0.3818 0.3981
vt 0.3824 0.3966
vt 0.3822 0.3957
vt 0.3828 0.4208
vt 0.3825 0.4207
vt 0.3832 0.4210
vt 0.3826 0.4239
vt 0.3823 0.4237
vt 0.3813 0.4232
vt 0.3810 0.4231
vt 0.3807 0.4390
vt 0.3807 0.4384
vt 0.3807 0.4378
vt 0.3807 0.4397
vt 0.3815 0.4386
vt 0.3816 0.4392
vt 0.3807 0.4365
vt 0.3807 0.4359
vt 0.3807 0.4372
vt 0.3807 0.3892
vt 0.3807 0.3894
vt 0.3805 0.3896
vt 0.3805 0.3899
vt 0.3805 0.3893
vt 0.3806 0.3894
vt 0.3807 0.3894
vt 0.3836 0.4247
vt 0.3834 0.4245
vt 0.3841 0.4244
vt 0.3841 0.4236
vt 0.3819 0.4359
vt 0.3817 0.4353
vt 0.3775 0.3981
vt 0.3775 0.3995
vt 0.3777 0.3968
vt 0.3778 0.3970
vt 0.3773 0.3994
vt 0.3775 0.3995
vt 0.3774 0.4009
vt 0.3773 0.4008
vt 0.3782 0.3972
vt 0.3783 0.3974
vt 0.3780 0.3971
vt 0.3779 0.4011
vt 0.3778 0.4011
vt 0.3781 0.4012
vt 0.3791 0.4151
vt 0.3791 0.4139
vt 0.3791 0.4163
vt 0.3782 0.4079
vt 0.3779 0.4298
vt 0.3778 0.4290
vt 0.3780 0.4306
vt 0.3798 0.4277
vt 0.3797 0.4270
vt 0.3798 0.4284
vt 0.3788 0.4283
vt 0.3787 0.4276
vt 0.3784 0.4255
vt 0.3782 0.4248
vt 0.3802 0.4336
vt 0.3801 0.4328
vt 0.3804 0.4351
vt 0.3805 0.4352
vt 0.3802 0.4343
vt 0.3806 0.4352
vt 0.3796 0.4335
vt 0.3795 0.4329
vt 0.3799 0.4349
vt 0.3800 0.4349
vt 0.3797 0.4342
vt 0.3793 0.4310
vt 0.3792 0.4303
vt 0.3794 0.4056
vt 0.3794 0.4044
vt 0.3794 0.4069
vt 0.3783 0.4053
vt 0.3783 0.4040
vt 0.3784 0.4027
vt 0.3782 0.4066
vt 0.3797 0.3962
vt 0.3798 0.3952
vt 0.3796 0.3972
vt 0.3793 0.4220
vt 0.3792 0.4212
vt 0.3794 0.4227
vt 0.3779 0.4226
vt 0.3778 0.4218
vt 0.3780 0.4233
vt 0.3776 0.4195
vt 0.3775 0.4188
vt 0.3803 0.4376
vt 0.3800 0.4375
vt 0.3805 0.4377
vt 0.3801 0.4400
vt 0.3797 0.4398
vt 0.3788 0.4393
vt 0.3784 0.4392
vt 0.3781 0.4390
vt 0.3804 0.3894
vt 0.3803 0.3894
vt 0.3799 0.3898
vt 0.3799 0.3900
vt 0.3772 0.4235
vt 0.3771 0.4227
vt 0.3771 0.4218
vt 0.3772 0.4243
vt 0.3778 0.4092
vt 0.3777 0.4105
vt 0.3780 0.4079
vt 0.3787 0.4355
vt 0.3786 0.4348
vt 0.3788 0.4362
vt 0.3778 0.4375
vt 0.3777 0.4367
vt 0.3780 0.4383
vt 0.3775 0.4333
vt 0.3777 0.4329
vt 0.3776 0.4322
vt 0.3776 0.4118
vt 0.3770 0.4229
vt 0.3803 0.3895
vt 0.3803 0.4047
vt 0.3806 0.4048
vt 0.3803 0.4035
vt 0.3781 0.4012
vt 0.3780 0.4026
vt 0.3776 0.4010
vt 0.3835 0.4117
vt 0.3815 0.4386
vt 0.3817 0.4385
vt 0.3808 0.4047
vt 0.3808 0.4035
vt 0.3810 0.3898
vt 0.3838 0.4156
vt 0.3771 0.4183
vt 0.3772 0.4170
f 1260/1 550/2 2/3 528/4
f 1259/5 508/6 1/7 505/8
f 1258/9 505/8 1/7 507/10
f 1257/11 529/12 4/13 531/14
f 1256/15 513/16 5/17 506/18
f 1255/19 504/20 3/21 512/22
f 1254/23 319/24 15/25 518/26
f 1253/27 338/28 14/29 539/30
f 1252/31 342/32 20/33 346/34
f 1251/35 533/36 7/37 333/38
f 1250/39 326/40 22/41 330/42
f 1249/43 535/44 10/45 546/46
f 1248/47 515/48 9/49 520/50
f 1247/51 517/52 9/49 515/48
f 1246/53 542/54 12/55 537/56
f 1245/57 516/58 13/59 524/60
f 1244/61 523/62 11/63 514/64
f 1243/65 518/26 15/25 318/66
f 1242/67 539/30 14/29 336/68
f 1241/69 346/34 20/33 348/70
f 1240/71 341/72 19/73 519/74
f 1239/75 330/42 22/41 345/76
f 1238/77 522/78 21/79 343/80
f 1237/81 390/82 55/83 383/84
f 1236/85 391/86 57/87 386/88
f 1235/89 392/90 61/91 554/92
f 1234/93 366/94 39/95 555/96
f 1233/97 381/98 53/99 557/100
f 1232/101 398/102 60/103 389/104
f 1231/105 399/106 63/107 560/108
f 1230/109 387/110 58/111 561/112
f 1229/113 402/114 47/115 375/116
f 1228/117 403/118 64/119 564/120
f 1227/121 492/122 50/123 565/124
f 1226/125 406/126 56/127 385/128
f 1225/129 407/130 65/131 568/132
f 1223/133 410/134 37/135 364/136
f 1222/137 411/138 66/139 572/140
f 1221/141 414/142 27/143 353/144
f 1220/145 415/146 67/147 575/148
f 1219/149 475/150 32/151 576/152
f 1218/153 418/154 68/155 579/156
f 1217/157 478/158 36/159 580/160
f 1216/161 420/162 37/163 479/164
f 1215/165 421/166 48/167 490/168
f 1214/169 422/170 69/171 584/172
f 1213/173 474/174 31/175 585/176
f 1211/177 488/178 46/179 586/180
f 1209/181 373/182 45/183 588/184
f 1208/185 427/186 39/95 366/94
f 1207/187 428/188 70/189 591/190
f 1206/191 362/192 35/193 592/194
f 1205/195 431/196 43/197 371/198
f 1204/199 432/200 71/201 594/202
f 1203/203 486/204 44/205 595/206
f 1202/207 435/208 58/111 387/110
f 1201/209 436/210 72/211 598/212
f 1200/213 382/214 54/215 599/216
f 1199/217 439/218 38/219 480/220
f 1198/221 440/222 50/123 492/122
f 1197/223 441/224 73/225 602/226
f 1196/227 377/228 49/229 603/230
f 1194/231 445/232 74/233 606/234
f 1193/235 379/236 51/237 607/238
f 1192/239 448/240 75/241 610/242
f 1191/243 356/244 30/245 611/246
f 1190/247 451/248 32/151 475/150
f 1189/249 452/250 76/251 614/252
f 1188/253 354/254 28/255 615/256
f 1187/257 455/258 29/259 472/260
f 1186/261 456/262 77/263 618/264
f 1185/265 467/266 23/267 619/268
f 1184/269 473/270 30/271 620/272
f 1183/273 483/274 41/275 621/276
f 1182/277 461/278 25/279 468/280
f 1180/281 469/282 26/283 624/284
f 1179/285 463/286 40/287 482/288
f 1178/289 464/290 79/291 627/292
f 1177/293 502/294 59/295 628/296
f 1176/297 629/298 236/299 466/300
f 1175/301 630/302 237/303 631/304
f 1173/305 633/306 235/307 465/308
f 1172/309 634/310 238/311 635/312
f 1171/313 626/314 234/315 636/316
f 1170/317 637/318 95/319 331/320
f 1169/321 638/322 239/323 639/324
f 1168/325 625/326 233/327 640/328
f 1167/329 317/330 82/331 643/332
f 1166/333 644/334 231/335 462/336
f 1165/337 645/338 81/339 316/340
f 1164/341 646/342 241/343 647/344
f 1163/345 622/346 230/347 648/348
f 1162/349 649/350 229/351 460/352
f 1161/353 650/354 242/355 651/356
f 1160/357 332/358 96/359 652/360
f 1159/361 321/362 86/363 655/364
f 1158/365 656/366 226/367 458/368
f 1157/369 657/370 244/371 658/372
f 1156/373 315/374 80/375 659/376
f 1155/377 660/378 225/379 457/380
f 1154/381 661/382 245/383 662/384
f 1153/385 617/386 224/387 663/388
f 1152/389 664/390 85/391 320/392
f 1151/393 665/394 246/395 666/396
f 1150/397 616/398 223/399 667/400
f 1149/401 668/402 222/403 454/404
f 1148/405 669/406 247/407 670/408
f 1147/409 511/410 122/411 671/412
f 1146/413 672/414 221/415 453/416
f 1145/417 673/418 248/419 674/420
f 1144/421 613/422 220/423 675/424
f 1143/425 676/426 88/427 324/428
f 1142/429 677/430 249/431 678/432
f 1141/433 612/434 219/435 679/436
f 1140/437 680/438 218/439 450/440
f 1139/441 681/442 250/443 682/444
f 1138/445 513/446 124/447 683/448
f 1137/449 684/450 217/451 449/452
f 1136/453 685/454 251/455 686/456
f 1135/457 609/458 216/459 687/460
f 1134/461 688/462 252/463 689/464
f 1133/465 608/466 215/467 690/468
f 1132/469 691/470 214/471 447/472
f 1131/473 692/474 253/475 693/476
f 1130/477 540/478 148/479 694/480
f 1129/481 695/482 213/483 446/484
f 1128/485 696/486 254/487 697/488
f 1127/489 605/490 212/491 698/492
f 1126/493 699/494 109/495 344/496
f 1125/497 700/498 255/499 701/500
f 1124/501 604/502 211/503 702/504
f 1123/505 703/506 210/507 443/508
f 1122/509 704/510 256/511 705/512
f 1121/513 538/514 146/515 706/516
f 1120/517 707/518 209/519 442/520
f 1119/521 708/522 257/523 709/524
f 1118/525 601/526 208/527 710/528
f 1117/529 711/530 103/531 339/532
f 1116/533 712/534 258/535 713/536
f 1115/537 600/538 207/539 714/540
f 1114/541 715/542 93/543 329/544
f 1113/545 716/546 206/547 438/548
f 1112/549 717/550 259/551 718/552
f 1111/553 544/554 151/555 719/556
f 1110/557 720/558 205/559 437/560
f 1109/561 721/562 260/563 722/564
f 1108/565 597/566 204/567 723/568
f 1107/569 724/570 156/571 549/572
f 1106/573 725/574 261/575 726/576
f 1105/577 596/578 203/579 727/580
f 1104/581 728/582 202/583 434/584
f 1103/585 729/586 201/587 433/588
f 1102/589 730/590 140/591 532/592
f 1101/593 731/594 262/595 732/596
f 1100/597 593/598 200/599 733/600
f 1099/601 734/602 199/603 430/604
f 1098/605 735/606 263/607 736/608
f 1097/609 521/610 130/611 737/612
f 1096/613 738/614 198/615 429/616
f 1095/617 739/618 264/619 740/620
f 1094/621 590/622 197/623 741/624
f 1093/625 742/626 135/627 527/628
f 1092/629 743/630 265/631 744/632
f 1091/633 589/634 196/635 745/636
f 1089/637 747/638 266/639 748/640
f 1088/641 534/642 142/643 749/644
f 1086/645 587/646 194/647 753/648
f 1085/649 754/650 193/651 425/652
f 1084/653 755/654 268/655 756/656
f 1083/657 335/658 99/659 757/660
f 1082/661 758/662 89/663 325/664
f 1081/665 759/666 191/667 423/668
f 1080/669 760/670 269/671 761/672
f 1079/673 323/674 87/675 762/676
f 1078/677 763/678 101/679 337/680
f 1077/681 764/682 92/683 328/684
f 1076/685 581/686 189/687 767/688
f 1075/689 768/690 188/691 419/692
f 1074/693 769/694 271/695 770/696
f 1073/697 327/698 91/699 771/700
f 1071/701 773/702 272/703 774/704
f 1070/705 578/706 186/707 775/708
f 1069/709 776/710 185/711 417/712
f 1068/713 777/714 273/715 778/716
f 1067/717 324/428 88/427 779/718
f 1066/719 780/720 184/721 416/722
f 1065/723 781/724 274/725 782/726
f 1064/727 574/728 183/729 783/730
f 1063/731 784/732 121/733 510/734
f 1062/735 785/736 275/737 786/738
f 1061/739 573/740 182/741 787/742
f 1060/743 788/744 181/745 413/746
f 1059/747 789/748 276/749 790/750
f 1058/751 791/752 180/753 412/754
f 1057/755 792/756 277/757 793/758
f 1056/759 571/760 179/761 794/762
f 1055/763 795/764 132/765 524/766
f 1054/767 796/768 278/769 797/770
f 1053/771 570/772 178/773 798/774
f 1052/775 799/776 177/777 409/778
f 1051/779 800/780 279/781 801/782
f 1050/783 344/496 109/495 802/784
f 1049/785 803/786 176/787 408/788
f 1048/789 804/790 280/791 805/792
f 1047/793 567/794 175/795 806/796
f 1046/797 807/798 154/799 547/800
f 1045/801 808/802 281/803 809/804
f 1044/805 566/806 174/807 810/808
f 1043/809 811/810 173/811 405/812
f 1042/813 812/814 282/815 813/816
f 1041/817 339/532 103/531 814/818
f 1040/819 815/820 172/821 404/822
f 1039/823 816/824 283/825 817/826
f 1038/827 563/828 171/829 818/830
f 1037/831 819/832 144/833 536/834
f 1036/835 820/836 284/837 821/838
f 1035/839 562/840 170/841 822/842
f 1034/843 347/844 114/845 823/846
f 1033/847 824/848 169/849 401/850
f 1032/851 825/852 285/853 826/854
f 1031/855 549/572 156/571 827/856
f 1030/857 828/858 168/859 400/860
f 1029/861 829/862 286/863 830/864
f 1028/865 559/866 167/867 831/868
f 1027/869 832/870 158/871 551/872
f 1026/873 833/874 287/875 834/876
f 1025/877 558/878 166/879 835/880
f 1024/881 836/882 165/883 397/884
f 1023/885 837/886 288/887 838/888
f 1022/889 543/890 150/891 839/892
f 1021/893 840/894 162/895 394/896
f 1020/897 841/898 289/899 842/900
f 1019/901 527/628 135/627 843/902
f 1018/903 844/904 161/905 393/906
f 1017/907 845/908 290/909 846/910
f 1016/911 553/912 160/913 847/914
f 1015/915 848/916 155/917 548/918
f 1014/919 849/920 291/921 850/922
f 1013/923 552/924 159/925 851/926
f 1012/927 852/928 152/929 545/930
f 1011/931 853/932 108/933 497/934
f 1010/935 854/936 111/937 500/938
f 1009/939 855/940 292/941 856/942
f 1008/943 481/944 94/945 857/946
f 1007/947 858/948 128/949 360/950
f 1006/951 859/952 293/953 860/954
f 1005/955 495/956 106/957 861/958
f 1004/959 862/960 115/961 503/962
f 1003/963 863/964 294/965 864/966
f 1002/967 501/968 112/969 865/970
f 1001/971 866/972 100/973 489/974
f 1000/975 867/976 295/977 868/978
f 999/979 378/980 147/981 869/982
f 998/983 870/984 110/985 499/986
f 997/987 871/988 296/989 872/990
f 996/991 873/992 92/993 479/994
f 995/995 874/996 297/997 875/998
f 994/999 876/1000 83/1001 470/1002
f 993/1003 877/1004 298/1005 878/1006
f 992/1007 359/1008 127/1009 879/1010
f 991/1011 880/1012 125/1013 357/1014
f 990/1015 881/1016 299/1017 882/1018
f 989/1019 363/1020 131/1021 883/1022
f 988/1023 884/1024 132/1025 364/1026
f 987/1027 885/1028 300/1029 886/1030
f 986/1031 888/1032 145/1033 376/1034
f 984/1035 358/1036 126/1037 890/1038
f 983/1039 892/1040 153/1041 384/1042
f 982/1043 893/1044 302/1045 894/1046
f 981/1047 374/1048 143/1049 895/1050
f 980/1051 896/1052 94/945 481/944
f 979/1053 897/1054 303/1055 898/1056
f 978/1057 477/1058 90/1059 899/1060
f 977/1061 900/1062 97/1063 485/1064
f 976/1065 901/1066 304/1067 902/1068
f 975/1069 372/1070 141/1071 903/1072
f 974/1073 904/1074 112/969 501/968
f 973/1075 905/1076 305/1077 906/1078
f 972/1079 496/1080 107/1081 907/1082
f 971/1083 908/1084 134/1085 365/1086
f 970/1087 909/1088 147/981 378/980
f 969/1089 910/1090 306/1091 911/1092
f 968/1093 491/1094 102/1095 912/1096
f 967/1097 913/1098 307/1099 914/1100
f 966/1101 493/1102 104/1103 915/1104
f 964/1105 473/1106 86/1107 918/1108
f 963/1109 919/1110 127/1009 359/1008
f 962/1111 920/1112 308/1113 921/1114
f 961/1115 471/1116 84/1117 922/1118
f 960/1119 923/1120 123/1121 355/1122
f 959/1123 924/1124 309/1125 925/1126
f 958/1127 349/1128 116/1129 926/1130
f 957/1131 927/1132 118/1133 350/1134
f 956/1135 928/1136 310/1137 929/1138
f 955/1139 356/1140 124/1141 930/1142
f 954/1143 931/1144 139/1145 370/1146
f 952/1147 368/1148 137/1149 933/1150
f 951/1151 934/1152 119/1153 351/1154
f 950/1155 935/1156 312/1157 936/1158
f 948/1159 352/1160 120/1161 940/1162
f 947/1163 941/1164 136/1165 367/1166
f 946/1167 942/1168 314/1169 943/1170
f 945/1171 388/1172 157/1173 944/1174
f 942/1168 945/1171 944/1174 314/1169
f 236/1175 628/1176 945/1171 942/1168
f 628/1176 59/295 388/1172 945/1171
f 625/326 946/1167 943/1170 233/327
f 79/1177 466/1178 946/1167 625/326
f 466/300 236/299 942/1168 946/1167
f 463/286 947/1163 367/1166 40/287
f 233/327 943/1170 947/1163 463/286
f 943/1170 314/1169 941/1164 947/1163
f 939/1179 948/1159 940/1162 313/1180
f 232/1181 624/1182 948/1159 939/1179
f 624/284 26/283 352/1160 948/1159
f 935/1156 949/1183 937/1184 312/1157
f 622/346 950/1155 936/1158 230/347
f 461/278 951/1151 351/1154 25/279
f 230/347 936/1158 951/1151 461/278
f 936/1158 312/1157 934/1152 951/1151
f 932/1185 952/1147 933/1150 311/1186
f 229/1187 621/1188 952/1147 932/1185
f 621/1188 41/275 368/1148 952/1147
f 460/352 229/351 932/1185 953/1189
f 928/1136 955/1139 930/1142 310/1137
f 228/1190 620/1191 955/1139 928/1136
f 620/1191 30/271 356/271 955/1139
f 459/1192 957/1131 350/1134 24/1193
f 227/1194 929/1195 957/1131 459/1192
f 929/1138 310/1137 927/1132 957/1131
f 924/1124 958/1127 926/1130 309/1125
f 226/1196 619/1197 958/1127 924/1124
f 619/1197 23/267 349/1128 958/1127
f 616/398 959/1123 925/1126 223/399
f 77/1198 458/1199 959/1123 616/398
f 458/368 226/367 924/1124 959/1123
f 455/258 960/1119 355/1122 29/259
f 223/399 925/1126 960/1119 455/258
f 925/1126 309/1125 923/1120 960/1119
f 920/1112 961/1115 922/1118 308/1113
f 222/1200 615/1201 961/1115 920/1112
f 615/1201 28/255 471/1116 961/1115
f 612/434 962/1111 921/1114 219/435
f 76/1202 454/1203 962/1111 612/434
f 454/1203 222/403 920/1112 962/1111
f 451/248 963/1109 359/1008 32/151
f 219/435 921/1114 963/1109 451/248
f 921/1114 308/1113 919/1110 963/1109
f 218/1204 611/1205 964/1206 916/1207
f 611/1205 30/244 473/270 964/1205
f 608/466 965/1208 917/1209 215/467
f 75/1210 450/1211 965/1208 608/466
f 450/1211 218/439 916/1207 965/1208
f 913/1098 966/1101 915/1104 307/1099
f 214/1212 607/1213 966/1101 913/1098
f 607/238 51/237 493/1102 966/1101
f 604/502 967/1097 914/1100 211/503
f 74/1214 447/1215 967/1097 604/502
f 447/472 214/471 913/1098 967/1097
f 910/1090 968/1093 912/1096 306/1091
f 210/1216 603/1217 968/1093 910/1090
f 603/1217 49/229 491/1094 968/1093
f 600/538 969/1089 911/1092 207/539
f 73/1218 443/1219 969/1089 600/538
f 443/508 210/507 910/1090 969/1089
f 440/222 970/1087 378/980 50/123
f 207/539 911/1092 970/1087 440/222
f 911/1092 306/1091 909/1088 970/1087
f 439/218 971/1083 365/1086 38/219
f 905/1076 972/1079 907/1082 305/1077
f 206/1220 599/1221 972/1079 905/1076
f 599/1221 54/215 496/1080 972/1079
f 596/578 973/1075 906/1078 203/579
f 72/1222 438/1223 973/1075 596/578
f 438/548 206/547 905/1076 973/1075
f 435/208 974/1073 501/968 58/111
f 203/579 906/1078 974/1073 435/208
f 906/1078 305/1077 904/1074 974/1073
f 901/1066 975/1069 903/1072 304/1067
f 202/1224 595/1225 975/1069 901/1066
f 595/206 44/205 372/1070 975/1069
f 593/598 976/1065 902/1068 200/599
f 71/1226 434/1227 976/1065 593/598
f 434/1227 202/583 901/1066 976/1065
f 431/196 977/1061 485/1064 43/197
f 200/599 902/1068 977/1061 431/196
f 902/1068 304/1067 900/1062 977/1061
f 897/1054 978/1057 899/1060 303/1055
f 199/1228 592/1229 978/1057 897/1054
f 592/1229 35/193 477/1058 978/1057
f 589/634 979/1053 898/1056 196/635
f 70/1230 430/1231 979/1053 589/634
f 430/604 199/603 897/1054 979/1053
f 427/186 980/1051 481/944 39/95
f 196/635 898/1056 980/1051 427/186
f 898/1056 303/1055 896/1052 980/1051
f 893/1044 981/1047 895/1050 302/1045
f 193/1232 586/1233 981/1047 893/1044
f 586/1233 46/179 374/1048 981/1047
f 425/652 193/651 893/1044 982/1043
f 192/1234 894/1235 983/1236 424/1237
f 894/1046 302/1045 892/1040 983/1236
f 889/1238 984/1035 890/1038 301/1239
f 191/1240 585/1241 984/1035 889/1238
f 585/1241 31/175 358/1036 984/1035
f 69/1242 423/1243 985/1244 582/1245
f 423/1243 191/667 889/1238 985/1244
f 421/166 986/1031 376/1034 48/167
f 581/686 987/1027 886/1030 189/687
f 420/162 988/1023 364/163 37/163
f 189/687 886/1030 988/1023 420/162
f 886/1030 300/1029 884/1024 988/1023
f 881/1016 989/1019 883/1022 299/1017
f 188/1246 580/1247 989/1019 881/1016
f 580/160 36/159 363/1020 989/1019
f 68/1248 419/1249 990/1250 577/1251
f 419/1249 188/691 881/1016 990/1250
f 882/1018 299/1017 880/1012 991/1011
f 877/1004 992/1007 879/1010 298/1005
f 185/1252 576/1253 992/1007 877/1004
f 576/1253 32/151 359/1008 992/1007
f 573/740 993/1003 878/1006 182/741
f 67/1254 417/1255 993/1003 573/740
f 417/1255 185/711 877/1004 993/1003
f 414/142 994/999 470/1002 27/143
f 182/741 878/1006 994/999 414/142
f 878/1006 298/1005 876/1000 994/999
f 570/772 995/995 875/998 178/773
f 66/1256 413/1257 995/995 570/772
f 413/746 181/745 874/996 995/995
f 410/133 996/991 479/994 37/135
f 178/773 875/998 996/991 410/133
f 875/998 297/997 873/992 996/991
f 566/806 997/987 872/990 174/807
f 65/1258 409/1259 997/987 566/806
f 409/778 177/777 871/988 997/987
f 406/126 998/983 499/986 56/127
f 174/807 872/990 998/983 406/126
f 872/990 296/989 870/984 998/983
f 867/976 999/979 869/982 295/977
f 173/1260 565/1261 999/979 867/976
f 565/1261 50/123 378/980 999/979
f 562/840 1000/975 868/978 170/841
f 64/1262 405/1263 1000/975 562/840
f 405/1263 173/811 867/976 1000/975
f 402/114 1001/971 489/974 47/115
f 170/841 868/978 1001/971 402/114
f 868/978 295/977 866/972 1001/971
f 863/964 1002/967 865/970 294/965
f 169/1264 561/1265 1002/967 863/964
f 561/1265 58/111 501/968 1002/967
f 558/878 1003/963 864/966 166/879
f 63/1266 401/1267 1003/963 558/878
f 401/1267 169/849 863/964 1003/963
f 398/102 1004/959 503/962 60/103
f 166/879 864/966 1004/959 398/102
f 864/966 294/965 862/960 1004/959
f 859/952 1005/955 861/958 293/953
f 165/1268 557/1269 1005/955 859/952
f 557/1269 53/99 495/956 1005/955
f 556/1270 1006/951 860/954 163/1271
f 62/1272 397/1273 1006/951 556/1270
f 397/1273 165/883 859/952 1006/951
f 395/1274 1007/947 360/950 33/1275
f 163/1271 860/954 1007/947 395/1274
f 860/954 293/953 858/948 1007/947
f 855/940 1008/943 857/946 292/941
f 162/1276 555/1277 1008/943 855/940
f 555/1277 39/95 481/944 1008/943
f 552/924 1009/939 856/942 159/925
f 61/1278 394/1279 1009/939 552/924
f 394/1279 162/895 855/940 1009/939
f 391/86 1010/935 500/938 57/87
f 159/925 856/942 1010/935 391/86
f 856/942 292/941 854/936 1010/935
f 390/82 1011/931 497/934 55/83
f 542/54 1012/927 545/930 12/55
f 849/920 1013/923 851/926 291/921
f 161/1280 554/1281 1013/923 849/920
f 554/92 61/91 552/924 1013/923
f 476/1282 1014/919 850/922 89/1283
f 34/1284 393/1285 1014/919 476/1282
f 393/1285 161/905 849/920 1014/919
f 325/1286 1015/915 548/918 21/1287
f 89/663 850/922 1015/915 325/664
f 850/922 291/921 848/916 1015/915
f 845/908 1016/911 847/914 290/909
f 121/1288 353/1289 1016/911 845/908
f 353/144 27/143 553/912 1016/911
f 520/1290 1017/907 846/910 129/1291
f 9/49 510/1292 1017/907 520/50
f 510/1292 121/733 845/908 1017/907
f 361/1293 1018/903 393/906 34/1284
f 129/1291 846/910 1018/903 361/1293
f 846/910 290/909 844/904 1018/903
f 841/898 1019/901 843/902 289/899
f 83/1294 318/1295 1019/901 841/898
f 318/1295 15/25 527/628 1019/901
f 553/912 1020/897 842/900 160/913
f 27/143 470/1002 1020/897 553/912
f 470/1002 83/1001 841/898 1020/897
f 392/90 1021/893 394/896 61/91
f 160/913 842/900 1021/893 392/90
f 842/900 289/899 840/894 1021/893
f 837/886 1022/889 839/892 288/887
f 153/1296 546/1297 1022/889 837/886
f 546/46 10/45 543/890 1022/889
f 384/1042 153/1041 837/886 1023/885
f 396/1298 1024/881 397/884 62/1272
f 164/1299 838/1300 1024/881 396/1298
f 838/1300 288/887 836/882 1024/881
f 833/874 1025/877 835/880 287/875
f 168/1301 560/1302 1025/877 833/874
f 560/1302 63/107 558/878 1025/877
f 495/956 1026/873 834/876 106/957
f 53/99 400/1303 1026/873 495/956
f 400/1303 168/859 833/874 1026/873
f 341/72 1027/869 551/872 19/73
f 106/957 834/876 1027/869 341/72
f 834/876 287/875 832/870 1027/869
f 829/862 1028/865 831/868 286/863
f 144/1304 375/1305 1028/865 829/862
f 375/116 47/115 559/866 1028/865
f 543/890 1029/861 830/864 150/891
f 10/45 536/1306 1029/861 543/890
f 536/834 144/833 829/862 1029/861
f 381/98 1030/857 400/860 53/99
f 150/891 830/864 1030/857 381/98
f 830/864 286/863 828/858 1030/857
f 825/852 1031/855 827/856 285/853
f 100/1307 336/1308 1031/855 825/852
f 336/68 14/29 549/572 1031/855
f 559/866 1032/851 826/854 167/867
f 47/115 489/974 1032/851 559/866
f 489/974 100/973 825/852 1032/851
f 399/106 1033/847 401/850 63/107
f 167/867 826/854 1033/847 399/106
f 826/854 285/853 824/848 1033/847
f 322/1309 18/1310 347/844 1034/843
f 820/836 1035/839 822/842 284/837
f 172/1311 564/1312 1035/839 820/836
f 564/1312 64/119 562/840 1035/839
f 374/1048 1036/835 821/838 143/1049
f 46/179 404/1313 1036/835 374/1048
f 404/1313 172/821 820/836 1036/835
f 535/44 1037/831 536/834 10/45
f 143/1049 821/838 1037/831 535/44
f 821/838 284/837 819/832 1037/831
f 816/824 1038/827 818/830 283/825
f 131/1021 363/1020 1038/827 816/824
f 363/1020 36/159 563/828 1038/827
f 335/658 1039/823 817/826 99/659
f 11/63 523/62 1039/823 335/658
f 523/62 131/1021 816/824 1039/823
f 488/178 1040/819 404/822 46/179
f 99/659 817/826 1040/819 488/178
f 817/826 283/825 815/820 1040/819
f 812/814 1041/817 814/818 282/815
f 91/699 327/698 1041/817 812/814
f 327/698 16/1314 339/532 1041/817
f 563/828 1042/813 813/816 171/829
f 36/159 478/158 1042/813 563/828
f 478/158 91/699 812/814 1042/813
f 403/118 1043/809 405/812 64/119
f 171/829 813/816 1043/809 403/118
f 813/816 282/815 811/810 1043/809
f 808/802 1044/805 810/808 281/803
f 176/1315 568/1316 1044/805 808/802
f 568/132 65/131 566/806 1044/805
f 383/1317 1045/801 809/804 152/1318
f 55/83 408/1319 1045/801 383/84
f 408/788 176/787 808/802 1045/801
f 545/930 1046/797 547/800 12/55
f 152/929 809/804 1046/797 545/930
f 809/804 281/803 807/798 1046/797
f 804/790 1047/793 806/796 280/791
f 155/1320 386/1321 1047/793 804/790
f 386/88 57/87 567/794 1047/793
f 343/1322 1048/789 805/792 108/1323
f 21/1287 548/918 1048/789 343/80
f 548/918 155/917 804/790 1048/789
f 497/934 1049/785 408/788 55/83
f 108/933 805/792 1049/785 497/934
f 805/792 280/791 803/786 1049/785
f 800/780 1050/783 802/784 279/781
f 111/1324 345/1325 1050/783 800/780
f 345/76 22/41 344/496 1050/783
f 567/794 1051/779 801/782 175/795
f 57/87 500/938 1051/779 567/794
f 500/938 111/937 800/780 1051/779
f 407/130 1052/775 409/778 65/131
f 175/795 801/782 1052/775 407/130
f 801/782 279/781 799/776 1052/775
f 796/768 1053/771 798/774 278/769
f 180/1326 572/1327 1053/771 796/768
f 572/1327 66/139 570/772 1053/771
f 490/1328 1054/767 797/770 101/1329
f 48/167 412/1330 1054/767 490/168
f 412/1330 180/753 796/768 1054/767
f 337/1331 1055/763 524/766 13/59
f 101/1329 797/770 1055/763 337/680
f 797/770 278/769 795/764 1055/763
f 792/756 1056/759 794/762 277/757
f 154/1332 385/1333 1056/759 792/756
f 385/1333 56/127 571/760 1056/759
f 537/1334 1057/755 793/758 145/1335
f 12/55 547/800 1057/755 537/56
f 547/800 154/799 792/756 1057/755
f 376/1034 1058/751 412/754 48/167
f 145/1335 793/758 1058/751 376/1034
f 793/758 277/757 791/752 1058/751
f 571/760 1059/747 790/750 179/761
f 56/127 499/986 1059/747 571/760
f 499/986 110/985 789/748 1059/747
f 411/138 1060/743 413/746 66/139
f 179/761 790/750 1060/743 411/138
f 790/750 276/749 788/744 1060/743
f 785/736 1061/739 787/742 275/737
f 184/1336 575/1337 1061/739 785/736
f 575/148 67/147 573/740 1061/739
f 358/1036 1062/735 786/738 126/1037
f 31/175 416/1338 1062/735 358/1036
f 416/722 184/721 785/736 1062/735
f 517/52 1063/731 510/734 9/49
f 126/1037 786/738 1063/731 517/52
f 786/738 275/737 784/732 1063/731
f 781/724 1064/727 783/730 274/725
f 158/1339 389/1340 1064/727 781/724
f 389/1340 60/103 574/728 1064/727
f 323/674 1065/723 782/726 87/675
f 19/73 551/872 1065/723 323/674
f 551/872 158/871 781/724 1065/723
f 474/174 1066/719 416/722 31/175
f 87/675 782/726 1066/719 474/174
f 782/726 274/725 780/720 1066/719
f 777/714 1067/717 779/718 273/715
f 115/1341 348/1342 1067/717 777/714
f 348/1342 20/33 324/428 1067/717
f 574/728 1068/713 778/716 183/729
f 60/103 503/962 1068/713 574/728
f 503/962 115/961 777/714 1068/713
f 415/146 1069/709 417/712 67/147
f 183/729 778/716 1069/709 415/146
f 778/716 273/715 776/710 1069/709
f 773/702 1070/705 775/708 272/703
f 105/1343 494/1344 1070/705 773/702
f 494/1344 52/1345 578/706 1070/705
f 347/844 1071/701 774/704 114/845
f 18/1310 340/1346 1071/701 347/844
f 340/1346 105/1343 773/702 1071/701
f 774/704 272/703 772/1347 1072/1348
f 769/694 1073/697 771/700 271/695
f 149/1349 541/1350 1073/697 769/694
f 541/1350 16/1314 327/698 1073/697
f 578/706 1074/693 770/696 186/707
f 52/1345 380/1351 1074/693 578/706
f 380/1351 149/1349 769/694 1074/693
f 418/154 1075/689 419/692 68/155
f 186/707 770/696 1075/689 418/154
f 770/696 271/695 768/690 1075/689
f 765/1352 1076/685 767/688 270/1353
f 525/1354 1077/681 328/683 17/1355
f 133/1356 766/1357 1077/681 525/1354
f 766/1357 270/1358 764/682 1077/681
f 516/58 1078/677 337/680 13/59
f 760/670 1079/673 762/676 269/671
f 128/1359 519/1360 1079/673 760/670
f 519/74 19/73 323/674 1079/673
f 583/1361 1080/669 761/672 190/1362
f 33/1275 360/950 1080/669 583/1361
f 360/950 128/949 760/670 1080/669
f 422/170 1081/665 423/668 69/171
f 190/1362 761/672 1081/665 422/170
f 761/672 269/671 759/666 1081/665
f 522/78 1082/661 325/664 21/79
f 755/654 1083/657 757/660 268/655
f 125/1363 514/1364 1083/657 755/654
f 514/64 11/63 335/658 1083/657
f 357/1014 125/1013 755/654 1084/653
f 756/656 268/655 754/650 1085/649
f 751/1365 1086/645 753/648 267/1366
f 484/1367 42/1368 587/646 1086/645
f 752/1369 267/1370 750/1371 1087/1372
f 747/638 1088/641 749/644 266/639
f 139/1373 531/1374 1088/641 747/638
f 531/14 4/13 534/642 1088/641
f 587/646 1089/637 748/640 194/647
f 42/1368 370/1375 1089/637 587/646
f 370/1375 139/1145 747/638 1089/637
f 194/647 748/640 1090/1376 426/1377
f 748/640 266/639 746/1378 1090/1376
f 743/630 1091/633 745/636 265/631
f 198/1379 591/1380 1091/633 743/630
f 591/190 70/189 589/634 1091/633
f 471/1116 1092/629 744/632 84/1117
f 28/255 429/1381 1092/629 471/1116
f 429/616 198/615 743/630 1092/629
f 319/24 1093/625 527/628 15/25
f 84/1117 744/632 1093/625 319/24
f 744/632 265/631 742/626 1093/625
f 739/618 1094/621 741/624 264/619
f 120/1161 352/1160 1094/621 739/618
f 352/1160 26/283 590/622 1094/621
f 511/410 1095/617 740/620 122/411
f 1/7 508/6 1095/617 511/410
f 508/6 120/1161 739/618 1095/617
f 354/254 1096/613 429/616 28/255
f 122/411 740/620 1096/613 354/254
f 740/620 264/619 738/614 1096/613
f 735/606 1097/609 737/612 263/607
f 82/331 317/330 1097/609 735/606
f 317/330 8/1382 521/610 1097/609
f 590/622 1098/605 736/608 197/623
f 26/283 469/282 1098/605 590/622
f 469/282 82/331 735/606 1098/605
f 428/188 1099/601 430/604 70/189
f 197/623 736/608 1099/601 428/188
f 736/608 263/607 734/602 1099/601
f 731/594 1100/597 733/600 262/595
f 201/1383 594/1384 1100/597 731/594
f 594/202 71/201 593/598 1100/597
f 388/1172 1101/593 732/596 157/1173
f 59/295 433/1385 1101/593 388/1172
f 433/1385 201/587 731/594 1101/593
f 550/2 1102/589 532/592 2/3
f 157/1173 732/596 1102/589 550/2
f 732/596 262/595 730/590 1102/589
f 502/294 1103/585 433/588 59/295
f 432/200 1104/581 434/584 71/201
f 725/574 1105/577 727/580 261/575
f 205/1386 598/1387 1105/577 725/574
f 598/212 72/211 596/578 1105/577
f 491/1094 1106/573 726/576 102/1095
f 49/229 437/1388 1106/573 491/1094
f 437/1388 205/559 725/574 1106/573
f 338/28 1107/569 549/572 14/29
f 102/1095 726/576 1107/569 338/28
f 726/576 261/575 724/570 1107/569
f 721/562 1108/565 723/568 260/563
f 140/1389 371/1390 1108/565 721/562
f 371/1390 43/197 597/566 1108/565
f 538/514 1109/561 722/564 146/515
f 2/3 532/592 1109/561 538/514
f 532/592 140/591 721/562 1109/561
f 377/228 1110/557 437/560 49/229
f 146/515 722/564 1110/557 377/228
f 722/564 260/563 720/558 1110/557
f 717/550 1111/553 719/556 259/551
f 97/1391 333/1392 1111/553 717/550
f 333/1392 7/37 544/554 1111/553
f 597/566 1112/549 718/552 204/567
f 43/197 485/1064 1112/549 597/566
f 485/1064 97/1063 717/550 1112/549
f 436/210 1113/545 438/548 72/211
f 204/567 718/552 1113/545 436/210
f 718/552 259/551 716/546 1113/545
f 322/1309 1114/541 329/544 18/1310
f 712/534 1115/537 714/540 258/535
f 209/1393 602/1394 1115/537 712/534
f 602/226 73/225 600/538 1115/537
f 472/1395 1116/533 713/536 85/1396
f 29/259 442/1397 1116/533 472/260
f 442/520 209/519 712/534 1116/533
f 320/1398 1117/529 339/532 16/1314
f 85/391 713/536 1117/529 320/392
f 713/536 258/535 711/530 1117/529
f 708/522 1118/525 710/528 257/523
f 95/1399 482/1400 1118/525 708/522
f 482/1400 40/287 601/526 1118/525
f 512/1401 1119/521 709/524 123/1402
f 3/21 331/1403 1119/521 512/22
f 331/1403 95/319 708/522 1119/521
f 355/1122 1120/517 442/520 29/259
f 123/1402 709/524 1120/517 355/1122
f 709/524 257/523 707/518 1120/517
f 704/510 1121/513 706/516 256/511
f 136/1404 528/1405 1121/513 704/510
f 528/4 2/3 538/514 1121/513
f 601/526 1122/509 705/512 208/527
f 40/287 367/1166 1122/509 601/526
f 367/1166 136/1165 704/510 1122/509
f 441/224 1123/505 443/508 73/225
f 208/527 705/512 1123/505 441/224
f 705/512 256/511 703/506 1123/505
f 700/498 1124/501 702/504 255/499
f 213/1406 606/1407 1124/501 700/498
f 606/234 74/233 604/502 1124/501
f 477/1058 1125/497 701/500 90/1059
f 35/193 446/1408 1125/497 477/1058
f 446/1408 213/483 700/498 1125/497
f 326/40 1126/493 344/496 22/41
f 90/1059 701/500 1126/493 326/40
f 701/500 255/499 699/494 1126/493
f 696/486 1127/489 698/492 254/487
f 98/1409 487/1410 1127/489 696/486
f 487/1410 45/1411 605/490 1127/489
f 521/610 1128/485 697/488 130/611
f 8/1382 334/1412 1128/485 521/610
f 334/1412 98/1409 696/486 1128/485
f 362/192 1129/481 446/484 35/193
f 130/611 697/488 1129/481 362/192
f 697/488 254/487 695/482 1129/481
f 692/474 1130/477 694/480 253/475
f 142/643 534/642 1130/477 692/474
f 534/642 4/13 540/478 1130/477
f 605/490 1131/473 693/476 212/491
f 45/1411 373/182 1131/473 605/490
f 373/182 142/643 692/474 1131/473
f 445/232 1132/469 447/472 74/233
f 212/491 693/476 1132/469 445/232
f 693/476 253/475 691/470 1132/469
f 688/462 1133/465 690/468 252/463
f 217/1413 610/1414 1133/465 688/462
f 610/242 75/241 608/466 1133/465
f 493/1102 1134/461 689/464 104/1103
f 51/237 449/1415 1134/461 493/1102
f 449/452 217/451 688/462 1134/461
f 685/454 1135/457 687/460 251/455
f 137/1149 368/1148 1135/457 685/454
f 368/1148 41/275 609/458 1135/457
f 540/478 1136/453 686/456 148/479
f 4/13 529/12 1136/453 540/478
f 529/12 137/1149 685/454 1136/453
f 379/236 1137/449 449/452 51/237
f 148/479 686/456 1137/449 379/236
f 686/456 251/455 684/450 1137/449
f 681/442 1138/445 683/448 250/443
f 96/359 332/358 1138/445 681/442
f 332/358 5/17 513/16 1138/445
f 609/458 1139/441 682/444 216/459
f 41/275 483/274 1139/441 609/458
f 483/274 96/359 681/442 1139/441
f 448/240 1140/437 450/440 75/241
f 216/459 682/444 1140/437 448/240
f 682/444 250/443 680/438 1140/437
f 677/430 1141/433 679/436 249/431
f 221/1416 614/1417 1141/433 677/430
f 614/1417 76/251 612/434 1141/433
f 496/1080 1142/429 678/432 107/1081
f 54/215 453/1418 1142/429 496/1080
f 453/1418 221/415 677/430 1142/429
f 342/32 1143/425 324/428 20/33
f 107/1081 678/432 1143/425 342/32
f 678/432 249/431 676/426 1143/425
f 673/418 1144/421 675/424 248/419
f 81/1419 468/1420 1144/421 673/418
f 468/280 25/279 613/422 1144/421
f 544/554 1145/417 674/420 151/555
f 7/37 316/1421 1145/417 544/554
f 316/340 81/339 673/418 1145/417
f 382/214 1146/413 453/416 54/215
f 151/555 674/420 1146/413 382/214
f 674/420 248/419 672/414 1146/413
f 669/406 1147/409 671/412 247/407
f 119/1422 507/1423 1147/409 669/406
f 507/10 1/7 511/410 1147/409
f 613/422 1148/405 670/408 220/423
f 25/279 351/1154 1148/405 613/422
f 351/1154 119/1153 669/406 1148/405
f 452/250 1149/401 454/404 76/251
f 220/423 670/408 1149/401 452/250
f 670/408 247/407 668/402 1149/401
f 665/394 1150/397 667/400 246/395
f 225/1424 618/1425 1150/397 665/394
f 618/264 77/263 616/398 1150/397
f 380/1351 1151/393 666/396 149/1349
f 52/1345 457/1426 1151/393 380/1351
f 457/380 225/379 665/394 1151/393
f 541/1350 1152/389 320/392 16/1314
f 149/1349 666/396 1152/389 541/1350
f 666/396 246/395 664/390 1152/389
f 661/382 1153/385 663/388 245/383
f 93/1427 480/1428 1153/385 661/382
f 480/1428 38/219 617/386 1153/385
f 340/1346 1154/381 662/384 105/1343
f 18/1310 329/544 1154/381 340/1346
f 329/544 93/543 661/382 1154/381
f 494/1344 1155/377 457/380 52/1345
f 105/1343 662/384 1155/377 494/1344
f 662/384 245/383 660/378 1155/377
f 657/370 1156/373 659/376 244/371
f 134/1429 526/1430 1156/373 657/370
f 526/1430 6/1431 315/374 1156/373
f 617/386 1157/369 658/372 224/387
f 38/219 365/1086 1157/369 617/386
f 365/1086 134/1085 657/370 1157/369
f 456/262 1158/365 458/368 77/263
f 224/387 658/372 1158/365 456/262
f 658/372 244/371 656/366 1158/365
f 654/1432 1159/361 655/364 243/1433
f 133/1356 525/1354 1159/361 654/1432
f 525/1354 17/1355 321/362 1159/361
f 650/354 1160/357 652/360 242/355
f 118/1434 506/1435 1160/357 650/354
f 506/1435 5/17 332/358 1160/357
f 350/1134 118/1133 650/354 1161/353
f 651/356 242/355 649/350 1162/349
f 646/342 1163/345 648/348 241/343
f 231/1436 623/1437 1163/345 646/342
f 623/1437 78/1438 622/346 1163/345
f 372/1070 1164/341 647/344 141/1071
f 44/205 462/1439 1164/341 372/1070
f 462/1439 231/335 646/342 1164/341
f 533/36 1165/337 316/340 7/37
f 141/1071 647/344 1165/337 533/36
f 647/344 241/343 645/338 1165/337
f 486/204 1166/333 462/336 44/205
f 642/1440 1167/329 643/332 240/1441
f 509/1442 8/1382 317/330 1167/329
f 638/322 1168/325 640/328 239/323
f 235/1443 627/1444 1168/325 638/322
f 627/292 79/291 625/326 1168/325
f 349/1128 1169/321 639/324 116/1129
f 23/267 465/1445 1169/321 349/1128
f 465/1445 235/307 638/322 1169/321
f 504/20 1170/317 331/320 3/21
f 116/1129 639/324 1170/317 504/20
f 639/324 239/323 637/318 1170/317
f 634/310 1171/313 636/316 238/311
f 138/1446 369/1447 1171/313 634/310
f 315/374 1172/309 635/312 80/375
f 6/1431 530/1448 1172/309 315/374
f 530/1448 138/1446 634/310 1172/309
f 467/266 1173/305 465/308 23/267
f 80/375 635/312 1173/305 467/266
f 635/312 238/311 633/306 1173/305
f 630/302 1174/1449 632/1450 237/303
f 626/314 1175/301 631/304 234/315
f 464/290 1176/297 466/300 79/291
f 234/315 631/304 1176/297 464/290
f 631/304 237/303 629/298 1176/297
f 629/298 1177/293 628/296 236/299
f 237/303 632/1450 1177/293 629/298
f 632/1450 113/1451 502/294 1177/293
f 633/306 1178/289 627/292 235/307
f 238/311 636/316 1178/289 633/306
f 636/316 234/315 464/290 1178/289
f 637/318 1179/285 482/288 95/319
f 239/323 640/328 1179/285 637/318
f 640/328 233/327 463/286 1179/285
f 641/1452 1180/281 624/284 232/1181
f 240/1441 643/332 1180/281 641/1452
f 643/332 82/331 469/282 1180/281
f 644/334 1181/1453 623/1437 231/335
f 645/338 1182/277 468/280 81/339
f 241/343 648/348 1182/277 645/338
f 648/348 230/347 461/278 1182/277
f 649/350 1183/273 621/276 229/351
f 242/355 652/360 1183/273 649/350
f 652/360 96/359 483/274 1183/273
f 653/1454 1184/269 620/272 228/1190
f 243/1433 655/364 1184/269 653/1454
f 655/364 86/362 473/1106 1184/269
f 656/366 1185/265 619/268 226/367
f 244/371 659/376 1185/265 656/366
f 659/376 80/375 467/266 1185/265
f 660/378 1186/261 618/264 225/379
f 245/383 663/388 1186/261 660/378
f 663/388 224/387 456/262 1186/261
f 664/390 1187/257 472/260 85/391
f 246/395 667/400 1187/257 664/390
f 667/400 223/399 455/258 1187/257
f 668/402 1188/253 615/256 222/403
f 247/407 671/412 1188/253 668/402
f 671/412 122/411 354/254 1188/253
f 672/414 1189/249 614/252 221/415
f 248/419 675/424 1189/249 672/414
f 675/424 220/423 452/250 1189/249
f 676/426 1190/247 475/150 88/427
f 249/431 679/436 1190/247 676/426
f 679/436 219/435 451/248 1190/247
f 680/438 1191/243 611/246 218/439
f 250/443 683/448 1191/243 680/438
f 683/448 124/447 356/1140 1191/243
f 684/450 1192/239 610/242 217/451
f 251/455 687/460 1192/239 684/450
f 687/460 216/459 448/240 1192/239
f 691/470 1193/235 607/238 214/471
f 253/475 694/480 1193/235 691/470
f 694/480 148/479 379/236 1193/235
f 695/482 1194/231 606/234 213/483
f 254/487 698/492 1194/231 695/482
f 698/492 212/491 445/232 1194/231
f 699/494 1195/1455 498/1456 109/495
f 255/499 702/504 1195/1455 699/494
f 702/504 211/503 444/1457 1195/1455
f 703/506 1196/227 603/230 210/507
f 256/511 706/516 1196/227 703/506
f 706/516 146/515 377/228 1196/227
f 707/518 1197/223 602/226 209/519
f 257/523 710/528 1197/223 707/518
f 710/528 208/527 441/224 1197/223
f 711/530 1198/221 492/122 103/531
f 258/535 714/540 1198/221 711/530
f 714/540 207/539 440/222 1198/221
f 715/542 1199/217 480/220 93/543
f 716/546 1200/213 599/216 206/547
f 259/551 719/556 1200/213 716/546
f 719/556 151/555 382/214 1200/213
f 720/558 1201/209 598/212 205/559
f 260/563 723/568 1201/209 720/558
f 723/568 204/567 436/210 1201/209
f 724/570 1202/207 387/110 156/571
f 261/575 727/580 1202/207 724/570
f 727/580 203/579 435/208 1202/207
f 728/582 1203/203 595/206 202/583
f 729/586 1204/199 594/202 201/587
f 730/590 1205/195 371/198 140/591
f 262/595 733/600 1205/195 730/590
f 733/600 200/599 431/196 1205/195
f 734/602 1206/191 592/194 199/603
f 263/607 737/612 1206/191 734/602
f 737/612 130/611 362/192 1206/191
f 738/614 1207/187 591/190 198/615
f 264/619 741/624 1207/187 738/614
f 741/624 197/623 428/188 1207/187
f 742/626 1208/185 366/94 135/627
f 265/631 745/636 1208/185 742/626
f 745/636 196/635 427/186 1208/185
f 746/1458 1209/181 588/184 195/1459
f 266/639 749/644 1209/181 746/1378
f 749/644 142/643 373/182 1209/181
f 267/1366 753/648 1210/1460 750/1371
f 753/648 194/647 426/1377 1210/1460
f 754/650 1211/177 586/180 193/651
f 268/655 757/660 1211/177 754/650
f 757/660 99/659 488/178 1211/177
f 758/662 1212/1461 476/1282 89/663
f 759/666 1213/173 585/176 191/667
f 269/671 762/676 1213/173 759/666
f 762/676 87/675 474/174 1213/173
f 763/678 1215/165 490/168 101/679
f 764/682 1216/161 479/164 92/683
f 270/1353 767/688 1216/161 764/682
f 767/688 189/687 420/162 1216/161
f 768/690 1217/157 580/160 188/691
f 271/695 771/700 1217/157 768/690
f 771/700 91/699 478/158 1217/157
f 772/1462 1218/153 579/156 187/1463
f 272/703 775/708 1218/153 772/1347
f 775/708 186/707 418/154 1218/153
f 776/710 1219/149 576/152 185/711
f 273/715 779/718 1219/149 776/710
f 779/718 88/427 475/150 1219/149
f 780/720 1220/145 575/148 184/721
f 274/725 783/730 1220/145 780/720
f 783/730 183/729 415/146 1220/145
f 784/732 1221/141 353/144 121/733
f 275/737 787/742 1221/141 784/732
f 787/742 182/741 414/142 1221/141
f 791/752 1222/137 572/140 180/753
f 277/757 794/762 1222/137 791/752
f 794/762 179/761 411/138 1222/137
f 795/764 1223/133 364/135 132/765
f 278/769 798/774 1223/133 795/764
f 798/774 178/773 410/133 1223/133
f 799/776 1224/1464 569/1465 177/777
f 279/781 802/784 1224/1464 799/776
f 802/784 109/495 498/1456 1224/1464
f 803/786 1225/129 568/132 176/787
f 280/791 806/796 1225/129 803/786
f 806/796 175/795 407/130 1225/129
f 807/798 1226/125 385/128 154/799
f 281/803 810/808 1226/125 807/798
f 810/808 174/807 406/126 1226/125
f 811/810 1227/121 565/124 173/811
f 282/815 814/818 1227/121 811/810
f 814/818 103/531 492/122 1227/121
f 815/820 1228/117 564/120 172/821
f 283/825 818/830 1228/117 815/820
f 818/830 171/829 403/118 1228/117
f 819/832 1229/113 375/116 144/833
f 284/837 822/842 1229/113 819/832
f 822/842 170/841 402/114 1229/113
f 824/848 1230/109 561/112 169/849
f 285/853 827/856 1230/109 824/848
f 827/856 156/571 387/110 1230/109
f 828/858 1231/105 560/108 168/859
f 286/863 831/868 1231/105 828/858
f 831/868 167/867 399/106 1231/105
f 832/870 1232/101 389/104 158/871
f 287/875 835/880 1232/101 832/870
f 835/880 166/879 398/102 1232/101
f 836/882 1233/97 557/100 165/883
f 288/887 839/892 1233/97 836/882
f 839/892 150/891 381/98 1233/97
f 840/894 1234/93 555/96 162/895
f 289/899 843/902 1234/93 840/894
f 843/902 135/627 366/94 1234/93
f 844/904 1235/89 554/92 161/905
f 290/909 847/914 1235/89 844/904
f 847/914 160/913 392/90 1235/89
f 848/916 1236/85 386/88 155/917
f 291/921 851/926 1236/85 848/916
f 851/926 159/925 391/86 1236/85
f 852/928 1237/81 383/84 152/929
f 853/932 1238/77 343/80 108/933
f 854/936 1239/75 345/76 111/937
f 292/941 857/946 1239/75 854/936
f 857/946 94/945 330/42 1239/75
f 858/948 1240/71 519/74 128/949
f 293/953 861/958 1240/71 858/948
f 861/958 106/957 341/72 1240/71
f 862/960 1241/69 348/70 115/961
f 294/965 865/970 1241/69 862/960
f 865/970 112/969 346/34 1241/69
f 866/972 1242/67 336/68 100/973
f 295/977 869/982 1242/67 866/972
f 869/982 147/981 539/30 1242/67
f 876/1000 1243/65 318/66 83/1001
f 298/1005 879/1010 1243/65 876/1000
f 879/1010 127/1009 518/26 1243/65
f 880/1012 1244/61 514/64 125/1013
f 299/1017 883/1022 1244/61 880/1012
f 883/1022 131/1021 523/62 1244/61
f 884/1024 1245/57 524/60 132/1025
f 300/1029 887/1466 1245/57 884/1024
f 888/1032 1246/53 537/56 145/1033
f 890/1038 126/1037 517/52 1247/51
f 891/1467 1248/47 520/50 129/1291
f 892/1040 1249/43 546/46 153/1041
f 302/1045 895/1050 1249/43 892/1040
f 895/1050 143/1049 535/44 1249/43
f 896/1052 1250/39 330/42 94/945
f 303/1055 899/1060 1250/39 896/1052
f 899/1060 90/1059 326/40 1250/39
f 900/1062 1251/35 333/38 97/1063
f 304/1067 903/1072 1251/35 900/1062
f 903/1072 141/1071 533/36 1251/35
f 904/1074 1252/31 346/34 112/969
f 305/1077 907/1082 1252/31 904/1074
f 907/1082 107/1081 342/32 1252/31
f 909/1088 1253/27 539/30 147/981
f 306/1091 912/1096 1253/27 909/1088
f 912/1096 102/1095 338/28 1253/27
f 919/1110 1254/23 518/26 127/1009
f 308/1113 922/1118 1254/23 919/1110
f 922/1118 84/1117 319/24 1254/23
f 923/1120 1255/19 512/22 123/1121
f 309/1125 926/1130 1255/19 923/1120
f 926/1130 116/1129 504/20 1255/19
f 927/1132 1256/15 506/18 118/1133
f 310/1137 930/1142 1256/15 927/1132
f 930/1142 124/1141 513/446 1256/15
f 931/1144 1257/11 531/14 139/1145
f 311/1186 933/1150 1257/11 931/1144
f 933/1150 137/1149 529/12 1257/11
f 934/1152 1258/9 507/10 119/1153
f 312/1157 937/1184 1258/9 934/1152
f 937/1184 117/1468 505/8 1258/9
f 938/1469 1259/5 505/8 117/1468
f 313/1180 940/1162 1259/5 938/1469
f 940/1162 120/1161 508/6 1259/5
f 941/1164 1260/1 528/4 136/1165
f 314/1169 944/1174 1260/1 941/1164
f 944/1174 157/1173 550/2 1260/1
